<?xml version="1.0" encoding="UTF-8" standalone="no"?>
<svg
   xmlns:dc="http://purl.org/dc/elements/1.1/"
   xmlns:cc="http://creativecommons.org/ns#"
   xmlns:rdf="http://www.w3.org/1999/02/22-rdf-syntax-ns#"
   xmlns:svg="http://www.w3.org/2000/svg"
   xmlns="http://www.w3.org/2000/svg"
   xmlns:sodipodi="http://sodipodi.sourceforge.net/DTD/sodipodi-0.dtd"
   xmlns:inkscape="http://www.inkscape.org/namespaces/inkscape"
   width="264mm"
   height="271mm"
   viewBox="-21 -196 935.43371 960.23638"
   version="1.1"
   id="svg2"
   inkscape:version="0.91 r13725"
   sodipodi:docname="a bunch of stuff.svg">
  <metadata
     id="metadata12">
    <rdf:RDF>
      <cc:Work
         rdf:about="">
        <dc:format>image/svg+xml</dc:format>
        <dc:type
           rdf:resource="http://purl.org/dc/dcmitype/StillImage" />
        <dc:title>OpenSCAD Model</dc:title>
      </cc:Work>
    </rdf:RDF>
  </metadata>
  <defs
     id="defs10" />
  <sodipodi:namedview
     pagecolor="#ffffff"
     bordercolor="#666666"
     borderopacity="1"
     objecttolerance="10"
     gridtolerance="10"
     guidetolerance="10"
     inkscape:pageopacity="0"
     inkscape:pageshadow="2"
     inkscape:window-width="1536"
     inkscape:window-height="801"
     id="namedview8"
     showgrid="false"
     units="mm"
     inkscape:zoom="0.76901936"
     inkscape:cx="532.53426"
     inkscape:cy="773.13399"
     inkscape:window-x="-8"
     inkscape:window-y="-8"
     inkscape:window-maximized="1"
     inkscape:current-layer="svg2" />
  <title
     id="title4">OpenSCAD Model</title>
  <path
     d="m 120.39978,570.03511 4.47647,-0.42309 4.44111,-0.70334 4.38814,-0.98079 4.31791,-1.25468 4.2306,-1.52293 4.12664,-1.78581 4.00631,-2.04132 3.87032,-2.28897 3.71906,-2.52744 3.55287,-2.75563 3.37288,-2.97353 3.1794,-3.17943 2.97355,-3.37287 2.75563,-3.55288 2.52744,-3.71905 2.28897,-3.87031 2.04131,-4.0063 1.78582,-4.12666 1.52291,-4.23059 1.25469,-4.3179 0.98079,-4.38817 0.70335,-4.44111 0.42307,-4.47646 0.14137,-4.49419 0,-620.07878 -0.14137,-4.49291 -0.42307,-4.47874 -0.70335,-4.43979 -0.98079,-4.39016 -1.25469,-4.31573 -1.52291,-4.2307 -1.78582,-4.12796 -2.04131,-4.00392 -2.28897,-3.87283 -2.52744,-3.71696 -2.75563,-3.55392 -2.97355,-3.37322 -3.1794,-3.17836 -3.37288,-2.97283 -3.55287,-2.75669 -3.71906,-2.52637 -3.87032,-2.28901 -4.00631,-2.04092 -4.12664,-1.78582 -4.2306,-1.52364 -4.31791,-1.25432 -4.38814,-0.9815 -4.44111,-0.70511 -4.47647,-0.42168 -4.49419,-0.14166 -4.49419,0.14166 -4.47647,0.42168 -4.44111,0.70511 -4.388143,0.9815 -4.317909,1.25432 -4.230603,1.52364 -4.126641,1.78582 -4.006312,2.04092 -3.870317,2.28901 -3.719055,2.52637 -3.552874,2.75669 -3.372875,2.97283 -3.179409,3.17836 -2.973543,3.37322 -2.75563,3.55392 -2.527441,3.71696 -2.288977,3.87283 -2.0413,4.00392 -1.785826,4.12796 -1.522913,4.2307 -1.254685,4.31573 -0.980787,4.39016 -0.703346,4.43979 -0.423071,4.47874 -0.141379,4.49291 0,620.07878 0.141379,4.49419 0.423071,4.47646 0.703346,4.44111 0.980787,4.38817 1.254685,4.3179 1.522913,4.23059 1.785826,4.12666 2.0413,4.0063 2.288977,3.87031 2.527441,3.71905 2.75563,3.55288 2.973543,3.37287 3.179409,3.17943 3.372875,2.97353 3.552874,2.75563 3.719055,2.52744 3.870317,2.28897 4.006312,2.04132 4.126641,1.78581 4.230603,1.52293 4.317909,1.25468 4.388143,0.98079 4.44111,0.70334 4.47647,0.42309 4.49419,0.14131 z m -6.76353,-655.441392 -2.26043,-0.21268 -2.24252,-0.3579 -2.21581,-0.4925 -2.18026,-0.63425 -2.1363,-0.768885 -2.08371,-0.90356 -2.023019,-1.031097 -1.954275,-1.155121 -1.877918,-1.275592 -1.794012,-1.392515 -1.703125,-1.502371 -1.605438,-1.605125 -1.501476,-1.700779 -1.391634,-1.796473 -1.276193,-1.87795 -1.155756,-1.95234 -1.030783,-2.02325 -0.901736,-2.08346 -0.769111,-2.13662 -0.633437,-2.17912 -0.495177,-2.2181 -0.355394,-2.24291 -0.213661,-2.26064 -0.07122,-2.26771 0.07122,-2.26774 0.213661,-2.2606 0.355394,-2.24292 0.495177,-2.21811 0.633437,-2.17915 0.769111,-2.13661 0.901736,-2.08347 1.030783,-2.02321 1.155756,-1.95237 1.276193,-1.87796 1.391634,-1.79646 1.501476,-1.70078 1.605438,-1.60513 1.703125,-1.50233 1.794012,-1.39255 1.877918,-1.27555 1.954275,-1.15512 2.023019,-1.03113 2.08371,-0.90353 2.1363,-0.76888 2.18026,-0.63429 2.21581,-0.4925 2.24252,-0.35787 2.26043,-0.21268 2.26934,-0.071 2.26933,0.071 2.26043,0.21268 2.24253,0.35787 2.2158,0.4925 2.18027,0.63429 2.1363,0.76888 2.08371,0.90353 2.02301,1.03113 1.95428,1.15512 1.87792,1.27555 1.79401,1.39255 1.70312,1.50233 1.60544,1.60513 1.50148,1.70078 1.39163,1.79646 1.2762,1.87796 1.15575,1.95237 1.03078,2.02321 0.90174,2.08347 0.76911,2.13661 0.63344,2.17915 0.49517,2.21811 0.3554,2.24292 0.21366,2.2606 0.0712,2.26774 -0.0712,2.26771 -0.21366,2.26064 -0.3554,2.24291 -0.49517,2.2181 -0.63344,2.17912 -0.76911,2.13662 -0.90174,2.08346 -1.03078,2.02325 -1.15575,1.95234 -1.2762,1.87795 -1.39163,1.796473 -1.50148,1.700779 -1.60544,1.605125 -1.70312,1.502371 -1.79401,1.392515 -1.87792,1.275592 -1.95428,1.155121 -2.02301,1.031097 -2.08371,0.90356 -2.1363,0.768885 -2.18027,0.63425 -2.2158,0.4925 -2.24253,0.3579 -2.26043,0.21268 -2.26933,0.071 z m -24.305466,39.57875 0,-9.56691 53.149606,0 0,9.56691 z m 25.713796,62.0504 -0.85761,-0.0817 -0.85084,-0.13457 -0.84069,-0.18782 -0.82726,-0.23754 -0.81053,-0.29399 -0.79055,-0.34015 -0.76758,-0.39334 -0.74148,-0.4358 -0.71248,-0.48544 -0.68071,-0.52794 -0.64616,-0.57047 -0.60916,-0.60947 -0.56962,-0.6449 -0.52803,-0.68029 -0.48423,-0.71222 -0.43848,-0.74407 -0.39111,-0.76537 -0.34207,-0.79015 -0.29186,-0.81142 -0.24031,-0.82914 -0.1879,-0.83976 -0.13479,-0.8504 -0.081,-0.85748 -0.0271,-0.86102 0.0271,-0.86102 0.081,-0.85748005 0.13479,-0.8504 0.1879,-0.83976 0.24031,-0.82913995 0.29186,-0.81142 0.34207,-0.79015 0.39111,-0.76537 0.43848,-0.74407 0.48423,-0.71222 0.52803,-0.6803 0.56962,-0.64489 0.60916,-0.60947 0.64616,-0.57044 0.68071,-0.52797 0.71248,-0.48544 0.74148,-0.4358 0.76758,-0.39334 0.79055,-0.34015 0.81053,-0.29399 0.82726,-0.23754 0.84069,-0.18782 0.85084,-0.13457 0.85761,-0.0813 0.86101,-0.0284 0.86101,0.0284 0.8576,0.0813 0.85085,0.13457 0.84068,0.18782 0.82726,0.23754 0.81053,0.29399 0.79055,0.34015 0.76759,0.39334 0.74147,0.4358 0.71249,0.48544 0.6807,0.52797 0.64616,0.57044 0.60917,0.60947 0.56962,0.64489 0.52802,0.6803 0.48423,0.71222 0.43849,0.74407 0.39111,0.76537 0.34207,0.79015 0.29186,0.81142 0.24031,0.82913995 0.1879,0.83976 0.13478,0.8504 0.081,0.85748005 0.0269,0.86102 -0.0269,0.86102 -0.081,0.85748 -0.13478,0.8504 -0.1879,0.83976 -0.24031,0.82914 -0.29186,0.81142 -0.34207,0.79015 -0.39111,0.76537 -0.43849,0.74407 -0.48423,0.71222 -0.52802,0.68029 -0.56962,0.6449 -0.60917,0.60947 -0.64616,0.57047 -0.6807,0.52794 -0.71249,0.48544 -0.74147,0.4358 -0.76759,0.39334 -0.79055,0.34015 -0.81053,0.29399 -0.82726,0.23754 -0.84068,0.18782 -0.85085,0.13457 -0.8576,0.0817 -0.86101,0.0284 z m -25.713796,132.831542 0,-9.56695 53.149606,0 0,9.56695 z m 0,177.16535 0,-9.56691 53.149606,0 0,9.56691 z m 24.305466,208.45242 -2.26043,-0.21374 -2.24252,-0.35538 -2.21581,-0.49517 -2.18026,-0.63347 -2.1363,-0.76909 -2.08371,-0.90175 -2.023019,-1.03078 -1.954275,-1.15576 -1.877918,-1.2762 -1.794012,-1.39163 -1.703125,-1.50148 -1.605438,-1.60541 -1.501476,-1.70312 -1.391634,-1.79402 -1.276193,-1.87792 -1.155756,-1.95429 -1.030783,-2.02299 -0.901736,-2.08372 -0.769111,-2.13629 -0.633437,-2.18029 -0.495177,-2.2158 -0.355394,-2.24253 -0.213661,-2.26042 -0.07122,-2.26934 0.07122,-2.26931 0.213661,-2.26046 0.355394,-2.24253 0.495177,-2.21579 0.633437,-2.18026 0.769111,-2.13629 0.901736,-2.08372 1.030783,-2.02303 1.155756,-1.95425 1.276193,-1.87792 1.391634,-1.79402 1.501476,-1.70312 1.605438,-1.60545 1.703125,-1.50148 1.794012,-1.39163 1.877918,-1.27619 1.954275,-1.15576 2.023019,-1.03078 2.08371,-0.90175 2.1363,-0.7691 2.18026,-0.63343 2.21581,-0.4952 2.24252,-0.35538 2.26043,-0.21375 2.26934,-0.0714 2.26933,0.0714 2.26043,0.21375 2.24253,0.35538 2.2158,0.4952 2.18027,0.63343 2.1363,0.7691 2.08371,0.90175 2.02301,1.03078 1.95428,1.15576 1.87792,1.27619 1.79401,1.39163 1.70312,1.50148 1.60544,1.60545 1.50148,1.70312 1.39163,1.79402 1.2762,1.87792 1.15575,1.95425 1.03078,2.02303 0.90174,2.08372 0.76911,2.13629 0.63344,2.18026 0.49517,2.21579 0.3554,2.24253 0.21366,2.26046 0.0712,2.26931 -0.0712,2.26934 -0.21366,2.26042 -0.3554,2.24253 -0.49517,2.2158 -0.63344,2.18029 -0.76911,2.13629 -0.90174,2.08372 -1.03078,2.02299 -1.15575,1.95429 -1.2762,1.87792 -1.39163,1.79402 -1.50148,1.70312 -1.60544,1.60541 -1.70312,1.50148 -1.79401,1.39163 -1.87792,1.2762 -1.95428,1.15576 -2.02301,1.03078 -2.08371,0.90175 -2.1363,0.76909 -2.18027,0.63347 -2.2158,0.49517 -2.24253,0.35538 -2.26043,0.21374 -2.26933,0.0714 z"
     id="path6"
     inkscape:connector-curvature="0"
     style="fill:none;stroke:#ff0000;stroke-width:0.09;stroke-miterlimit:4;stroke-dasharray:none;stroke-opacity:1" />
  <path
     d="m 271.96644,576.45898 4.47648,-0.42309 4.44111,-0.70334 4.38814,-0.98079 4.31791,-1.25469 4.23061,-1.52293 4.12664,-1.78581 4.00631,-2.04132 3.87033,-2.28897 3.71905,-2.52744 3.55288,-2.75563 3.37288,-2.97353 3.17941,-3.17944 2.97355,-3.37287 2.75563,-3.55288 2.52744,-3.71905 2.28898,-3.87031 2.04131,-4.00631 1.78582,-4.12666 1.52291,-4.23059 1.25469,-4.3179 0.98079,-4.38818 0.70335,-4.44111 0.42307,-4.47646 0.14137,-4.49419 0,-620.07912 -0.14137,-4.49291 -0.42307,-4.47874 -0.70335,-4.43979 -0.98079,-4.39016 -1.25469,-4.31573 -1.52291,-4.23071 -1.78582,-4.12797 -2.04131,-4.00392 -2.28898,-3.87283 -2.52744,-3.71697 -2.75563,-3.55393 -2.97355,-3.37322 -3.17941,-3.17835 -3.37288,-2.97283 -3.55288,-2.75669 -3.71905,-2.52638 -3.87033,-2.28901 -4.00631,-2.04092 -4.12664,-1.78582 -4.23061,-1.52364 -4.31791,-1.25432 -4.38814,-0.9815 -4.44111,-0.70511 -4.47648,-0.42168 -4.49419,-0.14166 -4.49419,0.14166 -4.47648,0.42168 -4.44111,0.70511 -4.38814,0.9815 -4.31791,1.25432 -4.23061,1.52364 -4.12664,1.78582 -4.00631,2.04092 -3.87032,2.28901 -3.71906,2.52638 -3.55288,2.75669 -3.37287,2.97283 -3.17941,3.17835 -2.97355,3.37322 -2.75563,3.55393 -2.52744,3.71697 -2.28898,3.87283 -2.0413,4.00392 -1.78583,4.12797 -1.52291,4.23071 -1.25469,4.31573 -0.98078,4.39016 -0.70335,4.43979 -0.42307,4.47874 -0.14138,4.49291 0,620.07912 0.14138,4.49419 0.42307,4.47646 0.70335,4.44111 0.98078,4.38818 1.25469,4.3179 1.52291,4.23059 1.78583,4.12666 2.0413,4.00631 2.28898,3.87031 2.52744,3.71905 2.75563,3.55288 2.97355,3.37287 3.17941,3.17944 3.37287,2.97353 3.55288,2.75563 3.71906,2.52744 3.87032,2.28897 4.00631,2.04132 4.12664,1.78581 4.23061,1.52293 4.31791,1.25469 4.38814,0.98079 4.44111,0.70334 4.47648,0.42309 4.49419,0.14131 z m -6.76353,-655.441751 -2.26043,-0.21268 -2.24252,-0.3579 -2.21581,-0.49251 -2.18027,-0.63424 -2.1363,-0.76889 -2.08371,-0.90356 -2.02302,-1.0311 -1.95427,-1.155121 -1.87792,-1.275589 -1.79402,-1.39252 -1.70312,-1.502371 -1.60544,-1.60513 -1.50148,-1.700771 -1.39163,-1.796466 -1.27619,-1.877961 -1.15576,-1.952329 -1.03078,-2.023251 -0.90174,-2.08346 -0.76911,-2.13663 -0.63344,-2.17912 -0.49518,-2.2181 -0.35539,-2.24292 -0.21366,-2.26064 -0.0712,-2.26771 0.0712,-2.26774 0.21366,-2.2606 0.35539,-2.24292 0.49518,-2.21811 0.63344,-2.17915 0.76911,-2.13661 0.90174,-2.08347 1.03078,-2.02321 1.15576,-1.95237 1.27619,-1.87796 1.39163,-1.79646 1.50148,-1.70079 1.60544,-1.60513 1.70312,-1.50233 1.79402,-1.39255 1.87792,-1.27556 1.95427,-1.15512 2.02302,-1.03113 2.08371,-0.90353 2.1363,-0.76888 2.18027,-0.63429 2.21581,-0.4925 2.24252,-0.35787 2.26043,-0.21268 2.26934,-0.071 2.26933,0.071 2.26043,0.21268 2.24253,0.35787 2.21581,0.4925 2.18027,0.63429 2.13629,0.76888 2.08372,0.90353 2.02302,1.03113 1.95427,1.15512 1.87792,1.27556 1.79401,1.39255 1.70313,1.50233 1.60544,1.60513 1.50148,1.70079 1.39163,1.79646 1.27619,1.87796 1.15576,1.95237 1.03078,2.02321 0.90174,2.08347 0.76911,2.13661 0.63344,2.17915 0.49518,2.21811 0.3554,2.24292 0.21366,2.2606 0.0712,2.26774 -0.0712,2.26771 -0.21366,2.26064 -0.3554,2.24292 -0.49518,2.2181 -0.63344,2.17912 -0.76911,2.13663 -0.90174,2.08346 -1.03078,2.023251 -1.15576,1.952329 -1.27619,1.877961 -1.39163,1.796466 -1.50148,1.700771 -1.60544,1.60513 -1.70313,1.502371 -1.79401,1.39252 -1.87792,1.275589 -1.95427,1.155121 -2.02302,1.0311 -2.08372,0.90356 -2.13629,0.76889 -2.18027,0.63424 -2.21581,0.49251 -2.24253,0.3579 -2.26043,0.21268 -2.26933,0.071 z m -24.30548,39.578765 0,-9.56691 53.14964,0 0,9.56691 z m 25.71381,62.05044 -0.85761,-0.0817 -0.85084,-0.13457 -0.84069,-0.18782 -0.82726,-0.23754 -0.81053,-0.29399 -0.79055,-0.34015 -0.76759,-0.39333 -0.74147,-0.43581 -0.71249,-0.48544 -0.6807,-0.52794 -0.64616,-0.57047 -0.60917,-0.60947 -0.56962,-0.64489 -0.52802,-0.6803 -0.48423,-0.71223 -0.43849,-0.74406 -0.39111,-0.76537 -0.34207,-0.79016 -0.29186,-0.81142 -0.24031,-0.82914 -0.1879,-0.83976 -0.13479,-0.85041 -0.081,-0.85747 -0.0271,-0.86103 0.0271,-0.86102 0.081,-0.85747 0.13479,-0.85041 0.1879,-0.83976 0.24031,-0.82913 0.29186,-0.81143 0.34207,-0.79015 0.39111,-0.76537 0.43849,-0.74406 0.48423,-0.71222005 0.52802,-0.6803 0.56962,-0.6449 0.60917,-0.60945995 0.64616,-0.57045 0.6807,-0.52798 0.71249,-0.48544 0.74147,-0.4358 0.76759,-0.39334 0.79055,-0.34014 0.81053,-0.29399 0.82726,-0.23754 0.84069,-0.18783 0.85084,-0.13457 0.85761,-0.0813 0.86101,-0.0284 0.86101,0.0284 0.8576,0.0813 0.85085,0.13457 0.84068,0.18783 0.82727,0.23754 0.81053,0.29399 0.79055,0.34014 0.76758,0.39334 0.74148,0.4358 0.71249,0.48544 0.6807,0.52798 0.64616,0.57045 0.60916,0.60945995 0.56963,0.6449 0.52802,0.6803 0.48423,0.71222005 0.43848,0.74406 0.39111,0.76537 0.34207,0.79015 0.29187,0.81143 0.2403,0.82913 0.18791,0.83976 0.13478,0.85041 0.081,0.85747 0.0269,0.86102 -0.0269,0.86103 -0.081,0.85747 -0.13478,0.85041 -0.18791,0.83976 -0.2403,0.82914 -0.29187,0.81142 -0.34207,0.79016 -0.39111,0.76537 -0.43848,0.74406 -0.48423,0.71223 -0.52802,0.6803 -0.56963,0.64489 -0.60916,0.60947 -0.64616,0.57047 -0.6807,0.52794 -0.71249,0.48544 -0.74148,0.43581 -0.76758,0.39333 -0.79055,0.34015 -0.81053,0.29399 -0.82727,0.23754 -0.84068,0.18782 -0.85085,0.13457 -0.8576,0.0817 -0.86101,0.0284 z m -25.71381,132.831606 0,-9.56695 53.14964,0 0,9.56695 z m 0,177.16545 0,-9.56691 53.14964,0 0,9.56691 z m 24.30548,208.45254 -2.26043,-0.21374 -2.24252,-0.35538 -2.21581,-0.49517 -2.18027,-0.63347 -2.1363,-0.76909 -2.08371,-0.90175 -2.02302,-1.03079 -1.95427,-1.15576 -1.87792,-1.2762 -1.79402,-1.39163 -1.70312,-1.50148 -1.60544,-1.60541 -1.50148,-1.70312 -1.39163,-1.79402 -1.27619,-1.87792 -1.15576,-1.95429 -1.03078,-2.02299 -0.90174,-2.08373 -0.76911,-2.13629 -0.63344,-2.18029 -0.49518,-2.2158 -0.35539,-2.24253 -0.21366,-2.26042 -0.0712,-2.26934 0.0712,-2.26931 0.21366,-2.26047 0.35539,-2.24253 0.49518,-2.21579 0.63344,-2.18026 0.76911,-2.13629 0.90174,-2.08372 1.03078,-2.02303 1.15576,-1.95425 1.27619,-1.87792 1.39163,-1.79403 1.50148,-1.70312 1.60544,-1.60545 1.70312,-1.50148 1.79402,-1.39163 1.87792,-1.27619 1.95427,-1.15576 2.02302,-1.03078 2.08371,-0.90175 2.1363,-0.7691 2.18027,-0.63343 2.21581,-0.4952 2.24252,-0.35538 2.26043,-0.21375 2.26934,-0.0714 2.26933,0.0714 2.26043,0.21375 2.24253,0.35538 2.21581,0.4952 2.18027,0.63343 2.13629,0.7691 2.08372,0.90175 2.02302,1.03078 1.95427,1.15576 1.87792,1.27619 1.79401,1.39163 1.70313,1.50148 1.60544,1.60545 1.50148,1.70312 1.39163,1.79403 1.27619,1.87792 1.15576,1.95425 1.03078,2.02303 0.90174,2.08372 0.76911,2.13629 0.63344,2.18026 0.49518,2.21579 0.3554,2.24253 0.21366,2.26047 0.0712,2.26931 -0.0712,2.26934 -0.21366,2.26042 -0.3554,2.24253 -0.49518,2.2158 -0.63344,2.18029 -0.76911,2.13629 -0.90174,2.08373 -1.03078,2.02299 -1.15576,1.95429 -1.27619,1.87792 -1.39163,1.79402 -1.50148,1.70312 -1.60544,1.60541 -1.70313,1.50148 -1.79401,1.39163 -1.87792,1.2762 -1.95427,1.15576 -2.02302,1.03079 -2.08372,0.90175 -2.13629,0.76909 -2.18027,0.63347 -2.21581,0.49517 -2.24253,0.35538 -2.26043,0.21374 -2.26933,0.0714 z"
     id="path6-5"
     inkscape:connector-curvature="0"
     style="fill:none;stroke:#ff0000;stroke-width:0.09;stroke-miterlimit:4;stroke-dasharray:none;stroke-opacity:1" />
  <path
     d="m 372.95919,642.42048 1.64313,-0.1545 1.63019,-0.25655 1.61069,-0.35788 1.58492,-0.45757 1.55287,-0.55562 1.51473,-0.65142 1.47056,-0.74467 1.42062,-0.83494 1.36505,-0.92195 1.30409,-1.00527 1.23803,-1.08471 1.1671,-1.15987 1.09145,-1.23037 1.01157,-1.296 0.92769,-1.35661 0.84014,-1.41185 0.74927,-1.46142 0.65552,-1.5054 0.55906,-1.54323 0.46042,-1.57511 0.36011,-1.6007 0.25812,-1.62013 0.15535,-1.63293 0.0519,-1.63941 0,-770.53204 -0.0519,-1.64026 -0.15535,-1.63318 -0.25812,-1.619 -0.36011,-1.60127 -0.46042,-1.57296 -0.55906,-1.54461 -0.65552,-1.50564 -0.74927,-1.46313 -0.84014,-1.40995 -0.92769,-1.35688 -1.01157,-1.2966 -1.09145,-1.22932 -1.1671,-1.15847 -1.23803,-1.08759 -1.30409,-1.00257 -1.36505,-0.92465 -1.42062,-0.83252 -1.47056,-0.74749 -1.51473,-0.64832 -1.55287,-0.55621 -1.58492,-0.45698 -1.61069,-0.35784 -1.63019,-0.25866 -1.64313,-0.15239 -1.64959,-0.0531 -1.6496,0.0531 -1.64312,0.15239 -1.63019,0.25866 -1.61069,0.35784 -1.58492,0.45698 -1.55287,0.55621 -1.51473,0.64832 -1.47056,0.74749 -1.42063,0.83252 -1.36504,0.92465 -1.30409,1.00257 -1.23804,1.08759 -1.16709,1.15847 -1.09145,1.22932 -1.01157,1.2966 -0.92769,1.35688 -0.84014,1.40995 -0.74927,1.46313 -0.65552,1.50564 -0.55906,1.54461 -0.46042,1.57296 -0.36011,1.60127 -0.25812,1.619 -0.15535,1.63318 -0.0519,1.64026 0,770.53204 0.0519,1.63941 0.15535,1.63293 0.25812,1.62013 0.36011,1.6007 0.46042,1.57511 0.55906,1.54323 0.65552,1.5054 0.74927,1.46142 0.84014,1.41185 0.92769,1.35661 1.01157,1.296 1.09145,1.23037 1.16709,1.15987 1.23804,1.08471 1.30409,1.00527 1.36504,0.92195 1.42063,0.83494 1.47056,0.74467 1.51473,0.65142 1.55287,0.55562 1.58492,0.45757 1.61069,0.35788 1.63019,0.25655 1.64312,0.1545 1.6496,0.0514 z m -2.51581,-782.90825 -0.86279,-0.0813 -0.856,-0.13444 -0.84576,-0.18792 -0.83227,-0.23755 -0.81543,-0.29386 -0.79533,-0.33996 -0.77223,-0.39324 -0.74596,-0.43572 -0.7168,-0.48538 -0.68482,-0.52785 -0.65007,-0.57037 -0.61285,-0.60932 -0.57306,-0.64477 -0.53122,-0.6802 -0.48716,-0.71209 -0.44114,-0.74393 -0.39347,-0.76526 -0.34414,-0.79001 -0.29363,-0.81126 -0.24176,-0.82899 -0.18904,-0.83959 -0.1356,-0.85026 -0.0815,-0.85736 -0.0273,-0.86084 0.0273,-0.86089 0.0815,-0.85733 0.1356,-0.85022 0.18904,-0.83962 0.24176,-0.829 0.29363,-0.81126 0.34414,-0.79004 0.39347,-0.76519 0.44114,-0.74397 0.48716,-0.71205 0.53122,-0.6802 0.57306,-0.64477 0.61285,-0.60936 0.65007,-0.57036 0.68482,-0.52789 0.7168,-0.48531 0.74596,-0.43579 0.77223,-0.3932 0.79533,-0.33996 0.81543,-0.29386 0.83227,-0.23755 0.84576,-0.18793 0.856,-0.13443 0.86279,-0.0813 0.86622,-0.0282 0.86622,0.0282 0.86279,0.0813 0.85599,0.13443 0.84577,0.18793 0.83227,0.23755 0.81543,0.29386 0.79533,0.33996 0.77223,0.3932 0.74596,0.43579 0.7168,0.48531 0.68482,0.52789 0.65007,0.57036 0.61284,0.60936 0.57307,0.64477 0.53122,0.6802 0.48716,0.71205 0.44113,0.74397 0.39348,0.76519 0.34414,0.79004 0.29363,0.81126 0.24176,0.829 0.18904,0.83962 0.1356,0.85022 0.0815,0.85733 0.0273,0.86089 -0.0273,0.86084 -0.0815,0.85736 -0.1356,0.85026 -0.18904,0.83959 -0.24176,0.82899 -0.29363,0.81126 -0.34414,0.79001 -0.39348,0.76526 -0.44113,0.74393 -0.48716,0.71209 -0.53122,0.6802 -0.57307,0.64477 -0.61284,0.60932 -0.65007,0.57037 -0.68482,0.52785 -0.7168,0.48538 -0.74596,0.43572 -0.77223,0.39324 -0.79533,0.33996 -0.81543,0.29386 -0.83227,0.23755 -0.84577,0.18792 -0.85599,0.13444 -0.86279,0.0813 -0.86622,0.0282 z m 0,770.5333 -0.86279,-0.0809 -0.856,-0.13444 -0.84576,-0.18792 -0.83227,-0.24037 -0.81543,-0.29175 -0.79533,-0.34173 -0.77223,-0.39106 -0.74596,-0.43839 -0.7168,-0.48414 -0.68482,-0.52793 -0.65007,-0.56952 -0.61285,-0.60904 -0.57306,-0.64607 -0.53122,-0.68059 -0.48716,-0.71237 -0.44114,-0.74133 -0.39347,-0.76744 -0.34414,-0.79043 -0.29363,-0.81038 -0.24176,-0.82709 -0.18904,-0.84054 -0.1356,-0.85068 -0.0815,-0.85747 -0.0273,-0.86088 0.0273,-0.86081 0.0815,-0.8575 0.1356,-0.85064 0.18904,-0.84054 0.24176,-0.82714 0.29363,-0.81038 0.34414,-0.79042 0.39347,-0.76745 0.44114,-0.74133 0.48716,-0.71237 0.53122,-0.68055 0.57306,-0.64607 0.61285,-0.60904 0.65007,-0.56952 0.68482,-0.52796 0.7168,-0.48411 0.74596,-0.43843 0.77223,-0.39103 0.79533,-0.34172 0.81543,-0.29174 0.83227,-0.24037 0.84576,-0.18793 0.856,-0.13443 0.86279,-0.0813 0.86622,-0.0281 0.86622,0.0281 0.86279,0.0813 0.85599,0.13443 0.84577,0.18793 0.83227,0.24037 0.81543,0.29174 0.79533,0.34172 0.77223,0.39103 0.74596,0.43843 0.7168,0.48411 0.68482,0.52796 0.65007,0.56952 0.61284,0.60904 0.57307,0.64607 0.53122,0.68055 0.48716,0.71237 0.44113,0.74133 0.39348,0.76745 0.34414,0.79042 0.29363,0.81038 0.24176,0.82714 0.18904,0.84054 0.1356,0.85064 0.0815,0.8575 0.0273,0.86081 -0.0273,0.86088 -0.0815,0.85747 -0.1356,0.85068 -0.18904,0.84054 -0.24176,0.82709 -0.29363,0.81038 -0.34414,0.79043 -0.39348,0.76744 -0.44113,0.74133 -0.48716,0.71237 -0.53122,0.68059 -0.57307,0.64607 -0.61284,0.60904 -0.65007,0.56952 -0.68482,0.52793 -0.7168,0.48414 -0.74596,0.43839 -0.77223,0.39106 -0.79533,0.34173 -0.81543,0.29175 -0.83227,0.24037 -0.84577,0.18792 -0.85599,0.13444 -0.86279,0.0809 -0.86622,0.0282 z"
     id="path6-1"
     inkscape:connector-curvature="0"
     style="fill:none;stroke:#ff0000;stroke-width:0.09;stroke-miterlimit:4;stroke-dasharray:none;stroke-opacity:1" />
  <path
     d="m 673.55579,699.66564 -3.08263,-0.38893 -3.0525,-0.58163 -3.0096,-0.77223 -2.95535,-0.95924 -2.88904,-1.14275 -2.81139,-1.3216 -2.7231,-1.49555 -2.62347,-1.66345 -2.51391,-1.82463 -2.39441,-1.97871 -194.465,-163.27815 -3.37517,-2.97265 -3.18157,-3.17849 -2.97555,-3.37189 -2.75749,-3.55184 -2.52916,-3.71795 -2.29052,-3.8692 -2.04269,-4.00514 -1.78703,-4.12542 -1.52395,-4.22939 -1.25553,-4.31661 -0.98145,-4.38689 -0.70382,-4.43979 -0.42336,-4.47517 -23.5435,-535.833498 0,-44.278342 41.83969,-59.98482 21.27425,0 0,104.259652 73.89252,0 0,-28.338174 17.01869,-75.921478 13.11983,0 -0.47619,609.556 146.97984,174.71405 1.98063,2.3921 1.82639,2.51147 1.66507,2.62091 1.49699,2.72047 1.32291,2.80867 1.14384,2.88625 0.96018,2.95246 0.77296,3.00669 0.58221,3.04953 0.38932,3.07966 0.19501,3.09806 0,3.10446 -0.19501,3.09807 -0.38932,3.08 -0.58221,3.04918 -0.77296,3.00704 -0.96018,2.95212 -1.14384,2.88624 -1.32291,2.80903 -1.49699,2.72046 -1.66507,2.62095 -1.82639,2.51147 -1.98063,2.39174 -2.12707,2.26314 -2.26535,2.12502 -2.39407,1.97871 -2.5139,1.82463 -2.62347,1.66345 -2.7231,1.49555 -2.81175,1.3216 -2.88904,1.14275 -2.95499,0.95924 -3.00995,0.77223 -3.05215,0.58163 -3.08299,0.38893 -3.10108,0.19482 -3.10745,0 z M 523.2827,48.83503 l 0,-9.56415 -53.1856,0 0,9.56415 z m 0,141.69084 0,-9.56413 -53.1856,0 0,9.56413 z m 0,141.69085 0,-9.56417 -53.1856,0 0,9.56417 z m -24.32192,172.96871 2.26195,-0.21363 2.24404,-0.3553 2.21731,-0.49504 2.18174,-0.63322 2.13776,-0.7689 2.08512,-0.90147 2.02438,-1.0305 1.9556,-1.15541 1.87919,-1.27583 1.79523,-1.39123 1.70427,-1.50102 1.60652,-1.60496 1.5025,-1.70266 1.39258,-1.79346 1.27706,-1.87736 1.15653,-1.95373 1.03149,-2.02243 0.90234,-2.08308 0.76963,-2.13567 0.63387,-2.17963 0.49551,-2.21516 0.35564,-2.24188 0.2138,-2.25976 0.0712,-2.26867 -0.0712,-2.26868 -0.2138,-2.25976 -0.35564,-2.24188 -0.49551,-2.21516 -0.63387,-2.1796 -0.76963,-2.1357 -0.90234,-2.08308 -1.03149,-2.02243 -1.15653,-1.95373 -1.27706,-1.87736 -1.39258,-1.79346 -1.5025,-1.70262 -1.60652,-1.605 -1.70427,-1.50102 -1.79523,-1.39123 -1.87919,-1.27582 -1.9556,-1.15541 -2.02438,-1.0305 -2.08512,-0.90148 -2.13776,-0.76886 -2.18174,-0.63326 -2.21731,-0.49504 -2.24404,-0.3553 -2.26195,-0.21363 -2.27088,-0.0713 -2.27087,0.0713 -2.26196,0.21363 -2.24405,0.3553 -2.2173,0.49504 -2.18175,0.63326 -2.13773,0.76886 -2.08512,0.90148 -2.0244,1.0305 -1.9556,1.15541 -1.87918,1.27582 -1.79523,1.39123 -1.70428,1.50102 -1.60653,1.605 -1.50248,1.70262 -1.39259,1.79346 -1.27704,1.87736 -1.15655,1.95373 -1.03148,2.02243 -0.90235,2.08308 -0.76963,2.1357 -0.63387,2.1796 -0.49551,2.21516 -0.35563,2.24188 -0.21381,2.25976 -0.0712,2.26868 0.0712,2.26867 0.21381,2.25976 0.35563,2.24188 0.49551,2.21516 0.63387,2.17963 0.76963,2.13567 0.90235,2.08308 1.03148,2.02243 1.15655,1.95373 1.27704,1.87736 1.39259,1.79346 1.50248,1.70266 1.60653,1.60496 1.70428,1.50102 1.79523,1.39123 1.87918,1.27583 1.9556,1.15541 2.0244,1.0305 2.08512,0.90147 2.13773,0.7689 2.18175,0.63322 2.2173,0.49504 2.24405,0.3553 2.26196,0.21363 2.27087,0.0713 z m 120.20564,48.72641 -6.76947,-6.7629 -37.60788,37.57146 6.76945,6.7629 z m 59.47533,110.26024 0.86019,-0.0543 0.85523,-0.10753 0.84671,-0.16146 0.83502,-0.21399 0.81976,-0.2665 0.80169,-0.3169 0.78005,-0.36665 0.75524,-0.4148 0.72793,-0.46155 0.69744,-0.50618 0.66411,-0.5487 0.6283,-0.58979 0.59036,-0.62769 0.54923,-0.66346 0.50668,-0.69679 0.46201,-0.72723 0.4152,-0.75449 0.36698,-0.77929 0.31734,-0.80093 0.26664,-0.81897 0.21416,-0.83419 0.16169,-0.8459 0.10779,-0.85441 0.0543,-0.85935 0,-0.86112 -0.0543,-0.8597 -0.10779,-0.85438 -0.16169,-0.8459 -0.21416,-0.83423 -0.26664,-0.81896 -0.31734,-0.80055 -0.36698,-0.77929 -0.4152,-0.75487 -0.46201,-0.72688 -0.50668,-0.69676 -0.54923,-0.66346 -0.59036,-0.62804 -0.6283,-0.58944 -0.66411,-0.54905 -0.69744,-0.50622 -0.72793,-0.46154 -0.75524,-0.41481 -0.78005,-0.36661 -0.80169,-0.3169 -0.81976,-0.26615 -0.83502,-0.21434 -0.84671,-0.16111 -0.85523,-0.10823 -0.86019,-0.0543 -0.86196,0 -0.86054,0.0543 -0.85522,0.10823 -0.84672,0.16111 -0.83501,0.21434 -0.81977,0.26615 -0.80133,0.3169 -0.78006,0.36661 -0.75559,0.41481 -0.72757,0.46154 -0.69745,0.50622 -0.66411,0.54905 -0.62865,0.58944 -0.59001,0.62804 -0.54958,0.66346 -0.50668,0.69676 -0.46201,0.72688 -0.4152,0.75487 -0.36698,0.77929 -0.31734,0.80055 -0.26628,0.81896 -0.21452,0.83423 -0.16133,0.8459 -0.10814,0.85438 -0.0542,0.8597 0,0.86112 0.0542,0.85935 0.10814,0.85441 0.16133,0.8459 0.21452,0.83419 0.26628,0.81897 0.31734,0.80093 0.36698,0.77929 0.4152,0.75449 0.46201,0.72723 0.50668,0.69679 0.54958,0.66346 0.59001,0.62769 0.62865,0.58979 0.66411,0.5487 0.69745,0.50618 0.72757,0.46155 0.75559,0.4148 0.78006,0.36665 0.80133,0.3169 0.81977,0.2665 0.83501,0.21399 0.84672,0.16146 0.85522,0.10753 0.86054,0.0543 z"
     id="path6-7"
     inkscape:connector-curvature="0"
     style="fill:none;stroke:#ff0000;stroke-width:0.09;stroke-miterlimit:4;stroke-dasharray:none;stroke-opacity:1" />
  <path
     d="m 849.58612,673.10098 -3.08263,-0.38893 -3.05251,-0.58163 -3.0096,-0.77223 -2.95535,-0.95924 -2.88904,-1.14275 -2.81139,-1.3216 -2.72311,-1.49555 -2.62347,-1.66346 -2.51391,-1.82463 -2.39441,-1.97871 -194.46513,-163.27826 -3.37518,-2.97265 -3.18157,-3.17849 -2.97555,-3.3719 -2.75749,-3.55184 -2.52916,-3.71795 -2.29053,-3.8692 -2.04269,-4.00515 -1.78703,-4.12542 -1.52395,-4.22939 -1.25553,-4.31662 -0.98145,-4.38689 -0.70382,-4.43979 -0.42336,-4.47517 -23.54352,-535.833851 0,-44.278379 41.83972,-59.98487 21.27427,0 0,104.259739 73.89256,0 0,-28.338199 17.01871,-75.92154 13.11984,0 -0.4762,609.55641 146.97995,174.71417 1.98063,2.39211 1.82639,2.51147 1.66507,2.62091 1.49699,2.72047 1.32291,2.80867 1.14384,2.88626 0.96018,2.95246 0.77296,3.00669 0.58221,3.04953 0.38932,3.07966 0.19501,3.09807 0,3.10446 -0.19501,3.09807 -0.38932,3.08 -0.58221,3.04918 -0.77296,3.00705 -0.96018,2.95212 -1.14384,2.88624 -1.32291,2.80903 -1.49699,2.72046 -1.66507,2.62096 -1.82639,2.51147 -1.98063,2.39174 -2.12708,2.26314 -2.26535,2.12502 -2.39407,1.97871 -2.5139,1.82463 -2.62347,1.66346 -2.7231,1.49555 -2.81176,1.3216 -2.88904,1.14275 -2.95499,0.95924 -3.00995,0.77223 -3.05215,0.58163 -3.083,0.38893 -3.10108,0.19482 -3.10745,0 z m -150.2732,-650.831048 0,-9.564148 -53.18563,0 0,9.564148 z m 0,141.690928 0,-9.56414 -53.18563,0 0,9.56414 z m 0,141.69095 0,-9.56418 -53.18563,0 0,9.56418 z m -24.32193,172.96883 2.26195,-0.21363 2.24404,-0.3553 2.21731,-0.49504 2.18175,-0.63322 2.13776,-0.7689 2.08512,-0.90148 2.02438,-1.0305 1.9556,-1.15541 1.87919,-1.27583 1.79523,-1.39123 1.70428,-1.50102 1.60651,-1.60496 1.5025,-1.70266 1.39259,-1.79346 1.27706,-1.87736 1.15653,-1.95374 1.03149,-2.02243 0.90234,-2.08308 0.76963,-2.13567 0.63387,-2.17963 0.49551,-2.21516 0.35564,-2.24188 0.2138,-2.25977 0.0712,-2.26867 -0.0712,-2.26868 -0.2138,-2.25976 -0.35564,-2.24188 -0.49551,-2.21516 -0.63387,-2.17961 -0.76963,-2.1357 -0.90234,-2.08308 -1.03149,-2.02243 -1.15653,-1.95373 -1.27706,-1.87736 -1.39259,-1.79346 -1.5025,-1.70262 -1.60651,-1.60501 -1.70428,-1.50102 -1.79523,-1.39123 -1.87919,-1.27582 -1.9556,-1.15541 -2.02438,-1.0305 -2.08512,-0.90148 -2.13776,-0.76886 -2.18175,-0.63326 -2.21731,-0.49504 -2.24404,-0.3553 -2.26195,-0.21363 -2.27088,-0.0713 -2.27087,0.0713 -2.26197,0.21363 -2.24405,0.3553 -2.2173,0.49504 -2.18175,0.63326 -2.13773,0.76886 -2.08512,0.90148 -2.0244,1.0305 -1.95561,1.15541 -1.87918,1.27582 -1.79523,1.39123 -1.70428,1.50102 -1.60653,1.60501 -1.50248,1.70262 -1.39259,1.79346 -1.27704,1.87736 -1.15655,1.95373 -1.03148,2.02243 -0.90236,2.08308 -0.76963,2.1357 -0.63387,2.17961 -0.49551,2.21516 -0.35563,2.24188 -0.21381,2.25976 -0.0712,2.26868 0.0712,2.26867 0.21381,2.25977 0.35563,2.24188 0.49551,2.21516 0.63387,2.17963 0.76963,2.13567 0.90236,2.08308 1.03148,2.02243 1.15655,1.95374 1.27704,1.87736 1.39259,1.79346 1.50248,1.70266 1.60653,1.60496 1.70428,1.50102 1.79523,1.39123 1.87918,1.27583 1.95561,1.15541 2.0244,1.0305 2.08512,0.90148 2.13773,0.7689 2.18175,0.63322 2.2173,0.49504 2.24405,0.3553 2.26197,0.21363 2.27087,0.0713 z m 120.20572,48.72644 -6.76947,-6.7629 -37.60791,37.57148 6.76945,6.76291 z m 59.47537,110.26032 0.86019,-0.0543 0.85523,-0.10753 0.84671,-0.16146 0.83502,-0.21399 0.81976,-0.2665 0.80169,-0.3169 0.78005,-0.36666 0.75525,-0.4148 0.72793,-0.46155 0.69744,-0.50618 0.66411,-0.5487 0.6283,-0.58979 0.59036,-0.62769 0.54923,-0.66346 0.50668,-0.69679 0.46201,-0.72723 0.4152,-0.75449 0.36698,-0.77929 0.31734,-0.80093 0.26664,-0.81897 0.21416,-0.83419 0.16169,-0.8459 0.10779,-0.85441 0.0543,-0.85935 0,-0.86112 -0.0543,-0.8597 -0.10779,-0.85438 -0.16169,-0.84591 -0.21416,-0.83423 -0.26664,-0.81896 -0.31734,-0.80055 -0.36698,-0.77929 -0.4152,-0.75487 -0.46201,-0.72688 -0.50668,-0.69676 -0.54923,-0.66346 -0.59036,-0.62804 -0.6283,-0.58944 -0.66411,-0.54905 -0.69744,-0.50622 -0.72793,-0.46154 -0.75525,-0.41481 -0.78005,-0.36661 -0.80169,-0.3169 -0.81976,-0.26615 -0.83502,-0.21434 -0.84671,-0.16111 -0.85523,-0.10823 -0.86019,-0.0543 -0.86196,0 -0.86054,0.0543 -0.85522,0.10823 -0.84672,0.16111 -0.83501,0.21434 -0.81977,0.26615 -0.80133,0.3169 -0.78006,0.36661 -0.75559,0.41481 -0.72757,0.46154 -0.69746,0.50622 -0.66411,0.54905 -0.62865,0.58944 -0.59001,0.62804 -0.54958,0.66346 -0.50668,0.69676 -0.46201,0.72688 -0.4152,0.75487 -0.36698,0.77929 -0.31734,0.80055 -0.26628,0.81896 -0.21452,0.83423 -0.16133,0.84591 -0.10814,0.85438 -0.0542,0.8597 0,0.86112 0.0542,0.85935 0.10814,0.85441 0.16133,0.8459 0.21452,0.83419 0.26628,0.81897 0.31734,0.80093 0.36698,0.77929 0.4152,0.75449 0.46201,0.72723 0.50668,0.69679 0.54958,0.66346 0.59001,0.62769 0.62865,0.58979 0.66411,0.5487 0.69746,0.50618 0.72757,0.46155 0.75559,0.4148 0.78006,0.36666 0.80133,0.3169 0.81977,0.2665 0.83501,0.21399 0.84672,0.16146 0.85522,0.10753 0.86054,0.0543 z"
     id="path6-7-9"
     inkscape:connector-curvature="0"
     style="fill:none;stroke:#ff0000;stroke-width:0.09;stroke-miterlimit:4;stroke-dasharray:none;stroke-opacity:1" />
  <path
     d="m 13.013303,445.71911 1.63324,-0.15449 1.62039,-0.25653 1.60101,-0.35795 1.57539,-0.45765 1.54354,-0.5557 1.50562,-0.65159 1.46172,-0.74476 1.41208,-0.83509 1.35684,-0.92211 1.29625,-1.00549 1.23059,-1.08489 1.16008,-1.16007 1.08489,-1.23059 1.00549,-1.29625 0.92211,-1.35684 0.83508,-1.41208 0.74477,-1.46172 0.65158,-1.50563 0.5557,-1.54354 0.45765,-1.57539 0.35795,-1.60101 0.25657,-1.62039 0.15442,-1.63325 0.0516,-1.63966 0,-575.78787 -0.0516,-1.64055 -0.15442,-1.63347 -0.25657,-1.61929 -0.35795,-1.60158 -0.45765,-1.57323 -0.5557,-1.54488 -0.65158,-1.50591 -0.74477,-1.46339 -0.83508,-1.41023 -0.92211,-1.35709 -1.00549,-1.29685 -1.08489,-1.22953 -1.16008,-1.15867 -1.23059,-1.08779 -1.29625,-1.00276 -1.35684,-0.9248 -1.41208,-0.83268 -1.46172,-0.74764 -1.50562,-0.64842 -1.54354,-0.5563 -1.57539,-0.45709 -1.60101,-0.35787 -1.62039,-0.25867 -1.63324,-0.15236 -1.63968,-0.0532 -1.6396759,0.0532 -1.63324,0.15236 -1.62039,0.25867 -1.60101,0.35787 -1.57539,0.45709 -1.54354,0.5563 -1.50562001,0.64842 -1.46171999,0.74764 -1.41208,0.83268 -1.35684,0.9248 -1.29625,1.00276 -1.23059,1.08779 -1.16008,1.15867 -1.08489,1.22953 -1.00549,1.29685 -0.9221101,1.35709 -0.83509,1.41023 -0.74477,1.46339 -0.65157,1.50591 -0.5557,1.54488 -0.45766,1.57323 -0.35794,1.60158 -0.25657,1.61929 -0.15442,1.63347 -0.0515,1.64055 0,575.78787 0.0515,1.63966 0.15442,1.63325 0.25657,1.62039 0.35794,1.60101 0.45766,1.57539 0.5557,1.54354 0.65157,1.50563 0.74477,1.46172 0.83509,1.41208 0.9221101,1.35684 1.00549,1.29625 1.08489,1.23059 1.16008,1.16007 1.23059,1.08489 1.29625,1.00549 1.35684,0.92211 1.41208,0.83509 1.46171999,0.74476 1.50562001,0.65159 1.54354,0.5557 1.57539,0.45765 1.60101,0.35795 1.62039,0.25653 1.63324,0.15449 1.6396759,0.0514 z m -2.500686,-588.16624 -0.8576099,-0.0815 -0.85084,-0.13464 -0.84069,-0.1878 -0.82726,-0.2374 -0.81053,-0.2941 -0.79055,-0.34015 -0.76759,-0.39331 -0.74147,-0.43583 -0.71249,-0.48543 -0.6807,-0.52795 -0.64616,-0.57048 -0.60917,-0.60944 -0.56962001,-0.6449 -0.52802,-0.68031 -0.48423,-0.71221 -0.43849,-0.74409 -0.39110999,-0.76536 -0.34207,-0.79015 -0.29186,-0.81142 -0.24031,-0.82913 -0.1879,-0.83977 -0.13479,-0.85039 -0.081,-0.85748 -0.0271,-0.86103 0.0271,-0.86102 0.081,-0.85748 0.13479,-0.85039 0.1879,-0.83977 0.24031,-0.82913 0.29186,-0.81142 0.34207,-0.79017 0.39110999,-0.76535 0.43849,-0.7441 0.48423,-0.7122 0.52802,-0.68032 0.56962001,-0.64488 0.60917,-0.60945 0.64616,-0.57047 0.6807,-0.52795 0.71249,-0.48543 0.74147,-0.43583 0.76759,-0.39331 0.79055,-0.34016 0.81053,-0.29409 0.82726,-0.2374 0.84069,-0.1878 0.85084,-0.13464 0.8576099,-0.0815 0.861006,-0.0283 0.86101,0.0283 0.8576,0.0815 0.85085,0.13464 0.84068,0.1878 0.82727,0.2374 0.81053,0.29409 0.79055,0.34016 0.76759,0.39331 0.74147,0.43583 0.71249,0.48543 0.6807,0.52795 0.64616,0.57047 0.60917,0.60945 0.56962,0.64488 0.52802,0.68032 0.48423,0.7122 0.43849,0.7441 0.39111,0.76535 0.34207,0.79017 0.29186,0.81142 0.24031,0.82913 0.1879,0.83977 0.13479,0.85039 0.081,0.85748 0.0271,0.86102 -0.0271,0.86103 -0.081,0.85748 -0.13479,0.85039 -0.1879,0.83977 -0.24031,0.82913 -0.29186,0.81142 -0.34207,0.79015 -0.39111,0.76536 -0.43849,0.74409 -0.48423,0.71221 -0.52802,0.68031 -0.56962,0.6449 -0.60917,0.60944 -0.64616,0.57048 -0.6807,0.52795 -0.71249,0.48543 -0.74147,0.43583 -0.76759,0.39331 -0.79055,0.34015 -0.81053,0.2941 -0.82727,0.2374 -0.84068,0.1878 -0.85085,0.13464 -0.8576,0.0815 -0.86101,0.0283 z m 0,575.7891 -0.8576099,-0.0811 -0.85084,-0.13464 -0.84069,-0.1878 -0.82726,-0.24023 -0.81053,-0.29197 -0.79055,-0.34193 -0.76759,-0.39111 -0.74147,-0.43849 -0.71249,-0.48423 -0.6807,-0.52802 -0.64616,-0.56962 -0.60917,-0.60918 -0.56962001,-0.64615 -0.52802,-0.68071 -0.48423,-0.71249 -0.43849,-0.74147 -0.39110999,-0.76759 -0.34207,-0.79054 -0.29186,-0.81053 -0.24031,-0.82726 -0.1879,-0.84069 -0.13479,-0.85085 -0.081,-0.85762 -0.0271,-0.86099 0.0271,-0.86102 0.081,-0.85759 0.13479,-0.85086 0.1879,-0.84068 0.24031,-0.82727 0.29186,-0.81053 0.34207,-0.79055 0.39110999,-0.76758 0.43849,-0.74147 0.48423,-0.71249 0.52802,-0.68071 0.56962001,-0.64616 0.60917,-0.60916 0.64616,-0.56962 0.6807,-0.52803 0.71249,-0.48422 0.74147,-0.43849 0.76759,-0.39111 0.79055,-0.34193 0.81053,-0.29197 0.82726,-0.24023 0.84069,-0.1878 0.85084,-0.13464 0.8576099,-0.0811 0.861006,-0.0283 0.86101,0.0283 0.8576,0.0811 0.85085,0.13464 0.84068,0.1878 0.82727,0.24023 0.81053,0.29197 0.79055,0.34193 0.76759,0.39111 0.74147,0.43849 0.71249,0.48422 0.6807,0.52803 0.64616,0.56962 0.60917,0.60916 0.56962,0.64616 0.52802,0.68071 0.48423,0.71249 0.43849,0.74147 0.39111,0.76758 0.34207,0.79055 0.29186,0.81053 0.24031,0.82727 0.1879,0.84068 0.13479,0.85086 0.081,0.85759 0.0271,0.86102 -0.0271,0.86099 -0.081,0.85762 -0.13479,0.85085 -0.1879,0.84069 -0.24031,0.82726 -0.29186,0.81053 -0.34207,0.79054 -0.39111,0.76759 -0.43849,0.74147 -0.48423,0.71249 -0.52802,0.68071 -0.56962,0.64615 -0.60917,0.60918 -0.64616,0.56962 -0.6807,0.52802 -0.71249,0.48423 -0.74147,0.43849 -0.76759,0.39111 -0.79055,0.34193 -0.81053,0.29197 -0.82727,0.24023 -0.84068,0.1878 -0.85085,0.13464 -0.8576,0.0811 -0.86101,0.0284 z"
     id="path6-14"
     inkscape:connector-curvature="0"
     style="fill:none;stroke:#ff0000;stroke-width:0.09;stroke-miterlimit:4;stroke-dasharray:none;stroke-opacity:1" />
</svg>
