<?xml version="1.0" standalone="no"?>
<!DOCTYPE svg PUBLIC "-//W3C//DTD SVG 1.1//EN" "http://www.w3.org/Graphics/SVG/1.1/DTD/svg11.dtd">
<svg width="42" height="217" viewBox="-21 -196 42 217" xmlns="http://www.w3.org/2000/svg" version="1.1">
<title>OpenSCAD Model</title>
<path d="
M 1.26836,20.1601 L 2.53172,20.0407 L 3.7851,19.8422 L 5.02353,19.5654 L 6.24214,19.2113 L 7.43611,18.7815
 L 8.60074,18.2775 L 9.73141,17.7014 L 10.8237,17.0554 L 11.8733,16.3421 L 12.876,15.5644 L 13.8279,14.7252
 L 14.7252,13.8279 L 15.5644,12.876 L 16.3421,11.8733 L 17.0554,10.8237 L 17.7014,9.73141 L 18.2775,8.60074
 L 18.7815,7.43611 L 19.2113,6.24214 L 19.5654,5.02353 L 19.8422,3.7851 L 20.0407,2.53172 L 20.1601,1.26836
 L 20.2,-0 L 20.2,-175 L 20.1601,-176.268 L 20.0407,-177.532 L 19.8422,-178.785 L 19.5654,-180.024
 L 19.2113,-181.242 L 18.7815,-182.436 L 18.2775,-183.601 L 17.7014,-184.731 L 17.0554,-185.824 L 16.3421,-186.873
 L 15.5644,-187.876 L 14.7252,-188.828 L 13.8279,-189.725 L 12.876,-190.564 L 11.8733,-191.342 L 10.8237,-192.055
 L 9.73141,-192.701 L 8.60074,-193.277 L 7.43611,-193.781 L 6.24214,-194.211 L 5.02353,-194.565 L 3.7851,-194.842
 L 2.53172,-195.041 L 1.26836,-195.16 L 0,-195.2 L -1.26836,-195.16 L -2.53172,-195.041 L -3.7851,-194.842
 L -5.02353,-194.565 L -6.24214,-194.211 L -7.43611,-193.781 L -8.60074,-193.277 L -9.73141,-192.701 L -10.8237,-192.055
 L -11.8733,-191.342 L -12.876,-190.564 L -13.8279,-189.725 L -14.7252,-188.828 L -15.5644,-187.876 L -16.3421,-186.873
 L -17.0554,-185.824 L -17.7014,-184.731 L -18.2775,-183.601 L -18.7815,-182.436 L -19.2113,-181.242 L -19.5654,-180.024
 L -19.8422,-178.785 L -20.0407,-177.532 L -20.1601,-176.268 L -20.2,-175 L -20.2,-0 L -20.1601,1.26836
 L -20.0407,2.53172 L -19.8422,3.7851 L -19.5654,5.02353 L -19.2113,6.24214 L -18.7815,7.43611 L -18.2775,8.60074
 L -17.7014,9.73141 L -17.0554,10.8237 L -16.3421,11.8733 L -15.5644,12.876 L -14.7252,13.8279 L -13.8279,14.7252
 L -12.876,15.5644 L -11.8733,16.3421 L -10.8237,17.0554 L -9.73141,17.7014 L -8.60074,18.2775 L -7.43611,18.7815
 L -6.24214,19.2113 L -5.02353,19.5654 L -3.7851,19.8422 L -2.53172,20.0407 L -1.26836,20.1601 L 0,20.2
 z
M -0.640457,-164.82 L -1.2784,-164.88 L -1.91129,-164.981 L -2.53664,-165.12 L -3.15196,-165.299 L -3.75487,-165.516
 L -4.34294,-165.771 L -4.91388,-166.062 L -5.46542,-166.388 L -5.99541,-166.748 L -6.50172,-167.141 L -6.98238,-167.565
 L -7.43547,-168.018 L -7.85922,-168.498 L -8.25197,-169.005 L -8.61214,-169.535 L -8.93832,-170.086 L -9.22923,-170.657
 L -9.48372,-171.245 L -9.70078,-171.848 L -9.87955,-172.463 L -10.0193,-173.089 L -10.1196,-173.722 L -10.1799,-174.36
 L -10.2,-175 L -10.1799,-175.64 L -10.1196,-176.278 L -10.0193,-176.911 L -9.87955,-177.537 L -9.70078,-178.152
 L -9.48372,-178.755 L -9.22923,-179.343 L -8.93832,-179.914 L -8.61214,-180.465 L -8.25197,-180.995 L -7.85922,-181.502
 L -7.43547,-181.982 L -6.98238,-182.435 L -6.50172,-182.859 L -5.99541,-183.252 L -5.46542,-183.612 L -4.91388,-183.938
 L -4.34294,-184.229 L -3.75487,-184.484 L -3.15196,-184.701 L -2.53664,-184.88 L -1.91129,-185.019 L -1.2784,-185.12
 L -0.640457,-185.18 L 0,-185.2 L 0.640457,-185.18 L 1.2784,-185.12 L 1.91129,-185.019 L 2.53664,-184.88
 L 3.15196,-184.701 L 3.75487,-184.484 L 4.34294,-184.229 L 4.91388,-183.938 L 5.46542,-183.612 L 5.99541,-183.252
 L 6.50172,-182.859 L 6.98238,-182.435 L 7.43547,-181.982 L 7.85922,-181.502 L 8.25197,-180.995 L 8.61214,-180.465
 L 8.93832,-179.914 L 9.22923,-179.343 L 9.48372,-178.755 L 9.70078,-178.152 L 9.87955,-177.537 L 10.0193,-176.911
 L 10.1196,-176.278 L 10.1799,-175.64 L 10.2,-175 L 10.1799,-174.36 L 10.1196,-173.722 L 10.0193,-173.089
 L 9.87955,-172.463 L 9.70078,-171.848 L 9.48372,-171.245 L 9.22923,-170.657 L 8.93832,-170.086 L 8.61214,-169.535
 L 8.25197,-169.005 L 7.85922,-168.498 L 7.43547,-168.018 L 6.98238,-167.565 L 6.50172,-167.141 L 5.99541,-166.748
 L 5.46542,-166.388 L 4.91388,-166.062 L 4.34294,-165.771 L 3.75487,-165.516 L 3.15196,-165.299 L 2.53664,-165.12
 L 1.91129,-164.981 L 1.2784,-164.88 L 0.640457,-164.82 L 0,-164.8 z
M -7.5,-153.65 L -7.5,-156.35 L 7.5,-156.35 L 7.5,-153.65 z
M -0.242996,-136.138 L -0.485031,-136.161 L -0.725159,-136.199 L -0.962418,-136.252 L -1.19589,-136.319 L -1.42464,-136.402
 L -1.64775,-136.498 L -1.86438,-136.609 L -2.07364,-136.732 L -2.27472,-136.869 L -2.46683,-137.018 L -2.64919,-137.179
 L -2.82111,-137.351 L -2.98187,-137.533 L -3.13089,-137.725 L -3.26755,-137.926 L -3.3913,-138.136 L -3.50168,-138.352
 L -3.59822,-138.575 L -3.68059,-138.804 L -3.74841,-139.038 L -3.80144,-139.275 L -3.83948,-139.515 L -3.86235,-139.757
 L -3.87,-140 L -3.86235,-140.243 L -3.83948,-140.485 L -3.80144,-140.725 L -3.74841,-140.962 L -3.68059,-141.196
 L -3.59822,-141.425 L -3.50168,-141.648 L -3.3913,-141.864 L -3.26755,-142.074 L -3.13089,-142.275 L -2.98187,-142.467
 L -2.82111,-142.649 L -2.64919,-142.821 L -2.46683,-142.982 L -2.27472,-143.131 L -2.07364,-143.268 L -1.86438,-143.391
 L -1.64775,-143.502 L -1.42464,-143.598 L -1.19589,-143.681 L -0.962418,-143.748 L -0.725159,-143.801 L -0.485031,-143.839
 L -0.242996,-143.862 L 0,-143.87 L 0.242996,-143.862 L 0.485031,-143.839 L 0.725159,-143.801 L 0.962418,-143.748
 L 1.19589,-143.681 L 1.42464,-143.598 L 1.64775,-143.502 L 1.86438,-143.391 L 2.07364,-143.268 L 2.27472,-143.131
 L 2.46683,-142.982 L 2.64919,-142.821 L 2.82111,-142.649 L 2.98187,-142.467 L 3.13089,-142.275 L 3.26755,-142.074
 L 3.3913,-141.864 L 3.50168,-141.648 L 3.59822,-141.425 L 3.68059,-141.196 L 3.74841,-140.962 L 3.80144,-140.725
 L 3.83948,-140.485 L 3.86235,-140.243 L 3.87,-140 L 3.86235,-139.757 L 3.83948,-139.515 L 3.80144,-139.275
 L 3.74841,-139.038 L 3.68059,-138.804 L 3.59822,-138.575 L 3.50168,-138.352 L 3.3913,-138.136 L 3.26755,-137.926
 L 3.13089,-137.725 L 2.98187,-137.533 L 2.82111,-137.351 L 2.64919,-137.179 L 2.46683,-137.018 L 2.27472,-136.869
 L 2.07364,-136.732 L 1.86438,-136.609 L 1.64775,-136.498 L 1.42464,-136.402 L 1.19589,-136.319 L 0.962418,-136.252
 L 0.725159,-136.199 L 0.485031,-136.161 L 0.242996,-136.138 L 0,-136.13 z
M -7.5,-98.65 L -7.5,-101.35 L 7.5,-101.35 L 7.5,-98.65 z
M -7.5,-48.65 L -7.5,-51.35 L 7.5,-51.35 L 7.5,-48.65 z
M -0.640457,10.1799 L -1.2784,10.1196 L -1.91129,10.0193 L -2.53664,9.87955 L -3.15196,9.70078 L -3.75487,9.48372
 L -4.34294,9.22923 L -4.91388,8.93832 L -5.46542,8.61214 L -5.99541,8.25197 L -6.50172,7.85922 L -6.98238,7.43547
 L -7.43547,6.98238 L -7.85922,6.50172 L -8.25197,5.99541 L -8.61214,5.46542 L -8.93832,4.91388 L -9.22923,4.34294
 L -9.48372,3.75487 L -9.70078,3.15196 L -9.87955,2.53664 L -10.0193,1.91129 L -10.1196,1.2784 L -10.1799,0.640457
 L -10.2,-0 L -10.1799,-0.640457 L -10.1196,-1.2784 L -10.0193,-1.91129 L -9.87955,-2.53664 L -9.70078,-3.15196
 L -9.48372,-3.75487 L -9.22923,-4.34294 L -8.93832,-4.91388 L -8.61214,-5.46542 L -8.25197,-5.99541 L -7.85922,-6.50172
 L -7.43547,-6.98238 L -6.98238,-7.43547 L -6.50172,-7.85922 L -5.99541,-8.25197 L -5.46542,-8.61214 L -4.91388,-8.93832
 L -4.34294,-9.22923 L -3.75487,-9.48372 L -3.15196,-9.70078 L -2.53664,-9.87955 L -1.91129,-10.0193 L -1.2784,-10.1196
 L -0.640457,-10.1799 L 0,-10.2 L 0.640457,-10.1799 L 1.2784,-10.1196 L 1.91129,-10.0193 L 2.53664,-9.87955
 L 3.15196,-9.70078 L 3.75487,-9.48372 L 4.34294,-9.22923 L 4.91388,-8.93832 L 5.46542,-8.61214 L 5.99541,-8.25197
 L 6.50172,-7.85922 L 6.98238,-7.43547 L 7.43547,-6.98238 L 7.85922,-6.50172 L 8.25197,-5.99541 L 8.61214,-5.46542
 L 8.93832,-4.91388 L 9.22923,-4.34294 L 9.48372,-3.75487 L 9.70078,-3.15196 L 9.87955,-2.53664 L 10.0193,-1.91129
 L 10.1196,-1.2784 L 10.1799,-0.640457 L 10.2,-0 L 10.1799,0.640457 L 10.1196,1.2784 L 10.0193,1.91129
 L 9.87955,2.53664 L 9.70078,3.15196 L 9.48372,3.75487 L 9.22923,4.34294 L 8.93832,4.91388 L 8.61214,5.46542
 L 8.25197,5.99541 L 7.85922,6.50172 L 7.43547,6.98238 L 6.98238,7.43547 L 6.50172,7.85922 L 5.99541,8.25197
 L 5.46542,8.61214 L 4.91388,8.93832 L 4.34294,9.22923 L 3.75487,9.48372 L 3.15196,9.70078 L 2.53664,9.87955
 L 1.91129,10.0193 L 1.2784,10.1196 L 0.640457,10.1799 L 0,10.2 z
" stroke="black" fill="lightgray" stroke-width="0.5"/></svg>
