<?xml version="1.0" encoding="UTF-8" standalone="no"?>
<svg
   xmlns:dc="http://purl.org/dc/elements/1.1/"
   xmlns:cc="http://creativecommons.org/ns#"
   xmlns:rdf="http://www.w3.org/1999/02/22-rdf-syntax-ns#"
   xmlns:svg="http://www.w3.org/2000/svg"
   xmlns="http://www.w3.org/2000/svg"
   xmlns:sodipodi="http://sodipodi.sourceforge.net/DTD/sodipodi-0.dtd"
   xmlns:inkscape="http://www.inkscape.org/namespaces/inkscape"
   width="153mm"
   height="248mm"
   viewBox="-66 -180 542.12616 878.74016"
   version="1.1"
   id="svg2"
   inkscape:version="0.91 r13725"
   sodipodi:docname="forearm.svg">
  <metadata
     id="metadata12">
    <rdf:RDF>
      <cc:Work
         rdf:about="">
        <dc:format>image/svg+xml</dc:format>
        <dc:type
           rdf:resource="http://purl.org/dc/dcmitype/StillImage" />
        <dc:title>OpenSCAD Model</dc:title>
      </cc:Work>
    </rdf:RDF>
  </metadata>
  <defs
     id="defs10" />
  <sodipodi:namedview
     pagecolor="#ffffff"
     bordercolor="#666666"
     borderopacity="1"
     objecttolerance="10"
     gridtolerance="10"
     guidetolerance="10"
     inkscape:pageopacity="0"
     inkscape:pageshadow="2"
     inkscape:window-width="1536"
     inkscape:window-height="801"
     id="namedview8"
     showgrid="false"
     units="mm"
     inkscape:zoom="0.6783626"
     inkscape:cx="-109.47128"
     inkscape:cy="317.24175"
     inkscape:window-x="-8"
     inkscape:window-y="-8"
     inkscape:window-maximized="1"
     inkscape:current-layer="svg2" />
  <title
     id="title4">OpenSCAD Model</title>
  <path
     d="m -7.4777834,694.11603 3.0826356,-0.38893 3.052497,-0.58163 3.0095939,-0.77223 2.9553446,-0.95924 2.8890401,-1.14275 2.8113892,-1.3216 2.723101,-1.49555 2.623466,-1.66345 2.513906,-1.82462 2.394414,-1.97871 194.464866,-163.27805 3.37516,-2.97265 3.18157,-3.17849 2.97555,-3.37188 2.75749,-3.55184 2.52916,-3.71795 2.29051,-3.8692 2.04269,-4.00514 1.78703,-4.12541 1.52395,-4.22939 1.25553,-4.31661 0.98145,-4.38688 0.70382,-4.43979 0.42336,-4.47517 23.54348,-535.833142 0,-44.278328 -41.83966,-59.98479 -21.27424,0 0,104.259605 -73.89247,0 0,-28.338157 -17.01867,-75.921448 -13.119825,0 0.476187,609.55562 -146.979732,174.71394 -1.98063,2.3921 -1.826393,2.51147 -1.665063,2.62091 -1.496996,2.72046 -1.322902,2.80867 -1.143845,2.88625 -0.960176,2.95246 -0.772963,3.00669 -0.582206,3.04952 -0.389318,3.07966 -0.195014,3.09806 0,3.10446 0.195014,3.09807 0.389318,3.08 0.582206,3.04917 0.772963,3.00704 0.960176,2.95212 1.143845,2.88624 1.322902,2.80903 1.496996,2.72045 1.665063,2.62095 1.826393,2.51147 1.98063,2.39174 2.127068,2.26314 2.265351,2.12502 2.39406,1.97871 2.513904,1.82462 2.623467,1.66345 2.7231,1.49555 2.811744,1.3216 2.889041,1.14275 2.95499,0.95924 3.009948,0.77223 3.052142,0.58163 3.08299,0.38893 3.101074,0.19482 3.107455,0 z M 142.7952,43.28587 l 0,-9.564153 53.18557,0 0,9.564153 z m 0,141.69071 0,-9.56411 53.18557,0 0,9.56411 z m 0,141.69076 0,-9.56416 53.18557,0 0,9.56416 z m 24.32191,172.9686 -2.26195,-0.21363 -2.24404,-0.3553 -2.21731,-0.49504 -2.18174,-0.63322 -2.13775,-0.7689 -2.08512,-0.90147 -2.02438,-1.0305 -1.9556,-1.15541 -1.87919,-1.27582 -1.79523,-1.39123 -1.70427,-1.50102 -1.60652,-1.60496 -1.5025,-1.70266 -1.39257,-1.79346 -1.27706,-1.87736 -1.15653,-1.95373 -1.03149,-2.02243 -0.90234,-2.08307 -0.76963,-2.13567 -0.63387,-2.17963 -0.49551,-2.21516 -0.35564,-2.24188 -0.2138,-2.25976 -0.0712,-2.26867 0.0712,-2.26867 0.2138,-2.25976 0.35564,-2.24188 0.49551,-2.21516 0.63387,-2.1796 0.76963,-2.1357 0.90234,-2.08308 1.03149,-2.02242 1.15653,-1.95373 1.27706,-1.87736 1.39257,-1.79346 1.5025,-1.70262 1.60652,-1.605 1.70427,-1.50102 1.79523,-1.39123 1.87919,-1.27582 1.9556,-1.15541 2.02438,-1.0305 2.08512,-0.90147 2.13775,-0.76886 2.18174,-0.63326 2.21731,-0.49504 2.24404,-0.3553 2.26195,-0.21363 2.27088,-0.0713 2.27086,0.0713 2.26196,0.21363 2.24405,0.3553 2.2173,0.49504 2.18175,0.63326 2.13773,0.76886 2.08512,0.90147 2.02439,1.0305 1.9556,1.15541 1.87918,1.27582 1.79523,1.39123 1.70428,1.50102 1.60653,1.605 1.50248,1.70262 1.39259,1.79346 1.27704,1.87736 1.15655,1.95373 1.03147,2.02242 0.90235,2.08308 0.76963,2.1357 0.63387,2.1796 0.49551,2.21516 0.35563,2.24188 0.21381,2.25976 0.0712,2.26867 -0.0712,2.26867 -0.21381,2.25976 -0.35563,2.24188 -0.49551,2.21516 -0.63387,2.17963 -0.76963,2.13567 -0.90235,2.08307 -1.03147,2.02243 -1.15655,1.95373 -1.27704,1.87736 -1.39259,1.79346 -1.50248,1.70266 -1.60653,1.60496 -1.70428,1.50102 -1.79523,1.39123 -1.87918,1.27582 -1.9556,1.15541 -2.02439,1.0305 -2.08512,0.90147 -2.13773,0.7689 -2.18175,0.63322 -2.2173,0.49504 -2.24405,0.3553 -2.26196,0.21363 -2.27086,0.0713 z m -120.20556,48.72638 6.769459,-6.76289 37.607869,37.57143 -6.769458,6.7629 z m -59.475292,110.26017 -0.860187,-0.0543 -0.855224,-0.10753 -0.846714,-0.16146 -0.835014,-0.21399 -0.819767,-0.2665 -0.801684,-0.3169 -0.780054,-0.36665 -0.755236,-0.4148 -0.727933,-0.46155 -0.69744,-0.50618 -0.66411,-0.5487 -0.628299,-0.58979 -0.590359,-0.62769 -0.549231,-0.66346 -0.50668,-0.69678 -0.462006,-0.72723 -0.415202,-0.75449 -0.36698,-0.77929 -0.317341,-0.80093 -0.266637,-0.81897 -0.21416,-0.83419 -0.161685,-0.8459 -0.107789,-0.85441 -0.05425,-0.85935 0,-0.86112 0.05425,-0.8597 0.107789,-0.85438 0.161685,-0.8459 0.21416,-0.83423 0.266637,-0.81896 0.317341,-0.80055 0.36698,-0.77929 0.415202,-0.75487 0.462006,-0.72688 0.50668,-0.69675 0.549231,-0.66346 0.590359,-0.62804 0.628299,-0.58944 0.66411,-0.54905 0.69744,-0.50622 0.727933,-0.46154 0.755236,-0.41481 0.780054,-0.36661 0.801684,-0.3169 0.819767,-0.26615 0.835014,-0.21434 0.846714,-0.16111 0.855224,-0.10823 0.860187,-0.0543 0.861961,0 0.860543,0.0543 0.8552236,0.10823 0.846714,0.16111 0.835013,0.21434 0.819768,0.26615 0.8013285,0.3169 0.7800549,0.36661 0.7555896,0.41481 0.7275786,0.46154 0.6974401,0.50622 0.6641104,0.54905 0.6286535,0.58944 0.5900052,0.62804 0.5495841,0.66346 0.50668121,0.69675 0.4620053,0.72688 0.415202,0.75487 0.3669804,0.77929 0.3173406,0.80055 0.26628229,0.81896 0.2145152,0.83423 0.1613295,0.8459 0.108144,0.85438 0.054249,0.8597 0,0.86112 -0.054249,0.85935 -0.108144,0.85441 -0.1613295,0.8459 -0.2145152,0.83419 -0.26628229,0.81897 -0.3173406,0.80093 -0.3669804,0.77929 -0.415202,0.75449 -0.4620053,0.72723 -0.50668121,0.69678 -0.5495841,0.66346 -0.5900052,0.62769 -0.6286535,0.58979 -0.6641104,0.5487 -0.6974401,0.50618 -0.7275786,0.46155 -0.7555896,0.4148 -0.7800549,0.36665 -0.8013285,0.3169 -0.819768,0.2665 -0.835013,0.21399 -0.846714,0.16146 -0.8552236,0.10753 -0.860543,0.0543 z"
     id="path6"
     inkscape:connector-curvature="0"
     style="fill:none;stroke:#ff0000;stroke-width:0.09;stroke-miterlimit:4;stroke-dasharray:none;stroke-opacity:1" />
  <path
     d="m 189.76206,691.7485 3.08263,-0.38893 3.0525,-0.58163 3.0096,-0.77223 2.95534,-0.95924 2.88904,-1.14275 2.81139,-1.3216 2.7231,-1.49555 2.62347,-1.66345 2.51391,-1.82463 2.39441,-1.97871 194.46493,-163.2781 3.37516,-2.97265 3.18158,-3.17849 2.97555,-3.37189 2.75749,-3.55184 2.52916,-3.71795 2.29051,-3.8692 2.04269,-4.00514 1.78703,-4.12541 1.52395,-4.22939 1.25553,-4.31662 0.98145,-4.38688 0.70382,-4.43979 0.42336,-4.47517 23.54349,-535.833318 0,-44.278352 -41.83967,-59.98481 -21.27425,0 0,104.259652 -73.8925,0 0,-28.338181 -17.01867,-75.921471 -13.11983,0 0.47619,609.55583 -146.97979,174.714 -1.98063,2.3921 -1.82639,2.51147 -1.66506,2.62091 -1.497,2.72046 -1.3229,2.80867 -1.14385,2.88626 -0.96017,2.95246 -0.77297,3.00669 -0.5822,3.04952 -0.38932,3.07966 -0.19502,3.09806 0,3.10446 0.19502,3.09807 0.38932,3.08 0.5822,3.04917 0.77297,3.00705 0.96017,2.95212 1.14385,2.88624 1.3229,2.80903 1.497,2.72045 1.66506,2.62095 1.82639,2.51147 1.98063,2.39174 2.12707,2.26314 2.26536,2.12502 2.39406,1.97871 2.5139,1.82463 2.62347,1.66345 2.7231,1.49555 2.81174,1.3216 2.88905,1.14275 2.95499,0.95924 3.00995,0.77223 3.05214,0.58163 3.08299,0.38893 3.10108,0.19482 3.10745,0 z m 150.27303,-650.830384 0,-9.564153 53.18559,0 0,9.564153 z m 0,141.690754 0,-9.56411 53.18559,0 0,9.56411 z m 0,141.69081 0,-9.56416 53.18559,0 0,9.56416 z m 24.32192,172.96866 -2.26195,-0.21363 -2.24404,-0.3553 -2.21732,-0.49504 -2.18174,-0.63322 -2.13775,-0.7689 -2.08512,-0.90147 -2.02438,-1.0305 -1.9556,-1.15541 -1.87919,-1.27582 -1.79523,-1.39123 -1.70427,-1.50102 -1.60652,-1.60496 -1.5025,-1.70266 -1.39257,-1.79346 -1.27706,-1.87737 -1.15653,-1.95373 -1.03149,-2.02243 -0.90234,-2.08307 -0.76963,-2.13567 -0.63387,-2.17963 -0.49551,-2.21516 -0.35564,-2.24188 -0.2138,-2.25976 -0.0712,-2.26867 0.0712,-2.26867 0.2138,-2.25976 0.35564,-2.24188 0.49551,-2.21516 0.63387,-2.17961 0.76963,-2.1357 0.90234,-2.08308 1.03149,-2.02242 1.15653,-1.95373 1.27706,-1.87736 1.39257,-1.79346 1.5025,-1.70262 1.60652,-1.605 1.70427,-1.50102 1.79523,-1.39123 1.87919,-1.27582 1.9556,-1.15541 2.02438,-1.0305 2.08512,-0.90147 2.13775,-0.76886 2.18174,-0.63326 2.21732,-0.49504 2.24404,-0.3553 2.26195,-0.21363 2.27088,-0.0713 2.27086,0.0713 2.26196,0.21363 2.24405,0.3553 2.2173,0.49504 2.18175,0.63326 2.13773,0.76886 2.08512,0.90147 2.02439,1.0305 1.9556,1.15541 1.87919,1.27582 1.79523,1.39123 1.70428,1.50102 1.60653,1.605 1.50248,1.70262 1.39259,1.79346 1.27704,1.87736 1.15655,1.95373 1.03147,2.02242 0.90235,2.08308 0.76963,2.1357 0.63387,2.17961 0.49551,2.21516 0.35563,2.24188 0.21381,2.25976 0.0712,2.26867 -0.0712,2.26867 -0.21381,2.25976 -0.35563,2.24188 -0.49551,2.21516 -0.63387,2.17963 -0.76963,2.13567 -0.90235,2.08307 -1.03147,2.02243 -1.15655,1.95373 -1.27704,1.87737 -1.39259,1.79346 -1.50248,1.70266 -1.60653,1.60496 -1.70428,1.50102 -1.79523,1.39123 -1.87919,1.27582 -1.9556,1.15541 -2.02439,1.0305 -2.08512,0.90147 -2.13773,0.7689 -2.18175,0.63322 -2.2173,0.49504 -2.24405,0.3553 -2.26196,0.21363 -2.27086,0.0713 z m -120.2056,48.7264 6.76946,-6.76289 37.60788,37.57144 -6.76946,6.7629 z m -59.47531,110.26021 -0.86019,-0.0543 -0.85523,-0.10753 -0.84671,-0.16146 -0.83502,-0.21399 -0.81976,-0.2665 -0.80169,-0.3169 -0.78005,-0.36665 -0.75524,-0.4148 -0.72793,-0.46155 -0.69744,-0.50619 -0.66411,-0.5487 -0.6283,-0.58979 -0.59036,-0.62769 -0.54923,-0.66346 -0.50668,-0.69678 -0.46201,-0.72723 -0.4152,-0.75449 -0.36698,-0.77929 -0.31734,-0.80093 -0.26664,-0.81897 -0.21416,-0.83419 -0.16168,-0.8459 -0.10779,-0.85441 -0.0542,-0.85935 0,-0.86112 0.0542,-0.8597 0.10779,-0.85438 0.16168,-0.8459 0.21416,-0.83423 0.26664,-0.81896 0.31734,-0.80055 0.36698,-0.77929 0.4152,-0.75487 0.46201,-0.72688 0.50668,-0.69675 0.54923,-0.66346 0.59036,-0.62804 0.6283,-0.58944 0.66411,-0.54905 0.69744,-0.50622 0.72793,-0.46154 0.75524,-0.41481 0.78005,-0.36661 0.80169,-0.3169 0.81976,-0.26615 0.83502,-0.21434 0.84671,-0.16111 0.85523,-0.10823 0.86019,-0.0543 0.86196,0 0.86054,0.0543 0.85522,0.10823 0.84672,0.16111 0.83501,0.21434 0.81977,0.26615 0.80133,0.3169 0.78005,0.36661 0.75559,0.41481 0.72758,0.46154 0.69744,0.50622 0.66411,0.54905 0.62866,0.58944 0.59,0.62804 0.54959,0.66346 0.50668,0.69675 0.462,0.72688 0.41521,0.75487 0.36698,0.77929 0.31734,0.80055 0.26628,0.81896 0.21452,0.83423 0.16132,0.8459 0.10815,0.85438 0.0542,0.8597 0,0.86112 -0.0542,0.85935 -0.10815,0.85441 -0.16132,0.8459 -0.21452,0.83419 -0.26628,0.81897 -0.31734,0.80093 -0.36698,0.77929 -0.41521,0.75449 -0.462,0.72723 -0.50668,0.69678 -0.54959,0.66346 -0.59,0.62769 -0.62866,0.58979 -0.66411,0.5487 -0.69744,0.50619 -0.72758,0.46155 -0.75559,0.4148 -0.78005,0.36665 -0.80133,0.3169 -0.81977,0.2665 -0.83501,0.21399 -0.84672,0.16146 -0.85522,0.10753 -0.86054,0.0543 z"
     id="path6-8"
     inkscape:connector-curvature="0"
     style="fill:none;stroke:#ff0000;stroke-width:0.09;stroke-miterlimit:4;stroke-dasharray:none;stroke-opacity:1" />
  <path
     inkscape:connector-curvature="0"
     style="fill:none;stroke:#ff0000;stroke-width:0.09000003;stroke-opacity:1;stroke-miterlimit:4;stroke-dasharray:none"
     d="m 509.31437,652.01737 1.63435,-0.15444 1.62146,-0.25669 1.60208,-0.35797 1.57643,-0.45767 1.54457,-0.5557 1.50662,-0.65162 1.46269,-0.74479 1.41302,-0.83513 1.35775,-0.92216 1.2971,-1.00552 1.23142,-1.08494 1.16085,-1.16013 1.08561,-1.23064 1.00615,-1.29629 0.92272,-1.35689 0.83564,-1.41214 0.74527,-1.46177 0.65201,-1.50568 0.55606,-1.54361 0.45796,-1.57548 0.35819,-1.60105 0.2567,-1.62046 0.15459,-1.63332 0.0518,-1.63975 0,-770.70188 -0.0518,-1.64064 -0.15459,-1.63353 -0.2567,-1.61936 -0.35819,-1.60162 -0.45796,-1.57332 -0.55606,-1.54495 -0.65201,-1.50597 -0.74527,-1.46344 -0.83564,-1.41029 -0.92272,-1.35714 -1.00615,-1.29692 -1.08561,-1.22958 -1.16085,-1.15868 -1.23142,-1.08785 -1.2971,-1.00282 -1.35775,-0.92482 -1.41302,-0.83272 -1.46269,-0.74766 -1.50662,-0.64847 -1.54457,-0.55633 -1.57643,-0.4571 -1.60208,-0.35787 -1.62146,-0.25882 -1.63435,-0.15231 -1.64075,-0.0532 -1.6408,0.0532 -1.63429,0.15231 -1.62148,0.25882 -1.60207,0.35787 -1.57644,0.4571 -1.54455,0.55633 -1.50663,0.64847 -1.46269,0.74766 -1.41303,0.83272 -1.35773,0.92482 -1.29711,1.00282 -1.23141,1.08785 -1.16085,1.15868 -1.08562,1.22958 -1.00615,1.29692 -0.92273,1.35714 -0.83564,1.41029 -0.74526,1.46344 -0.65201,1.50597 -0.55607,1.54495 -0.45796,1.57332 -0.35818,1.60162 -0.25671,1.61936 -0.15459,1.63353 -0.0514,1.64064 0,770.70188 0.0514,1.63975 0.15459,1.63332 0.25671,1.62046 0.35818,1.60105 0.45796,1.57548 0.55607,1.54361 0.65201,1.50568 0.74526,1.46177 0.83564,1.41214 0.92273,1.35689 1.00615,1.29629 1.08562,1.23064 1.16085,1.16013 1.23141,1.08494 1.29711,1.00552 1.35773,0.92216 1.41303,0.83513 1.46269,0.74479 1.50663,0.65162 1.54455,0.5557 1.57644,0.45767 1.60207,0.35797 1.62148,0.25669 1.63429,0.15444 1.6408,0.0515 z m -2.50235,-783.08082 -0.85815,-0.0813 -0.85142,-0.13455 -0.84125,-0.18782 -0.82781,-0.23751 -0.81107,-0.29397 -0.79107,-0.34012 -0.7681,-0.39333 -0.74196,-0.43584 -0.71297,-0.48543 -0.68115,-0.52801 -0.64659,-0.57049 -0.60957,-0.60945 -0.57,-0.64491 -0.52838,-0.68035 -0.48455,-0.71223 -0.43878,-0.74414 -0.39136,-0.76538 -0.34217,-0.79019 -0.29216,-0.81146 -0.24039,-0.82917 -0.18792,-0.83979 -0.13474,-0.85044 -0.0812,-0.85751 -0.0283,-0.86105 0.0283,-0.86106 0.0812,-0.85754 0.13474,-0.85041 0.18792,-0.83982 0.24039,-0.82914 0.29216,-0.81146 0.34217,-0.79019 0.39136,-0.76537 0.43878,-0.74415 0.48455,-0.71223 0.52838,-0.68034 0.57,-0.64492 0.60957,-0.60948 0.64659,-0.5705 0.68115,-0.52796 0.71297,-0.48544 0.74196,-0.43587 0.7681,-0.3933 0.79107,-0.34012 0.81107,-0.29396 0.82781,-0.23752 0.84125,-0.18781 0.85142,-0.13456 0.85815,-0.0816 0.8616,-0.0284 0.86156,0.0284 0.85819,0.0816 0.85142,0.13456 0.84125,0.18781 0.82781,0.23752 0.81106,0.29396 0.79108,0.34012 0.76809,0.3933 0.74197,0.43587 0.71296,0.48544 0.68116,0.52796 0.64659,0.5705 0.60957,0.60948 0.57,0.64492 0.52837,0.68034 0.48455,0.71223 0.43878,0.74415 0.39137,0.76537 0.34216,0.79019 0.29216,0.81146 0.24039,0.82914 0.18793,0.83982 0.13473,0.85041 0.0812,0.85754 0.0284,0.86106 -0.0284,0.86105 -0.0812,0.85751 -0.13473,0.85044 -0.18793,0.83979 -0.24039,0.82917 -0.29216,0.81146 -0.34216,0.79019 -0.39137,0.76538 -0.43878,0.74414 -0.48455,0.71223 -0.52837,0.68035 -0.57,0.64491 -0.60957,0.60945 -0.64659,0.57049 -0.68116,0.52801 -0.71296,0.48543 -0.74197,0.43584 -0.76809,0.39333 -0.79108,0.34012 -0.81106,0.29397 -0.82781,0.23751 -0.84125,0.18782 -0.85142,0.13455 -0.85819,0.0813 -0.86156,0.0284 z m 0,770.70317 -0.85815,-0.0813 -0.85142,-0.13456 -0.84125,-0.18781 -0.82781,-0.24036 -0.81107,-0.29183 -0.79107,-0.3419 -0.7681,-0.3911 -0.74196,-0.43853 -0.71297,-0.48423 -0.68115,-0.52804 -0.64659,-0.56964 -0.60957,-0.6092 -0.57,-0.64619 -0.52838,-0.68074 -0.48455,-0.71251 -0.43878,-0.74152 -0.39136,-0.76761 -0.34217,-0.79058 -0.29216,-0.81057 -0.24039,-0.82729 -0.18792,-0.84072 -0.13474,-0.8509 -0.0812,-0.85761 -0.0283,-0.86106 0.0283,-0.86102 0.0812,-0.85768 0.13474,-0.8509 0.18792,-0.84072 0.24039,-0.82729 0.29216,-0.81057 0.34217,-0.79058 0.39136,-0.76761 0.43878,-0.74152 0.48455,-0.71251 0.52838,-0.68074 0.57,-0.64619 0.60957,-0.60916 0.64659,-0.56965 0.68115,-0.52807 0.71297,-0.48423 0.74196,-0.4385 0.7681,-0.39113 0.79107,-0.3419 0.81107,-0.29183 0.82781,-0.24036 0.84125,-0.18781 0.85142,-0.13456 0.85815,-0.0813 0.8616,-0.0284 0.86156,0.0284 0.85819,0.0813 0.85142,0.13456 0.84125,0.18781 0.82781,0.24036 0.81106,0.29183 0.79108,0.3419 0.76809,0.39113 0.74197,0.4385 0.71296,0.48423 0.68116,0.52807 0.64659,0.56965 0.60957,0.60916 0.57,0.64619 0.52837,0.68074 0.48455,0.71251 0.43878,0.74152 0.39137,0.76761 0.34216,0.79058 0.29216,0.81057 0.24039,0.82729 0.18793,0.84072 0.13473,0.8509 0.0812,0.85768 0.0284,0.86102 -0.0284,0.86106 -0.0812,0.85761 -0.13473,0.8509 -0.18793,0.84072 -0.24039,0.82729 -0.29216,0.81057 -0.34216,0.79058 -0.39137,0.76761 -0.43878,0.74152 -0.48455,0.71251 -0.52837,0.68074 -0.57,0.64619 -0.60957,0.6092 -0.64659,0.56964 -0.68116,0.52804 -0.71296,0.48423 -0.74197,0.43853 -0.76809,0.3911 -0.79108,0.3419 -0.81106,0.29183 -0.82781,0.24036 -0.84125,0.18781 -0.85142,0.13456 -0.85819,0.0813 -0.86156,0.0284 z"
     id="path6-9" />
</svg>
