<?xml version="1.0" encoding="UTF-8" standalone="no"?>
<svg
   xmlns:dc="http://purl.org/dc/elements/1.1/"
   xmlns:cc="http://creativecommons.org/ns#"
   xmlns:rdf="http://www.w3.org/1999/02/22-rdf-syntax-ns#"
   xmlns:svg="http://www.w3.org/2000/svg"
   xmlns="http://www.w3.org/2000/svg"
   xmlns:sodipodi="http://sodipodi.sourceforge.net/DTD/sodipodi-0.dtd"
   xmlns:inkscape="http://www.inkscape.org/namespaces/inkscape"
   width="93mm"
   height="254mm"
   viewBox="-66 -180 329.52757 900.00001"
   version="1.1"
   id="svg2"
   inkscape:version="0.91 r13725"
   sodipodi:docname="forearmwcross.svg">
  <metadata
     id="metadata12">
    <rdf:RDF>
      <cc:Work
         rdf:about="">
        <dc:format>image/svg+xml</dc:format>
        <dc:type
           rdf:resource="http://purl.org/dc/dcmitype/StillImage" />
        <dc:title>OpenSCAD Model</dc:title>
      </cc:Work>
    </rdf:RDF>
  </metadata>
  <defs
     id="defs10" />
  <sodipodi:namedview
     pagecolor="#ffffff"
     bordercolor="#666666"
     borderopacity="1"
     objecttolerance="10"
     gridtolerance="10"
     guidetolerance="10"
     inkscape:pageopacity="0"
     inkscape:pageshadow="2"
     inkscape:window-width="1536"
     inkscape:window-height="801"
     id="namedview8"
     showgrid="false"
     units="mm"
     inkscape:zoom="0.95934959"
     inkscape:cx="-112.46186"
     inkscape:cy="746.33898"
     inkscape:window-x="-8"
     inkscape:window-y="-8"
     inkscape:window-maximized="1"
     inkscape:current-layer="svg2" />
  <title
     id="title4">OpenSCAD Model</title>
  <path
     inkscape:connector-curvature="0"
     style="fill:none;stroke:#ff0000;stroke-width:0.09000001;stroke-miterlimit:4;stroke-dasharray:none;stroke-opacity:1"
     d="m 31.456747,431.28937 7.086771,0 0,-81.3584 -7.086771,0 0,-11.23099 -53.150781,0 0,11.23099 -7.086772,0 0,81.3584 7.086772,0 0,11.231 53.150781,0 z"
     id="path6-4-95" />
  <path
     inkscape:connector-curvature="0"
     style="fill:none;stroke:#ff0000;stroke-width:0.09000001;stroke-miterlimit:4;stroke-dasharray:none;stroke-opacity:1"
     d="m 31.456747,275.9758 7.086771,0 0,-81.3584 -7.086771,0 0,-11.23099 -53.150781,0 0,11.23099 -7.086772,0 0,81.3584 7.086772,0 0,11.231 53.150781,0 z"
     id="path6-4-95-8" />
  <path
     inkscape:connector-curvature="0"
     style="fill:none;stroke:#ff0000;stroke-width:0.09000001;stroke-miterlimit:4;stroke-dasharray:none;stroke-opacity:1"
     d="m 34.583866,131.08597 7.086771,0 0,-81.358396 -7.086771,0 0,-11.23099 -53.150781,0 0,11.23099 -7.086772,0 0,81.358396 7.086772,0 0,11.231 53.150781,0 z"
     id="path6-4-95-85" />
  <path
     inkscape:connector-curvature="0"
     style="fill:none;stroke:#ff0000;stroke-width:0.09000001;stroke-miterlimit:4;stroke-dasharray:none;stroke-opacity:1"
     d="m 35.626238,-17.973344 7.086771,0 0,-81.358403 -7.086771,0 0,-11.230993 -53.150781,0 0,11.230993 -7.086772,0 0,81.358403 7.086772,0 0,11.2309996 53.150781,0 z"
     id="path6-4-95-0" />
  <path
     d="m -10.86209,718.76018 3.08264,-0.38893 3.0524903,-0.58163 3.0096,-0.77223 2.95534,-0.95924 2.88904,-1.14275 2.81139,-1.3216 2.7231,-1.49555 2.6234697,-1.66345 2.5139,-1.82462 2.39442,-1.97871 194.46487,-163.27805 3.37516,-2.97265 3.18157,-3.17849 2.97555,-3.37188 2.75749,-3.55184 2.52916,-3.71795 2.29051,-3.8692 2.04269,-4.00514 1.78703,-4.12541 1.52395,-4.22939 1.25553,-4.31661 0.98145,-4.38688 0.70382,-4.43979 0.42336,-4.47517 23.54348,-535.833135 0,-44.27833 -41.83966,-59.984795 -21.27424,0 0,104.259615 -73.89247,0 0,-28.33816 -17.01867,-75.921455 -13.119831,0 0.47619,609.55562 -146.979739,174.71394 -1.98063,2.3921 -1.82639,2.51147 -1.66506,2.62091 -1.497,2.72046 -1.3229,2.80867 -1.14384,2.88625 -0.96018,2.95246 -0.77296,3.00669 -0.58221,3.04952 -0.38932,3.07966 -0.19501,3.09806 0,3.10446 0.19501,3.09807 0.38932,3.08 0.58221,3.04917 0.77296,3.00704 0.96018,2.95212 1.14384,2.88624 1.3229,2.80903 1.497,2.72045 1.66506,2.62095 1.82639,2.51147 1.98063,2.39174 2.12707,2.26314 2.26535,2.12502 2.39406,1.97871 2.51391,1.82462 2.62346,1.66345 2.7231,1.49555 2.81175,1.3216 2.88904,1.14275 2.95499,0.95924 3.00995,0.77223 3.05214,0.58163 3.08299,0.38893 3.10107,0.19482 3.10746,0 z M 139.4109,67.930025 l 0,-9.56415 53.18557,0 0,9.56415 z m 0,141.690705 0,-9.56411 53.18557,0 0,9.56411 z m 0,141.69076 0,-9.56416 53.18557,0 0,9.56416 z m 24.32191,172.9686 -2.26195,-0.21363 -2.24404,-0.3553 -2.21731,-0.49504 -2.18174,-0.63322 -2.13775,-0.7689 -2.08512,-0.90147 -2.02438,-1.0305 -1.9556,-1.15541 -1.87919,-1.27582 -1.79523,-1.39123 -1.70427,-1.50102 -1.60652,-1.60496 -1.5025,-1.70266 -1.39257,-1.79346 -1.27706,-1.87736 -1.15653,-1.95373 -1.03149,-2.02243 -0.90234,-2.08307 -0.76963,-2.13567 -0.63387,-2.17963 -0.49551,-2.21516 -0.35564,-2.24188 -0.2138,-2.25976 -0.0712,-2.26867 0.0712,-2.26867 0.2138,-2.25976 0.35564,-2.24188 0.49551,-2.21516 0.63387,-2.1796 0.76963,-2.1357 0.90234,-2.08308 1.03149,-2.02242 1.15653,-1.95373 1.27706,-1.87736 1.39257,-1.79346 1.5025,-1.70262 1.60652,-1.605 1.70427,-1.50102 1.79523,-1.39123 1.87919,-1.27582 1.9556,-1.15541 2.02438,-1.0305 2.08512,-0.90147 2.13775,-0.76886 2.18174,-0.63326 2.21731,-0.49504 2.24404,-0.3553 2.26195,-0.21363 2.27088,-0.0713 2.27086,0.0713 2.26196,0.21363 2.24405,0.3553 2.2173,0.49504 2.18175,0.63326 2.13773,0.76886 2.08512,0.90147 2.02439,1.0305 1.9556,1.15541 1.87918,1.27582 1.79523,1.39123 1.70428,1.50102 1.60653,1.605 1.50248,1.70262 1.39259,1.79346 1.27704,1.87736 1.15655,1.95373 1.03147,2.02242 0.90235,2.08308 0.76963,2.1357 0.63387,2.1796 0.49551,2.21516 0.35563,2.24188 0.21381,2.25976 0.0712,2.26867 -0.0712,2.26867 -0.21381,2.25976 -0.35563,2.24188 -0.49551,2.21516 -0.63387,2.17963 -0.76963,2.13567 -0.90235,2.08307 -1.03147,2.02243 -1.15655,1.95373 -1.27704,1.87736 -1.39259,1.79346 -1.50248,1.70266 -1.60653,1.60496 -1.70428,1.50102 -1.79523,1.39123 -1.87918,1.27582 -1.9556,1.15541 -2.02439,1.0305 -2.08512,0.90147 -2.13773,0.7689 -2.18175,0.63322 -2.2173,0.49504 -2.24405,0.3553 -2.26196,0.21363 -2.27086,0.0713 z m -120.20556,48.72638 6.76946,-6.76289 37.607859,37.57143 -6.76945,6.7629 z m -59.4753,110.26017 -0.86018,-0.0543 -0.85523,-0.10753 -0.84671,-0.16146 -0.83502,-0.21399 -0.81976,-0.2665 -0.80169,-0.3169 -0.78005,-0.36665 -0.75524,-0.4148 -0.72793,-0.46155 -0.69744,-0.50618 -0.66411,-0.5487 -0.6283,-0.58979 -0.59036,-0.62769 -0.54923,-0.66346 -0.50668,-0.69678 -0.46201,-0.72723 -0.4152,-0.75449 -0.36698,-0.77929 -0.31734,-0.80093 -0.26664,-0.81897 -0.21416,-0.83419 -0.16168,-0.8459 -0.10779,-0.85441 -0.0542,-0.85935 0,-0.86112 0.0542,-0.8597 0.10779,-0.85438 0.16168,-0.8459 0.21416,-0.83423 0.26664,-0.81896 0.31734,-0.80055 0.36698,-0.77929 0.4152,-0.75487 0.46201,-0.72688 0.50668,-0.69675 0.54923,-0.66346 0.59036,-0.62804 0.6283,-0.58944 0.66411,-0.54905 0.69744,-0.50622 0.72793,-0.46154 0.75524,-0.41481 0.78005,-0.36661 0.80169,-0.3169 0.81976,-0.26615 0.83502,-0.21434 0.84671,-0.16111 0.85523,-0.10823 0.86018,-0.0543 0.86196,0 0.86055,0.0543 0.85522,0.10823 0.84671,0.16111 0.83502,0.21434 0.81977,0.26615 0.80132,0.3169 0.78006,0.36661 0.75559,0.41481 0.72758,0.46154 0.6974403,0.50622 0.66411,0.54905 0.62865,0.58944 0.59001,0.62804 0.54958,0.66346 0.50668,0.69675 0.46201,0.72688 0.4152,0.75487 0.36698,0.77929 0.31734,0.80055 0.26628,0.81896 0.21452,0.83423 0.16133,0.8459 0.10814,0.85438 0.0542,0.8597 0,0.86112 -0.0542,0.85935 -0.10814,0.85441 -0.16133,0.8459 -0.21452,0.83419 -0.26628,0.81897 -0.31734,0.80093 -0.36698,0.77929 -0.4152,0.75449 -0.46201,0.72723 -0.50668,0.69678 -0.54958,0.66346 -0.59001,0.62769 -0.62865,0.58979 -0.66411,0.5487 -0.6974403,0.50618 -0.72758,0.46155 -0.75559,0.4148 -0.78006,0.36665 -0.80132,0.3169 -0.81977,0.2665 -0.83502,0.21399 -0.84671,0.16146 -0.85522,0.10753 -0.86055,0.0543 z"
     id="path6"
     inkscape:connector-curvature="0"
     style="fill:none;stroke:#ff0000;stroke-width:0.09;stroke-miterlimit:4;stroke-dasharray:none;stroke-opacity:1" />
</svg>
