<?xml version="1.0" encoding="UTF-8" standalone="no"?>
<svg
   xmlns:dc="http://purl.org/dc/elements/1.1/"
   xmlns:cc="http://creativecommons.org/ns#"
   xmlns:rdf="http://www.w3.org/1999/02/22-rdf-syntax-ns#"
   xmlns:svg="http://www.w3.org/2000/svg"
   xmlns="http://www.w3.org/2000/svg"
   xmlns:sodipodi="http://sodipodi.sourceforge.net/DTD/sodipodi-0.dtd"
   xmlns:inkscape="http://www.inkscape.org/namespaces/inkscape"
   width="18mm"
   height="235mm"
   viewBox="-8 -225 63.77953 832.67721"
   version="1.1"
   id="svg2"
   inkscape:version="0.91 r13725"
   sodipodi:docname="servoarm2.svg">
  <metadata
     id="metadata12">
    <rdf:RDF>
      <cc:Work
         rdf:about="">
        <dc:format>image/svg+xml</dc:format>
        <dc:type
           rdf:resource="http://purl.org/dc/dcmitype/StillImage" />
        <dc:title>OpenSCAD Model</dc:title>
      </cc:Work>
    </rdf:RDF>
  </metadata>
  <defs
     id="defs10" />
  <sodipodi:namedview
     pagecolor="#ffffff"
     bordercolor="#666666"
     borderopacity="1"
     objecttolerance="10"
     gridtolerance="10"
     guidetolerance="10"
     inkscape:pageopacity="0"
     inkscape:pageshadow="2"
     inkscape:window-width="1536"
     inkscape:window-height="801"
     id="namedview8"
     showgrid="false"
     units="mm"
     inkscape:zoom="0.5"
     inkscape:cx="31.258286"
     inkscape:cy="518.72458"
     inkscape:window-x="-8"
     inkscape:window-y="-8"
     inkscape:window-maximized="1"
     inkscape:current-layer="svg2" />
  <title
     id="title4">OpenSCAD Model</title>
  <path
     d="m 26.907881,603.38265 1.643124,-0.1545 1.630187,-0.25655 1.610691,-0.35788 1.584919,-0.45757 1.552871,-0.55562 1.514729,-0.65142 1.470561,-0.74467 1.42062,-0.83494 1.365045,-0.92195 1.304089,-1.00527 1.238033,-1.08471 1.167095,-1.15987 1.091452,-1.23037 1.011566,-1.296 0.927688,-1.35661 0.840138,-1.41185 0.749272,-1.46141 0.655519,-1.5054 0.559058,-1.54323 0.460422,-1.57511 0.360111,-1.6007 0.258122,-1.62013 0.155351,-1.63293 0.05187,-1.63941 0,-770.53155 -0.05187,-1.64025 -0.155351,-1.63318 -0.258122,-1.619 -0.360111,-1.60127 -0.460422,-1.57296 -0.559058,-1.54461 -0.655519,-1.50564 -0.749272,-1.46313 -0.840138,-1.40996 -0.927688,-1.35688 -1.011566,-1.2966 -1.091452,-1.22931 -1.167095,-1.15847 -1.238033,-1.08759 -1.304089,-1.00257 -1.365045,-0.92465 -1.42062,-0.83252 -1.470561,-0.74749 -1.514729,-0.64832 -1.552871,-0.55621 -1.584919,-0.45698 -1.610691,-0.35784 -1.630187,-0.25866 -1.643124,-0.15239 -1.649593,-0.0531 -1.649594,0.0531 -1.643123,0.15239 -1.630187,0.25866 -1.610691,0.35784 -1.584919,0.45698 -1.552871,0.55621 -1.514729,0.64832 -1.470561,0.74749 -1.42062,0.83252 -1.3650452,0.92465 -1.3040882,1.00257 -1.2380337,1.08759 -1.1670954,1.15847 -1.0914516,1.22931 -1.0115659,1.2966 -0.9276875,1.35688 -0.8401375,1.40996 -0.7492724,1.46313 -0.65551978,1.50564 -0.5590579,1.54461 -0.4604217,1.57296 -0.3601098,1.60127 -0.2581227,1.619 -0.1553513,1.63318 -0.051867,1.64025 0,770.53155 0.051867,1.63941 0.1553513,1.63293 0.2581227,1.62013 0.3601098,1.6007 0.4604217,1.57511 0.5590579,1.54323 0.65551978,1.5054 0.7492724,1.46141 0.8401375,1.41185 0.9276875,1.35661 1.0115659,1.296 1.0914516,1.23037 1.1670954,1.15987 1.2380337,1.08471 1.3040882,1.00527 1.3650452,0.92195 1.42062,0.83494 1.470561,0.74467 1.514729,0.65142 1.552871,0.55562 1.584919,0.45757 1.610691,0.35788 1.630187,0.25655 1.643123,0.1545 1.649594,0.0514 z m -2.515811,-782.90775 -0.862791,-0.0813 -0.855994,-0.13444 -0.845766,-0.18792 -0.832267,-0.23755 -0.815433,-0.29386 -0.795329,-0.33996 -0.77223,-0.39324 -0.745957,-0.43572 -0.716797,-0.48538 -0.684822,-0.52785 -0.650066,-0.57037 -0.61285,-0.60932 -0.573066,-0.64477 -0.531218,-0.6802 -0.487158,-0.71209 -0.441135,-0.74393 -0.393477,-0.76526 -0.34414,-0.79001 -0.293626,-0.81126 -0.241761,-0.82899 -0.189038,-0.83959 -0.135603,-0.85026 -0.08153,-0.85736 -0.02727,-0.86084 0.02727,-0.86088 0.08153,-0.85733 0.135603,-0.85022 0.189038,-0.83962 0.241761,-0.829 0.293626,-0.81126 0.34414,-0.79004 0.393477,-0.76519 0.441135,-0.74397 0.487158,-0.71205 0.531218,-0.6802 0.573066,-0.64477 0.61285,-0.60936 0.650066,-0.57036 0.684822,-0.52789 0.716797,-0.48531 0.745957,-0.43579 0.77223,-0.3932 0.795329,-0.33996 0.815433,-0.29386 0.832267,-0.23755 0.845766,-0.18793 0.855994,-0.13444 0.862791,-0.0813 0.866218,-0.0282 0.866217,0.0282 0.862792,0.0813 0.855993,0.13444 0.845767,0.18793 0.832266,0.23755 0.815434,0.29386 0.795328,0.33996 0.77223,0.3932 0.745958,0.43579 0.716797,0.48531 0.684822,0.52789 0.650066,0.57036 0.612849,0.60936 0.573067,0.64477 0.531218,0.6802 0.487157,0.71205 0.441136,0.74397 0.393477,0.76519 0.344139,0.79004 0.293628,0.81126 0.24176,0.829 0.189039,0.83962 0.135602,0.85022 0.08153,0.85733 0.02727,0.86088 -0.02727,0.86084 -0.08153,0.85736 -0.135602,0.85026 -0.189039,0.83959 -0.24176,0.82899 -0.293628,0.81126 -0.344139,0.79001 -0.393477,0.76526 -0.441136,0.74393 -0.487157,0.71209 -0.531218,0.6802 -0.573067,0.64477 -0.612849,0.60932 -0.650066,0.57037 -0.684822,0.52785 -0.716797,0.48538 -0.745958,0.43572 -0.77223,0.39324 -0.795328,0.33996 -0.815434,0.29386 -0.832266,0.23755 -0.845767,0.18792 -0.855993,0.13444 -0.862792,0.0813 -0.866217,0.0282 z m 0,770.5328 -0.862791,-0.0809 -0.855994,-0.13444 -0.845766,-0.18792 -0.832267,-0.24037 -0.815433,-0.29175 -0.795329,-0.34172 -0.77223,-0.39106 -0.745957,-0.43839 -0.716797,-0.48414 -0.684822,-0.52793 -0.650066,-0.56952 -0.61285,-0.60904 -0.573066,-0.64607 -0.531218,-0.68059 -0.487158,-0.71237 -0.441135,-0.74133 -0.393477,-0.76744 -0.34414,-0.79043 -0.293626,-0.81038 -0.241761,-0.82709 -0.189038,-0.84054 -0.135603,-0.85068 -0.08153,-0.85747 -0.02727,-0.86088 0.02727,-0.86081 0.08153,-0.8575 0.135603,-0.85064 0.189038,-0.84054 0.241761,-0.82713 0.293626,-0.81038 0.34414,-0.79042 0.393477,-0.76745 0.441135,-0.74133 0.487158,-0.71237 0.531218,-0.68055 0.573066,-0.64607 0.61285,-0.60904 0.650066,-0.56952 0.684822,-0.52796 0.716797,-0.48411 0.745957,-0.43843 0.77223,-0.39103 0.795329,-0.34172 0.815433,-0.29174 0.832267,-0.24037 0.845766,-0.18793 0.855994,-0.13443 0.862791,-0.0813 0.866218,-0.0281 0.866217,0.0281 0.862792,0.0813 0.855993,0.13443 0.845767,0.18793 0.832266,0.24037 0.815434,0.29174 0.795328,0.34172 0.77223,0.39103 0.745958,0.43843 0.716797,0.48411 0.684822,0.52796 0.650066,0.56952 0.612849,0.60904 0.573067,0.64607 0.531218,0.68055 0.487157,0.71237 0.441136,0.74133 0.393477,0.76745 0.344139,0.79042 0.293628,0.81038 0.24176,0.82713 0.189039,0.84054 0.135602,0.85064 0.08153,0.8575 0.02727,0.86081 -0.02727,0.86088 -0.08153,0.85747 -0.135602,0.85068 -0.189039,0.84054 -0.24176,0.82709 -0.293628,0.81038 -0.344139,0.79043 -0.393477,0.76744 -0.441136,0.74133 -0.487157,0.71237 -0.531218,0.68059 -0.573067,0.64607 -0.612849,0.60904 -0.650066,0.56952 -0.684822,0.52793 -0.716797,0.48414 -0.745958,0.43839 -0.77223,0.39106 -0.795328,0.34172 -0.815434,0.29175 -0.832266,0.24037 -0.845767,0.18792 -0.855993,0.13444 -0.862792,0.0809 -0.866217,0.0282 z"
     id="path6"
     inkscape:connector-curvature="0"
     style="fill:none;stroke:#ff0000;stroke-width:0.09;stroke-opacity:1;stroke-miterlimit:4;stroke-dasharray:none" />
</svg>
