<?xml version="1.0" encoding="UTF-8" standalone="no"?>
<svg
   xmlns:dc="http://purl.org/dc/elements/1.1/"
   xmlns:cc="http://creativecommons.org/ns#"
   xmlns:rdf="http://www.w3.org/1999/02/22-rdf-syntax-ns#"
   xmlns:svg="http://www.w3.org/2000/svg"
   xmlns="http://www.w3.org/2000/svg"
   xmlns:sodipodi="http://sodipodi.sourceforge.net/DTD/sodipodi-0.dtd"
   xmlns:inkscape="http://www.inkscape.org/namespaces/inkscape"
   width="18mm"
   height="180mm"
   viewBox="-8 -170 63.77953 637.7953"
   version="1.1"
   id="svg2"
   inkscape:version="0.91 r13725"
   sodipodi:docname="servoarm3.svg">
  <metadata
     id="metadata12">
    <rdf:RDF>
      <cc:Work
         rdf:about="">
        <dc:format>image/svg+xml</dc:format>
        <dc:type
           rdf:resource="http://purl.org/dc/dcmitype/StillImage" />
        <dc:title>OpenSCAD Model</dc:title>
      </cc:Work>
    </rdf:RDF>
  </metadata>
  <defs
     id="defs10" />
  <sodipodi:namedview
     pagecolor="#ffffff"
     bordercolor="#666666"
     borderopacity="1"
     objecttolerance="10"
     gridtolerance="10"
     guidetolerance="10"
     inkscape:pageopacity="0"
     inkscape:pageshadow="2"
     inkscape:window-width="1536"
     inkscape:window-height="801"
     id="namedview8"
     showgrid="false"
     units="mm"
     inkscape:zoom="1.3258427"
     inkscape:cx="8"
     inkscape:cy="510.61864"
     inkscape:window-x="-8"
     inkscape:window-y="-8"
     inkscape:window-maximized="1"
     inkscape:current-layer="svg2" />
  <title
     id="title4">OpenSCAD Model</title>
  <path
     d="m 26.29934,463.46078 1.633245,-0.15449 1.620386,-0.25653 1.601008,-0.35795 1.57539,-0.45765 1.543535,-0.5557 1.505623,-0.65158 1.46172,-0.74476 1.412079,-0.83509 1.356839,-0.92211 1.296248,-1.00549 1.230589,-1.08489 1.160079,-1.16007 1.08489,-1.23059 1.005484,-1.29625 0.922111,-1.35684 0.835086,-1.41208 0.744768,-1.46172 0.651579,-1.50562 0.555697,-1.54354 0.457653,-1.57539 0.357945,-1.60101 0.256571,-1.62039 0.154418,-1.63325 0.05156,-1.63966 0,-575.78745 -0.05156,-1.64055 -0.154418,-1.63347 -0.256571,-1.61929 -0.357945,-1.60157 -0.457653,-1.57323 -0.555697,-1.54488 -0.651579,-1.50591 -0.744768,-1.46339 -0.835086,-1.41023 -0.922111,-1.35709 -1.005484,-1.29685 -1.08489,-1.22953 -1.160079,-1.15866 -1.230589,-1.08779 -1.296248,-1.00276 -1.356839,-0.9248 -1.412079,-0.83268 -1.46172,-0.74764 -1.505623,-0.64842 -1.543535,-0.5563 -1.57539,-0.45709 -1.601008,-0.35787 -1.620386,-0.25867 -1.633245,-0.15236 -1.639677,-0.0532 -1.639676,0.0532 -1.633245,0.15236 -1.620386,0.25867 -1.601008,0.35787 -1.57539,0.45709 -1.543535,0.5563 -1.505623,0.64842 -1.46172,0.74764 -1.412079,0.83268 -1.3568387,0.9248 -1.2962481,1.00276 -1.2305907,1.08779 -1.1600788,1.15866 -1.0848898,1.22953 -1.0054844,1.29685 -0.9221103,1.35709 -0.8350868,1.41023 -0.7447677,1.46339 -0.65157883,1.50591 -0.55569689,1.54488 -0.45765358,1.57323 -0.35794491,1.60157 -0.25657089,1.61929 -0.1544173,1.63347 -0.051555,1.64055 0,575.78745 0.051555,1.63966 0.1544173,1.63325 0.25657089,1.62039 0.35794491,1.60101 0.45765358,1.57539 0.55569689,1.54354 0.65157883,1.50562 0.7447677,1.46172 0.8350868,1.41208 0.9221103,1.35684 1.0054844,1.29625 1.0848898,1.23059 1.1600788,1.16007 1.2305907,1.08489 1.2962481,1.00549 1.3568387,0.92211 1.412079,0.83509 1.46172,0.74476 1.505623,0.65158 1.543535,0.5557 1.57539,0.45765 1.601008,0.35795 1.620386,0.25653 1.633245,0.15449 1.639676,0.0514 z m -2.500686,-588.16581 -0.857604,-0.0815 -0.850848,-0.13464 -0.840681,-0.1878 -0.827263,-0.2374 -0.810532,-0.2941 -0.790547,-0.34015 -0.767587,-0.39331 -0.741472,-0.43583 -0.712489,-0.48543 -0.680704,-0.52795 -0.646158,-0.57048 -0.609165,-0.60944 -0.569622,-0.64489 -0.528024,-0.68031 -0.484229,-0.71221 -0.438484,-0.74409 -0.39111,-0.76536 -0.342071,-0.79015 -0.291862,-0.81142 -0.240307,-0.82913 -0.187902,-0.83977 -0.134787,-0.85039 -0.08104,-0.85748 -0.02711,-0.86103 0.02711,-0.86102 0.08104,-0.85748 0.134787,-0.85039 0.187902,-0.83977 0.240307,-0.82913 0.291862,-0.81142 0.342071,-0.79016 0.39111,-0.76535 0.438484,-0.7441 0.484229,-0.7122 0.528024,-0.68032 0.569622,-0.64488 0.609165,-0.60945 0.646158,-0.57047 0.680704,-0.52795 0.712489,-0.48543 0.741472,-0.43583 0.767587,-0.39331 0.790547,-0.34016 0.810532,-0.29409 0.827263,-0.2374 0.840681,-0.1878 0.850848,-0.13464 0.857604,-0.0815 0.861009,-0.0283 0.86101,0.0283 0.857604,0.0815 0.850848,0.13464 0.840681,0.1878 0.827263,0.2374 0.810532,0.29409 0.790547,0.34016 0.767587,0.39331 0.741472,0.43583 0.712489,0.48543 0.680704,0.52795 0.646158,0.57047 0.609165,0.60945 0.569622,0.64488 0.528024,0.68032 0.484228,0.7122 0.438485,0.7441 0.39111,0.76535 0.342071,0.79016 0.291862,0.81142 0.240307,0.82913 0.187902,0.83977 0.134787,0.85039 0.08104,0.85748 0.02711,0.86102 -0.02711,0.86103 -0.08104,0.85748 -0.134787,0.85039 -0.187902,0.83977 -0.240307,0.82913 -0.291862,0.81142 -0.342071,0.79015 -0.39111,0.76536 -0.438485,0.74409 -0.484228,0.71221 -0.528024,0.68031 -0.569622,0.64489 -0.609165,0.60944 -0.646158,0.57048 -0.680704,0.52795 -0.712489,0.48543 -0.741472,0.43583 -0.767587,0.39331 -0.790547,0.34015 -0.810532,0.2941 -0.827263,0.2374 -0.840681,0.1878 -0.850848,0.13464 -0.857604,0.0815 -0.86101,0.0283 z m 0,575.78868 -0.857604,-0.0811 -0.850848,-0.13464 -0.840681,-0.1878 -0.827263,-0.24023 -0.810532,-0.29197 -0.790547,-0.34193 -0.767587,-0.39111 -0.741472,-0.43849 -0.712489,-0.48423 -0.680704,-0.52802 -0.646158,-0.56962 -0.609165,-0.60917 -0.569622,-0.64615 -0.528024,-0.68071 -0.484229,-0.71249 -0.438484,-0.74147 -0.39111,-0.76759 -0.342071,-0.79054 -0.291862,-0.81053 -0.240307,-0.82726 -0.187902,-0.84069 -0.134787,-0.85085 -0.08104,-0.85762 -0.02711,-0.86099 0.02711,-0.86102 0.08104,-0.85759 0.134787,-0.85086 0.187902,-0.84068 0.240307,-0.82726 0.291862,-0.81053 0.342071,-0.79055 0.39111,-0.76758 0.438484,-0.74147 0.484229,-0.71249 0.528024,-0.68071 0.569622,-0.64616 0.609165,-0.60916 0.646158,-0.56962 0.680704,-0.52803 0.712489,-0.48422 0.741472,-0.43849 0.767587,-0.39111 0.790547,-0.34193 0.810532,-0.29197 0.827263,-0.24023 0.840681,-0.1878 0.850848,-0.13464 0.857604,-0.0811 0.861009,-0.0283 0.86101,0.0283 0.857604,0.0811 0.850848,0.13464 0.840681,0.1878 0.827263,0.24023 0.810532,0.29197 0.790547,0.34193 0.767587,0.39111 0.741472,0.43849 0.712489,0.48422 0.680704,0.52803 0.646158,0.56962 0.609165,0.60916 0.569622,0.64616 0.528024,0.68071 0.484228,0.71249 0.438485,0.74147 0.39111,0.76758 0.342071,0.79055 0.291862,0.81053 0.240307,0.82726 0.187902,0.84068 0.134787,0.85086 0.08104,0.85759 0.02711,0.86102 -0.02711,0.86099 -0.08104,0.85762 -0.134787,0.85085 -0.187902,0.84069 -0.240307,0.82726 -0.291862,0.81053 -0.342071,0.79054 -0.39111,0.76759 -0.438485,0.74147 -0.484228,0.71249 -0.528024,0.68071 -0.569622,0.64615 -0.609165,0.60917 -0.646158,0.56962 -0.680704,0.52802 -0.712489,0.48423 -0.741472,0.43849 -0.767587,0.39111 -0.790547,0.34193 -0.810532,0.29197 -0.827263,0.24023 -0.840681,0.1878 -0.850848,0.13464 -0.857604,0.0811 -0.86101,0.0284 z"
     id="path6"
     inkscape:connector-curvature="0"
     style="fill:none;stroke:#ff0000;stroke-width:0.09;stroke-opacity:1;stroke-miterlimit:4;stroke-dasharray:none" />
</svg>
