<?xml version="1.0" standalone="no"?>
<!DOCTYPE svg PUBLIC "-//W3C//DTD SVG 1.1//EN" "http://www.w3.org/Graphics/SVG/1.1/DTD/svg11.dtd">
<svg width="160" height="160" viewBox="-80 -80 160 160" xmlns="http://www.w3.org/2000/svg" version="1.1">
<title>OpenSCAD Model</title>
<path d="
M 5.02324,79.8421 L 10.0267,79.3692 L 14.9905,78.583 L 19.8952,77.4866 L 24.7214,76.0845 L 29.45,74.3821
 L 34.0623,72.3862 L 38.5403,70.1045 L 42.8661,67.5462 L 46.1932,65.2851 L 49.6212,68.7131 L 68.7131,49.6212
 L 65.2851,46.1933 L 67.5462,42.8661 L 70.1045,38.5403 L 72.3862,34.0623 L 74.3821,29.45 L 76.0845,24.7214
 L 77.4866,19.8952 L 78.583,14.9905 L 79.3692,10.0267 L 79.8421,5.02324 L 80,-0 L 79.8421,-5.02324
 L 79.3692,-10.0267 L 78.583,-14.9905 L 77.4866,-19.8952 L 76.0845,-24.7214 L 74.3821,-29.45 L 72.3862,-34.0623
 L 70.1045,-38.5403 L 67.5462,-42.8661 L 65.2851,-46.1932 L 68.7131,-49.6212 L 49.6212,-68.7131 L 46.1932,-65.2851
 L 42.8661,-67.5462 L 38.5403,-70.1045 L 34.0623,-72.3862 L 29.45,-74.3821 L 24.7214,-76.0845 L 19.8952,-77.4866
 L 14.9905,-78.583 L 10.0267,-79.3692 L 5.02324,-79.8421 L 0,-80 L -5.02324,-79.8421 L -10.0267,-79.3692
 L -14.9905,-78.583 L -19.8952,-77.4866 L -24.7214,-76.0845 L -29.45,-74.3821 L -34.0623,-72.3862 L -38.5403,-70.1045
 L -42.8661,-67.5462 L -46.1932,-65.2851 L -49.6212,-68.7131 L -68.7131,-49.6212 L -65.2851,-46.1933 L -67.5462,-42.8661
 L -70.1045,-38.5403 L -72.3862,-34.0623 L -74.3821,-29.45 L -76.0845,-24.7214 L -77.4866,-19.8952 L -78.583,-14.9905
 L -79.3692,-10.0267 L -79.8421,-5.02324 L -80,-0 L -79.8421,5.02324 L -79.3692,10.0267 L -78.583,14.9905
 L -77.4866,19.8952 L -76.0845,24.7214 L -74.3821,29.45 L -72.3862,34.0623 L -70.1045,38.5403 L -67.5462,42.8661
 L -65.2851,46.1932 L -68.7131,49.6212 L -49.6212,68.7131 L -46.1933,65.2851 L -42.8661,67.5462 L -38.5403,70.1045
 L -34.0623,72.3862 L -29.45,74.3821 L -24.7214,76.0845 L -19.8952,77.4866 L -14.9905,78.583 L -10.0267,79.3692
 L -5.02324,79.8421 L 0,80 z
M -49.5446,-62.1403 L -49.6386,-62.1462 L -49.7321,-62.1581 L -49.8247,-62.1757 L -49.916,-62.1991 L -50.0056,-62.2283
 L -50.0932,-62.263 L -50.1785,-62.3031 L -50.261,-62.3485 L -50.3406,-62.399 L -50.4168,-62.4544 L -50.4894,-62.5144
 L -50.5581,-62.5789 L -50.6226,-62.6476 L -50.6827,-62.7202 L -50.7381,-62.7965 L -50.7886,-62.876 L -50.834,-62.9586
 L -50.8741,-63.0439 L -50.9088,-63.1315 L -50.9379,-63.2211 L -50.9613,-63.3124 L -50.979,-63.4049 L -50.9908,-63.4984
 L -50.9967,-63.5925 L -50.9967,-63.6867 L -50.9908,-63.7807 L -50.979,-63.8742 L -50.9613,-63.9668 L -50.9379,-64.0581
 L -50.9088,-64.1477 L -50.8741,-64.2353 L -50.834,-64.3206 L -50.7886,-64.4032 L -50.7381,-64.4827 L -50.6827,-64.5589
 L -50.6226,-64.6316 L -50.5581,-64.7003 L -50.4894,-64.7648 L -50.4168,-64.8248 L -50.3406,-64.8802 L -50.261,-64.9307
 L -50.1785,-64.9761 L -50.0932,-65.0162 L -50.0056,-65.0509 L -49.916,-65.08 L -49.8247,-65.1035 L -49.7321,-65.1211
 L -49.6386,-65.1329 L -49.5446,-65.1389 L -49.4503,-65.1389 L -49.3563,-65.1329 L -49.2628,-65.1211 L -49.1703,-65.1035
 L -49.079,-65.08 L -48.9893,-65.0509 L -48.9017,-65.0162 L -48.8165,-64.9761 L -48.7339,-64.9307 L -48.6543,-64.8802
 L -48.5781,-64.8248 L -48.5055,-64.7648 L -48.4368,-64.7003 L -48.3723,-64.6316 L -48.3122,-64.5589 L -48.2569,-64.4827
 L -48.2063,-64.4032 L -48.161,-64.3206 L -48.1208,-64.2353 L -48.0862,-64.1477 L -48.057,-64.0581 L -48.0336,-63.9668
 L -48.0159,-63.8742 L -48.0041,-63.7807 L -47.9982,-63.6867 L -47.9982,-63.5925 L -48.0041,-63.4984 L -48.0159,-63.4049
 L -48.0336,-63.3124 L -48.057,-63.2211 L -48.0862,-63.1315 L -48.1208,-63.0439 L -48.161,-62.9586 L -48.2063,-62.876
 L -48.2569,-62.7965 L -48.3122,-62.7202 L -48.3723,-62.6476 L -48.4368,-62.5789 L -48.5055,-62.5144 L -48.5781,-62.4544
 L -48.6543,-62.399 L -48.7339,-62.3485 L -48.8165,-62.3031 L -48.9017,-62.263 L -48.9893,-62.2283 L -49.079,-62.1991
 L -49.1703,-62.1757 L -49.2628,-62.1581 L -49.3563,-62.1462 L -49.4503,-62.1403 z
M 49.4503,-62.1403 L 49.3563,-62.1462 L 49.2628,-62.1581 L 49.1703,-62.1757 L 49.079,-62.1991 L 48.9893,-62.2283
 L 48.9017,-62.263 L 48.8165,-62.3031 L 48.7339,-62.3485 L 48.6543,-62.399 L 48.5781,-62.4544 L 48.5055,-62.5144
 L 48.4368,-62.5789 L 48.3723,-62.6476 L 48.3122,-62.7202 L 48.2569,-62.7965 L 48.2063,-62.876 L 48.161,-62.9586
 L 48.1208,-63.0439 L 48.0862,-63.1315 L 48.057,-63.2211 L 48.0336,-63.3124 L 48.0159,-63.4049 L 48.0041,-63.4984
 L 47.9982,-63.5925 L 47.9982,-63.6867 L 48.0041,-63.7807 L 48.0159,-63.8742 L 48.0336,-63.9668 L 48.057,-64.0581
 L 48.0862,-64.1477 L 48.1208,-64.2353 L 48.161,-64.3206 L 48.2063,-64.4032 L 48.2569,-64.4827 L 48.3122,-64.5589
 L 48.3723,-64.6316 L 48.4368,-64.7003 L 48.5055,-64.7648 L 48.5781,-64.8248 L 48.6543,-64.8802 L 48.7339,-64.9307
 L 48.8165,-64.9761 L 48.9017,-65.0162 L 48.9893,-65.0509 L 49.079,-65.08 L 49.1703,-65.1035 L 49.2628,-65.1211
 L 49.3563,-65.1329 L 49.4503,-65.1389 L 49.5446,-65.1389 L 49.6386,-65.1329 L 49.7321,-65.1211 L 49.8247,-65.1035
 L 49.916,-65.08 L 50.0056,-65.0509 L 50.0932,-65.0162 L 50.1785,-64.9761 L 50.261,-64.9307 L 50.3406,-64.8802
 L 50.4168,-64.8248 L 50.4894,-64.7648 L 50.5581,-64.7003 L 50.6226,-64.6316 L 50.6827,-64.5589 L 50.7381,-64.4827
 L 50.7886,-64.4032 L 50.834,-64.3206 L 50.8741,-64.2353 L 50.9088,-64.1477 L 50.9379,-64.0581 L 50.9613,-63.9668
 L 50.979,-63.8742 L 50.9908,-63.7807 L 50.9967,-63.6867 L 50.9967,-63.5925 L 50.9908,-63.4984 L 50.979,-63.4049
 L 50.9613,-63.3124 L 50.9379,-63.2211 L 50.9088,-63.1315 L 50.8741,-63.0439 L 50.834,-62.9586 L 50.7886,-62.876
 L 50.7381,-62.7965 L 50.6827,-62.7202 L 50.6226,-62.6476 L 50.5581,-62.5789 L 50.4894,-62.5144 L 50.4168,-62.4544
 L 50.3406,-62.399 L 50.261,-62.3485 L 50.1785,-62.3031 L 50.0932,-62.263 L 50.0056,-62.2283 L 49.916,-62.1991
 L 49.8247,-62.1757 L 49.7321,-62.1581 L 49.6386,-62.1462 L 49.5446,-62.1403 z
M -10.5942,-57.3529 L -10.688,-57.3618 L -10.7811,-57.3766 L -10.873,-57.3971 L -10.9635,-57.4234 L -11.0522,-57.4553
 L -11.1387,-57.4927 L -11.2226,-57.5355 L -11.3037,-57.5835 L -11.3817,-57.6365 L -11.4561,-57.6942 L -11.5268,-57.7565
 L -11.5934,-57.8232 L -11.6558,-57.8938 L -11.7135,-57.9683 L -11.7665,-58.0462 L -11.8145,-58.1273 L -11.8572,-58.2113
 L -11.8947,-58.2978 L -11.9266,-58.3865 L -11.9529,-58.4769 L -11.9734,-58.5689 L -11.9882,-58.662 L -11.997,-58.7558
 L -12,-58.85 L -11.997,-58.9442 L -11.9882,-59.038 L -11.9734,-59.1311 L -11.9529,-59.223 L -11.9266,-59.3135
 L -11.8947,-59.4022 L -11.8572,-59.4886 L -11.8145,-59.5726 L -11.7665,-59.6537 L -11.7135,-59.7317 L -11.6558,-59.8061
 L -11.5934,-59.8768 L -11.5268,-59.9434 L -11.4561,-60.0058 L -11.3817,-60.0635 L -11.3037,-60.1165 L -11.2226,-60.1644
 L -11.1387,-60.2072 L -11.0522,-60.2446 L -10.9635,-60.2766 L -10.873,-60.3029 L -10.7811,-60.3234 L -10.688,-60.3382
 L -10.5942,-60.347 L -10.5,-60.35 L -10.4058,-60.347 L -10.312,-60.3382 L -10.2189,-60.3234 L -10.127,-60.3029
 L -10.0365,-60.2766 L -9.9478,-60.2446 L -9.86131,-60.2072 L -9.77736,-60.1644 L -9.69624,-60.1165 L -9.61832,-60.0635
 L -9.54385,-60.0058 L -9.47318,-59.9434 L -9.40654,-59.8768 L -9.34422,-59.8061 L -9.28647,-59.7317 L -9.23349,-59.6537
 L -9.18553,-59.5726 L -9.14275,-59.4886 L -9.10533,-59.4022 L -9.07341,-59.3135 L -9.04712,-59.223 L -9.02657,-59.1311
 L -9.01181,-59.038 L -9.00294,-58.9442 L -8.99998,-58.85 L -9.00294,-58.7558 L -9.01181,-58.662 L -9.02657,-58.5689
 L -9.04712,-58.4769 L -9.07341,-58.3865 L -9.10533,-58.2978 L -9.14275,-58.2113 L -9.18553,-58.1273 L -9.23349,-58.0462
 L -9.28647,-57.9683 L -9.34422,-57.8938 L -9.40654,-57.8232 L -9.47318,-57.7565 L -9.54385,-57.6942 L -9.61832,-57.6365
 L -9.69624,-57.5835 L -9.77736,-57.5355 L -9.86131,-57.4927 L -9.9478,-57.4553 L -10.0365,-57.4234 L -10.127,-57.3971
 L -10.2189,-57.3766 L -10.312,-57.3618 L -10.4058,-57.3529 L -10.5,-57.35 z
M 22.7058,-57.3529 L 22.612,-57.3618 L 22.5189,-57.3766 L 22.427,-57.3971 L 22.3365,-57.4234 L 22.2478,-57.4553
 L 22.1613,-57.4927 L 22.0774,-57.5355 L 21.9963,-57.5835 L 21.9183,-57.6365 L 21.8439,-57.6942 L 21.7732,-57.7565
 L 21.7065,-57.8232 L 21.6442,-57.8938 L 21.5865,-57.9683 L 21.5335,-58.0462 L 21.4855,-58.1273 L 21.4427,-58.2113
 L 21.4053,-58.2978 L 21.3734,-58.3865 L 21.3471,-58.4769 L 21.3266,-58.5689 L 21.3118,-58.662 L 21.3029,-58.7558
 L 21.3,-58.85 L 21.3029,-58.9442 L 21.3118,-59.038 L 21.3266,-59.1311 L 21.3471,-59.223 L 21.3734,-59.3135
 L 21.4053,-59.4022 L 21.4427,-59.4886 L 21.4855,-59.5726 L 21.5335,-59.6537 L 21.5865,-59.7317 L 21.6442,-59.8061
 L 21.7065,-59.8768 L 21.7732,-59.9434 L 21.8439,-60.0058 L 21.9183,-60.0635 L 21.9963,-60.1165 L 22.0774,-60.1644
 L 22.1613,-60.2072 L 22.2478,-60.2446 L 22.3365,-60.2766 L 22.427,-60.3029 L 22.5189,-60.3234 L 22.612,-60.3382
 L 22.7058,-60.347 L 22.8,-60.35 L 22.8942,-60.347 L 22.988,-60.3382 L 23.0811,-60.3234 L 23.173,-60.3029
 L 23.2635,-60.2766 L 23.3522,-60.2446 L 23.4387,-60.2072 L 23.5226,-60.1644 L 23.6037,-60.1165 L 23.6817,-60.0635
 L 23.7561,-60.0058 L 23.8268,-59.9434 L 23.8934,-59.8768 L 23.9558,-59.8061 L 24.0135,-59.7317 L 24.0665,-59.6537
 L 24.1145,-59.5726 L 24.1572,-59.4886 L 24.1947,-59.4022 L 24.2266,-59.3135 L 24.2529,-59.223 L 24.2734,-59.1311
 L 24.2882,-59.038 L 24.297,-58.9442 L 24.3,-58.85 L 24.297,-58.7558 L 24.2882,-58.662 L 24.2734,-58.5689
 L 24.2529,-58.4769 L 24.2266,-58.3865 L 24.1947,-58.2978 L 24.1572,-58.2113 L 24.1145,-58.1273 L 24.0665,-58.0462
 L 24.0135,-57.9683 L 23.9558,-57.8938 L 23.8934,-57.8232 L 23.8268,-57.7565 L 23.7561,-57.6942 L 23.6817,-57.6365
 L 23.6037,-57.5835 L 23.5226,-57.5355 L 23.4387,-57.4927 L 23.3522,-57.4553 L 23.2635,-57.4234 L 23.173,-57.3971
 L 23.0811,-57.3766 L 22.988,-57.3618 L 22.8942,-57.3529 L 22.8,-57.35 z
M -63.6867,-47.9982 L -63.7807,-48.0041 L -63.8742,-48.0159 L -63.9668,-48.0336 L -64.0581,-48.057 L -64.1477,-48.0862
 L -64.2353,-48.1208 L -64.3206,-48.161 L -64.4031,-48.2064 L -64.4827,-48.2569 L -64.5589,-48.3123 L -64.6316,-48.3723
 L -64.7003,-48.4368 L -64.7648,-48.5055 L -64.8248,-48.5781 L -64.8802,-48.6544 L -64.9307,-48.7339 L -64.9761,-48.8165
 L -65.0162,-48.9018 L -65.0509,-48.9894 L -65.08,-49.079 L -65.1035,-49.1703 L -65.1211,-49.2628 L -65.1329,-49.3563
 L -65.1388,-49.4504 L -65.1388,-49.5446 L -65.1329,-49.6386 L -65.1211,-49.7321 L -65.1035,-49.8247 L -65.08,-49.916
 L -65.0509,-50.0056 L -65.0162,-50.0932 L -64.9761,-50.1785 L -64.9307,-50.261 L -64.8802,-50.3406 L -64.8248,-50.4168
 L -64.7648,-50.4895 L -64.7003,-50.5581 L -64.6316,-50.6227 L -64.5589,-50.6827 L -64.4827,-50.7381 L -64.4031,-50.7886
 L -64.3206,-50.834 L -64.2353,-50.8741 L -64.1477,-50.9088 L -64.0581,-50.9379 L -63.9668,-50.9613 L -63.8742,-50.979
 L -63.7807,-50.9908 L -63.6867,-50.9967 L -63.5925,-50.9967 L -63.4984,-50.9908 L -63.4049,-50.979 L -63.3124,-50.9613
 L -63.2211,-50.9379 L -63.1315,-50.9088 L -63.0439,-50.8741 L -62.9586,-50.834 L -62.876,-50.7886 L -62.7965,-50.7381
 L -62.7202,-50.6827 L -62.6476,-50.6227 L -62.5789,-50.5581 L -62.5144,-50.4895 L -62.4544,-50.4168 L -62.399,-50.3406
 L -62.3485,-50.261 L -62.3031,-50.1785 L -62.263,-50.0932 L -62.2283,-50.0056 L -62.1991,-49.916 L -62.1757,-49.8247
 L -62.1581,-49.7321 L -62.1462,-49.6386 L -62.1403,-49.5446 L -62.1403,-49.4504 L -62.1462,-49.3563 L -62.1581,-49.2628
 L -62.1757,-49.1703 L -62.1991,-49.079 L -62.2283,-48.9894 L -62.263,-48.9018 L -62.3031,-48.8165 L -62.3485,-48.7339
 L -62.399,-48.6544 L -62.4544,-48.5781 L -62.5144,-48.5055 L -62.5789,-48.4368 L -62.6476,-48.3723 L -62.7202,-48.3123
 L -62.7965,-48.2569 L -62.876,-48.2064 L -62.9586,-48.161 L -63.0439,-48.1208 L -63.1315,-48.0862 L -63.2211,-48.057
 L -63.3124,-48.0336 L -63.4049,-48.0159 L -63.4984,-48.0041 L -63.5925,-47.9982 z
M 63.5925,-47.9982 L 63.4984,-48.0041 L 63.4049,-48.0159 L 63.3124,-48.0336 L 63.2211,-48.057 L 63.1315,-48.0862
 L 63.0439,-48.1208 L 62.9586,-48.161 L 62.876,-48.2063 L 62.7965,-48.2569 L 62.7202,-48.3122 L 62.6476,-48.3723
 L 62.5789,-48.4368 L 62.5144,-48.5055 L 62.4544,-48.5781 L 62.399,-48.6543 L 62.3485,-48.7339 L 62.3031,-48.8165
 L 62.263,-48.9017 L 62.2283,-48.9893 L 62.1991,-49.079 L 62.1757,-49.1703 L 62.1581,-49.2628 L 62.1462,-49.3563
 L 62.1403,-49.4503 L 62.1403,-49.5446 L 62.1462,-49.6386 L 62.1581,-49.7321 L 62.1757,-49.8247 L 62.1991,-49.916
 L 62.2283,-50.0056 L 62.263,-50.0932 L 62.3031,-50.1785 L 62.3485,-50.261 L 62.399,-50.3406 L 62.4544,-50.4168
 L 62.5144,-50.4894 L 62.5789,-50.5581 L 62.6476,-50.6226 L 62.7202,-50.6827 L 62.7965,-50.7381 L 62.876,-50.7886
 L 62.9586,-50.834 L 63.0439,-50.8741 L 63.1315,-50.9088 L 63.2211,-50.9379 L 63.3124,-50.9613 L 63.4049,-50.979
 L 63.4984,-50.9908 L 63.5925,-50.9967 L 63.6867,-50.9967 L 63.7807,-50.9908 L 63.8742,-50.979 L 63.9668,-50.9613
 L 64.0581,-50.9379 L 64.1477,-50.9088 L 64.2353,-50.8741 L 64.3206,-50.834 L 64.4032,-50.7886 L 64.4827,-50.7381
 L 64.5589,-50.6827 L 64.6316,-50.6226 L 64.7003,-50.5581 L 64.7648,-50.4894 L 64.8248,-50.4168 L 64.8802,-50.3406
 L 64.9307,-50.261 L 64.9761,-50.1785 L 65.0162,-50.0932 L 65.0509,-50.0056 L 65.08,-49.916 L 65.1035,-49.8247
 L 65.1211,-49.7321 L 65.1329,-49.6386 L 65.1389,-49.5446 L 65.1389,-49.4503 L 65.1329,-49.3563 L 65.1211,-49.2628
 L 65.1035,-49.1703 L 65.08,-49.079 L 65.0509,-48.9893 L 65.0162,-48.9017 L 64.9761,-48.8165 L 64.9307,-48.7339
 L 64.8802,-48.6543 L 64.8248,-48.5781 L 64.7648,-48.5055 L 64.7003,-48.4368 L 64.6316,-48.3723 L 64.5589,-48.3122
 L 64.4827,-48.2569 L 64.4032,-48.2063 L 64.3206,-48.161 L 64.2353,-48.1208 L 64.1477,-48.0862 L 64.0581,-48.057
 L 63.9668,-48.0336 L 63.8742,-48.0159 L 63.7807,-48.0041 L 63.6867,-47.9982 z
M -10.5942,-40.3529 L -10.688,-40.3618 L -10.7811,-40.3766 L -10.873,-40.3971 L -10.9635,-40.4234 L -11.0522,-40.4553
 L -11.1387,-40.4927 L -11.2226,-40.5355 L -11.3037,-40.5835 L -11.3817,-40.6365 L -11.4561,-40.6942 L -11.5268,-40.7565
 L -11.5934,-40.8232 L -11.6558,-40.8938 L -11.7135,-40.9683 L -11.7665,-41.0462 L -11.8145,-41.1273 L -11.8572,-41.2113
 L -11.8947,-41.2978 L -11.9266,-41.3865 L -11.9529,-41.4769 L -11.9734,-41.5689 L -11.9882,-41.662 L -11.997,-41.7558
 L -12,-41.85 L -11.997,-41.9442 L -11.9882,-42.038 L -11.9734,-42.1311 L -11.9529,-42.223 L -11.9266,-42.3135
 L -11.8947,-42.4022 L -11.8572,-42.4886 L -11.8145,-42.5726 L -11.7665,-42.6537 L -11.7135,-42.7317 L -11.6558,-42.8061
 L -11.5934,-42.8768 L -11.5268,-42.9434 L -11.4561,-43.0058 L -11.3817,-43.0635 L -11.3037,-43.1165 L -11.2226,-43.1644
 L -11.1387,-43.2072 L -11.0522,-43.2446 L -10.9635,-43.2766 L -10.873,-43.3029 L -10.7811,-43.3234 L -10.688,-43.3382
 L -10.5942,-43.347 L -10.5,-43.35 L -10.4058,-43.347 L -10.312,-43.3382 L -10.2189,-43.3234 L -10.127,-43.3029
 L -10.0365,-43.2766 L -9.9478,-43.2446 L -9.86131,-43.2072 L -9.77736,-43.1644 L -9.69624,-43.1165 L -9.61832,-43.0635
 L -9.54385,-43.0058 L -9.47318,-42.9434 L -9.40654,-42.8768 L -9.34422,-42.8061 L -9.28647,-42.7317 L -9.23349,-42.6537
 L -9.18553,-42.5726 L -9.14275,-42.4886 L -9.10533,-42.4022 L -9.07341,-42.3135 L -9.04712,-42.223 L -9.02657,-42.1311
 L -9.01181,-42.038 L -9.00294,-41.9442 L -8.99998,-41.85 L -9.00294,-41.7558 L -9.01181,-41.662 L -9.02657,-41.5689
 L -9.04712,-41.4769 L -9.07341,-41.3865 L -9.10533,-41.2978 L -9.14275,-41.2113 L -9.18553,-41.1273 L -9.23349,-41.0462
 L -9.28647,-40.9683 L -9.34422,-40.8938 L -9.40654,-40.8232 L -9.47318,-40.7565 L -9.54385,-40.6942 L -9.61832,-40.6365
 L -9.69624,-40.5835 L -9.77736,-40.5355 L -9.86131,-40.4927 L -9.9478,-40.4553 L -10.0365,-40.4234 L -10.127,-40.3971
 L -10.2189,-40.3766 L -10.312,-40.3618 L -10.4058,-40.3529 L -10.5,-40.35 z
M 22.7058,-40.3529 L 22.612,-40.3618 L 22.5189,-40.3766 L 22.427,-40.3971 L 22.3365,-40.4234 L 22.2478,-40.4553
 L 22.1613,-40.4927 L 22.0774,-40.5355 L 21.9963,-40.5835 L 21.9183,-40.6365 L 21.8439,-40.6942 L 21.7732,-40.7565
 L 21.7065,-40.8232 L 21.6442,-40.8938 L 21.5865,-40.9683 L 21.5335,-41.0462 L 21.4855,-41.1273 L 21.4427,-41.2113
 L 21.4053,-41.2978 L 21.3734,-41.3865 L 21.3471,-41.4769 L 21.3266,-41.5689 L 21.3118,-41.662 L 21.3029,-41.7558
 L 21.3,-41.85 L 21.3029,-41.9442 L 21.3118,-42.038 L 21.3266,-42.1311 L 21.3471,-42.223 L 21.3734,-42.3135
 L 21.4053,-42.4022 L 21.4427,-42.4886 L 21.4855,-42.5726 L 21.5335,-42.6537 L 21.5865,-42.7317 L 21.6442,-42.8061
 L 21.7065,-42.8768 L 21.7732,-42.9434 L 21.8439,-43.0058 L 21.9183,-43.0635 L 21.9963,-43.1165 L 22.0774,-43.1644
 L 22.1613,-43.2072 L 22.2478,-43.2446 L 22.3365,-43.2766 L 22.427,-43.3029 L 22.5189,-43.3234 L 22.612,-43.3382
 L 22.7058,-43.347 L 22.8,-43.35 L 22.8942,-43.347 L 22.988,-43.3382 L 23.0811,-43.3234 L 23.173,-43.3029
 L 23.2635,-43.2766 L 23.3522,-43.2446 L 23.4387,-43.2072 L 23.5226,-43.1644 L 23.6037,-43.1165 L 23.6817,-43.0635
 L 23.7561,-43.0058 L 23.8268,-42.9434 L 23.8934,-42.8768 L 23.9558,-42.8061 L 24.0135,-42.7317 L 24.0665,-42.6537
 L 24.1145,-42.5726 L 24.1572,-42.4886 L 24.1947,-42.4022 L 24.2266,-42.3135 L 24.2529,-42.223 L 24.2734,-42.1311
 L 24.2882,-42.038 L 24.297,-41.9442 L 24.3,-41.85 L 24.297,-41.7558 L 24.2882,-41.662 L 24.2734,-41.5689
 L 24.2529,-41.4769 L 24.2266,-41.3865 L 24.1947,-41.2978 L 24.1572,-41.2113 L 24.1145,-41.1273 L 24.0665,-41.0462
 L 24.0135,-40.9683 L 23.9558,-40.8938 L 23.8934,-40.8232 L 23.8268,-40.7565 L 23.7561,-40.6942 L 23.6817,-40.6365
 L 23.6037,-40.5835 L 23.5226,-40.5355 L 23.4387,-40.4927 L 23.3522,-40.4553 L 23.2635,-40.4234 L 23.173,-40.3971
 L 23.0811,-40.3766 L 22.988,-40.3618 L 22.8942,-40.3529 L 22.8,-40.35 z
M 44.492,-24.5692 L 44.0549,-24.6183 L 43.6219,-24.6946 L 43.1945,-24.798 L 42.7744,-24.9281 L 42.3633,-25.0842
 L 41.9628,-25.2659 L 41.5745,-25.4723 L 41.2,-25.7028 L 40.8407,-25.9563 L 40.4979,-26.2318 L 40.1732,-26.5283
 L 39.8677,-26.8447 L 39.5827,-27.1795 L 39.3193,-27.5317 L 39.0785,-27.8996 L 38.8613,-28.282 L 38.6685,-28.6772
 L 38.5009,-29.0838 L 38.3592,-29.5001 L 38.2439,-29.9245 L 38.1555,-30.3552 L 38.0943,-30.7907 L 38.0606,-31.2292
 L 38.0544,-31.6689 L 38.0759,-32.1081 L 38.1249,-32.5451 L 38.2013,-32.9782 L 38.3047,-33.4056 L 38.4347,-33.8257
 L 38.5909,-34.2368 L 38.7726,-34.6372 L 38.979,-35.0255 L 39.2094,-35.4001 L 39.4629,-35.7594 L 39.7384,-36.1021
 L 40.035,-36.4268 L 40.3513,-36.7323 L 40.6862,-37.0173 L 41.0383,-37.2808 L 41.4063,-37.5215 L 41.7887,-37.7388
 L 42.1839,-37.9315 L 42.5905,-38.0991 L 43.0068,-38.2408 L 43.4311,-38.3561 L 43.8619,-38.4445 L 44.2974,-38.5058
 L 44.7358,-38.5395 L 45.1755,-38.5456 L 45.6147,-38.5242 L 46.0518,-38.4751 L 46.4848,-38.3988 L 46.9122,-38.2954
 L 47.3323,-38.1653 L 47.7434,-38.0092 L 48.1439,-37.8275 L 48.5322,-37.621 L 48.9067,-37.3906 L 49.2661,-37.1371
 L 49.6088,-36.8616 L 49.9335,-36.5651 L 50.239,-36.2487 L 50.524,-35.9138 L 50.7874,-35.5617 L 51.0282,-35.1938
 L 51.2454,-34.8114 L 51.4382,-34.4162 L 51.6058,-34.0096 L 51.7475,-33.5933 L 51.8628,-33.1689 L 51.9512,-32.7382
 L 52.0124,-32.3027 L 52.0461,-31.8642 L 52.0523,-31.4245 L 52.0308,-30.9853 L 51.9818,-30.5483 L 51.9054,-30.1152
 L 51.802,-29.6878 L 51.672,-29.2677 L 51.5158,-28.8566 L 51.3342,-28.4562 L 51.1277,-28.0679 L 50.8973,-27.6933
 L 50.6438,-27.334 L 50.3683,-26.9913 L 50.0717,-26.6665 L 49.7554,-26.3611 L 49.4205,-26.076 L 49.0684,-25.8126
 L 48.7004,-25.5718 L 48.3181,-25.3546 L 47.9228,-25.1618 L 47.5163,-24.9943 L 47.1,-24.8526 L 46.6756,-24.7373
 L 46.2448,-24.6488 L 45.8094,-24.5876 L 45.3709,-24.5539 L 44.9312,-24.5478 z
M -24.25,-19.675 L -24.25,-30.35 L 5.75,-30.35 L 5.75,-19.675 z
M -63.0942,-15.0279 L -63.188,-15.0368 L -63.2811,-15.0516 L -63.373,-15.0721 L -63.4635,-15.0984 L -63.5522,-15.1303
 L -63.6387,-15.1677 L -63.7226,-15.2105 L -63.8037,-15.2585 L -63.8817,-15.3115 L -63.9561,-15.3692 L -64.0268,-15.4315
 L -64.0934,-15.4982 L -64.1558,-15.5688 L -64.2135,-15.6433 L -64.2665,-15.7213 L -64.3145,-15.8024 L -64.3572,-15.8863
 L -64.3947,-15.9728 L -64.4266,-16.0615 L -64.4529,-16.1519 L -64.4734,-16.2439 L -64.4882,-16.337 L -64.497,-16.4308
 L -64.5,-16.525 L -64.497,-16.6192 L -64.4882,-16.713 L -64.4734,-16.8061 L -64.4529,-16.898 L -64.4266,-16.9885
 L -64.3947,-17.0772 L -64.3572,-17.1637 L -64.3145,-17.2476 L -64.2665,-17.3287 L -64.2135,-17.4067 L -64.1558,-17.4811
 L -64.0934,-17.5518 L -64.0268,-17.6184 L -63.9561,-17.6808 L -63.8817,-17.7385 L -63.8037,-17.7915 L -63.7226,-17.8394
 L -63.6387,-17.8822 L -63.5522,-17.9196 L -63.4635,-17.9516 L -63.373,-17.9779 L -63.2811,-17.9984 L -63.188,-18.0132
 L -63.0942,-18.022 L -63,-18.025 L -62.9058,-18.022 L -62.812,-18.0132 L -62.7189,-17.9984 L -62.627,-17.9779
 L -62.5365,-17.9516 L -62.4478,-17.9196 L -62.3613,-17.8822 L -62.2774,-17.8394 L -62.1962,-17.7915 L -62.1183,-17.7385
 L -62.0439,-17.6808 L -61.9732,-17.6184 L -61.9065,-17.5518 L -61.8442,-17.4811 L -61.7865,-17.4067 L -61.7335,-17.3287
 L -61.6855,-17.2476 L -61.6427,-17.1637 L -61.6053,-17.0772 L -61.5734,-16.9885 L -61.5471,-16.898 L -61.5266,-16.8061
 L -61.5118,-16.713 L -61.5029,-16.6192 L -61.5,-16.525 L -61.5029,-16.4308 L -61.5118,-16.337 L -61.5266,-16.2439
 L -61.5471,-16.1519 L -61.5734,-16.0615 L -61.6053,-15.9728 L -61.6427,-15.8863 L -61.6855,-15.8024 L -61.7335,-15.7213
 L -61.7865,-15.6433 L -61.8442,-15.5688 L -61.9065,-15.4982 L -61.9732,-15.4315 L -62.0439,-15.3692 L -62.1183,-15.3115
 L -62.1962,-15.2585 L -62.2774,-15.2105 L -62.3613,-15.1677 L -62.4478,-15.1303 L -62.5365,-15.0984 L -62.627,-15.0721
 L -62.7189,-15.0516 L -62.812,-15.0368 L -62.9058,-15.0279 L -63,-15.025 z
M -29.7942,-15.0279 L -29.888,-15.0368 L -29.9811,-15.0516 L -30.073,-15.0721 L -30.1635,-15.0984 L -30.2522,-15.1303
 L -30.3387,-15.1677 L -30.4226,-15.2105 L -30.5037,-15.2585 L -30.5817,-15.3115 L -30.6561,-15.3692 L -30.7268,-15.4315
 L -30.7934,-15.4982 L -30.8558,-15.5688 L -30.9135,-15.6433 L -30.9665,-15.7213 L -31.0145,-15.8024 L -31.0572,-15.8863
 L -31.0947,-15.9728 L -31.1266,-16.0615 L -31.1529,-16.1519 L -31.1734,-16.2439 L -31.1882,-16.337 L -31.197,-16.4308
 L -31.2,-16.525 L -31.197,-16.6192 L -31.1882,-16.713 L -31.1734,-16.8061 L -31.1529,-16.898 L -31.1266,-16.9885
 L -31.0947,-17.0772 L -31.0572,-17.1637 L -31.0145,-17.2476 L -30.9665,-17.3287 L -30.9135,-17.4067 L -30.8558,-17.4811
 L -30.7934,-17.5518 L -30.7268,-17.6184 L -30.6561,-17.6808 L -30.5817,-17.7385 L -30.5037,-17.7915 L -30.4226,-17.8394
 L -30.3387,-17.8822 L -30.2522,-17.9196 L -30.1635,-17.9516 L -30.073,-17.9779 L -29.9811,-17.9984 L -29.888,-18.0132
 L -29.7942,-18.022 L -29.7,-18.025 L -29.6058,-18.022 L -29.512,-18.0132 L -29.4189,-17.9984 L -29.327,-17.9779
 L -29.2365,-17.9516 L -29.1478,-17.9196 L -29.0613,-17.8822 L -28.9774,-17.8394 L -28.8963,-17.7915 L -28.8183,-17.7385
 L -28.7439,-17.6808 L -28.6732,-17.6184 L -28.6065,-17.5518 L -28.5442,-17.4811 L -28.4865,-17.4067 L -28.4335,-17.3287
 L -28.3855,-17.2476 L -28.3427,-17.1637 L -28.3053,-17.0772 L -28.2734,-16.9885 L -28.2471,-16.898 L -28.2266,-16.8061
 L -28.2118,-16.713 L -28.2029,-16.6192 L -28.2,-16.525 L -28.2029,-16.4308 L -28.2118,-16.337 L -28.2266,-16.2439
 L -28.2471,-16.1519 L -28.2734,-16.0615 L -28.3053,-15.9728 L -28.3427,-15.8863 L -28.3855,-15.8024 L -28.4335,-15.7213
 L -28.4865,-15.6433 L -28.5442,-15.5688 L -28.6065,-15.4982 L -28.6732,-15.4315 L -28.7439,-15.3692 L -28.8183,-15.3115
 L -28.8963,-15.2585 L -28.9774,-15.2105 L -29.0613,-15.1677 L -29.1478,-15.1303 L -29.2365,-15.0984 L -29.327,-15.0721
 L -29.4189,-15.0516 L -29.512,-15.0368 L -29.6058,-15.0279 L -29.7,-15.025 z
M -15.2942,-10.978 L -15.388,-10.9868 L -15.4811,-11.0016 L -15.573,-11.0221 L -15.6635,-11.0484 L -15.7522,-11.0803
 L -15.8387,-11.1178 L -15.9226,-11.1605 L -16.0037,-11.2085 L -16.0817,-11.2615 L -16.1561,-11.3192 L -16.2268,-11.3815
 L -16.2934,-11.4482 L -16.3558,-11.5189 L -16.4135,-11.5933 L -16.4665,-11.6712 L -16.5145,-11.7524 L -16.5572,-11.8363
 L -16.5947,-11.9228 L -16.6266,-12.0115 L -16.6529,-12.102 L -16.6734,-12.1939 L -16.6882,-12.287 L -16.697,-12.3808
 L -16.7,-12.475 L -16.697,-12.5692 L -16.6882,-12.663 L -16.6734,-12.7561 L -16.6529,-12.848 L -16.6266,-12.9385
 L -16.5947,-13.0272 L -16.5572,-13.1137 L -16.5145,-13.1976 L -16.4665,-13.2787 L -16.4135,-13.3567 L -16.3558,-13.4311
 L -16.2934,-13.5018 L -16.2268,-13.5685 L -16.1561,-13.6308 L -16.0817,-13.6885 L -16.0037,-13.7415 L -15.9226,-13.7895
 L -15.8387,-13.8322 L -15.7522,-13.8697 L -15.6635,-13.9016 L -15.573,-13.9279 L -15.4811,-13.9484 L -15.388,-13.9632
 L -15.2942,-13.972 L -15.2,-13.975 L -15.1058,-13.972 L -15.012,-13.9632 L -14.9189,-13.9484 L -14.827,-13.9279
 L -14.7365,-13.9016 L -14.6478,-13.8697 L -14.5613,-13.8322 L -14.4774,-13.7895 L -14.3963,-13.7415 L -14.3183,-13.6885
 L -14.2439,-13.6308 L -14.1732,-13.5685 L -14.1065,-13.5018 L -14.0442,-13.4311 L -13.9865,-13.3567 L -13.9335,-13.2787
 L -13.8855,-13.1976 L -13.8428,-13.1137 L -13.8053,-13.0272 L -13.7734,-12.9385 L -13.7471,-12.848 L -13.7266,-12.7561
 L -13.7118,-12.663 L -13.703,-12.5692 L -13.7,-12.475 L -13.703,-12.3808 L -13.7118,-12.287 L -13.7266,-12.1939
 L -13.7471,-12.102 L -13.7734,-12.0115 L -13.8053,-11.9228 L -13.8428,-11.8363 L -13.8855,-11.7524 L -13.9335,-11.6712
 L -13.9865,-11.5933 L -14.0442,-11.5189 L -14.1065,-11.4482 L -14.1732,-11.3815 L -14.2439,-11.3192 L -14.3183,-11.2615
 L -14.3963,-11.2085 L -14.4774,-11.1605 L -14.5613,-11.1178 L -14.6478,-11.0803 L -14.7365,-11.0484 L -14.827,-11.0221
 L -14.9189,-11.0016 L -15.012,-10.9868 L -15.1058,-10.978 L -15.2,-10.975 z
M 15.1058,-10.978 L 15.012,-10.9868 L 14.9189,-11.0016 L 14.827,-11.0221 L 14.7365,-11.0484 L 14.6478,-11.0803
 L 14.5613,-11.1178 L 14.4774,-11.1605 L 14.3963,-11.2085 L 14.3183,-11.2615 L 14.2439,-11.3192 L 14.1732,-11.3815
 L 14.1065,-11.4482 L 14.0442,-11.5189 L 13.9865,-11.5933 L 13.9335,-11.6712 L 13.8855,-11.7524 L 13.8428,-11.8363
 L 13.8053,-11.9228 L 13.7734,-12.0115 L 13.7471,-12.102 L 13.7266,-12.1939 L 13.7118,-12.287 L 13.703,-12.3808
 L 13.7,-12.475 L 13.703,-12.5692 L 13.7118,-12.663 L 13.7266,-12.7561 L 13.7471,-12.848 L 13.7734,-12.9385
 L 13.8053,-13.0272 L 13.8428,-13.1137 L 13.8855,-13.1976 L 13.9335,-13.2787 L 13.9865,-13.3567 L 14.0442,-13.4311
 L 14.1065,-13.5018 L 14.1732,-13.5685 L 14.2439,-13.6308 L 14.3183,-13.6885 L 14.3963,-13.7415 L 14.4774,-13.7895
 L 14.5613,-13.8322 L 14.6478,-13.8697 L 14.7365,-13.9016 L 14.827,-13.9279 L 14.9189,-13.9484 L 15.012,-13.9632
 L 15.1058,-13.972 L 15.2,-13.975 L 15.2942,-13.972 L 15.388,-13.9632 L 15.4811,-13.9484 L 15.573,-13.9279
 L 15.6635,-13.9016 L 15.7522,-13.8697 L 15.8387,-13.8322 L 15.9226,-13.7895 L 16.0037,-13.7415 L 16.0817,-13.6885
 L 16.1561,-13.6308 L 16.2268,-13.5685 L 16.2934,-13.5018 L 16.3558,-13.4311 L 16.4135,-13.3567 L 16.4665,-13.2787
 L 16.5145,-13.1976 L 16.5572,-13.1137 L 16.5947,-13.0272 L 16.6266,-12.9385 L 16.6529,-12.848 L 16.6734,-12.7561
 L 16.6882,-12.663 L 16.697,-12.5692 L 16.7,-12.475 L 16.697,-12.3808 L 16.6882,-12.287 L 16.6734,-12.1939
 L 16.6529,-12.102 L 16.6266,-12.0115 L 16.5947,-11.9228 L 16.5572,-11.8363 L 16.5145,-11.7524 L 16.4665,-11.6712
 L 16.4135,-11.5933 L 16.3558,-11.5189 L 16.2934,-11.4482 L 16.2268,-11.3815 L 16.1561,-11.3192 L 16.0817,-11.2615
 L 16.0037,-11.2085 L 15.9226,-11.1605 L 15.8387,-11.1178 L 15.7522,-11.0803 L 15.6635,-11.0484 L 15.573,-11.0221
 L 15.4811,-11.0016 L 15.388,-10.9868 L 15.2942,-10.978 L 15.2,-10.975 z
M -2.77014,-0.399994 L -2.7504,-0.524658 L -2.71202,-0.69632 L -2.70702,-0.713531 L -2.71519,-0.691071 L -3.10252,-0.832047
 L -2.9115,-1.35687 L -2.52419,-1.2159 L -2.5311,-1.19688 L -2.45364,-1.34891 L -2.36411,-1.50031 L -2.29504,-1.60194
 L -2.31509,-1.57805 L -2.63083,-1.84299 L -2.27184,-2.27083 L -1.95609,-2.00589 L -1.97774,-1.98009 L -1.91672,-2.04111
 L -1.78477,-2.15742 L -1.6458,-2.26524 L -1.61017,-2.28946 L -1.63574,-2.27469 L -1.84183,-2.63165 L -1.35815,-2.9109
 L -1.15207,-2.55394 L -1.17336,-2.54166 L -1.03075,-2.60336 L -0.865234,-2.66295 L -0.731125,-2.7019 L -0.759109,-2.69698
 L -0.830673,-3.10289 L -0.280655,-3.19987 L -0.209076,-2.79396 L -0.241379,-2.78827 L -0.175812,-2.79446 L 0,-2.79999
 L 0.175812,-2.79446 L 0.241379,-2.78827 L 0.209076,-2.79396 L 0.280655,-3.19987 L 0.830673,-3.10289 L 0.759109,-2.69698
 L 0.731125,-2.7019 L 0.865234,-2.66295 L 1.03075,-2.60336 L 1.17336,-2.54166 L 1.15207,-2.55394 L 1.35815,-2.9109
 L 1.84183,-2.63165 L 1.63574,-2.27469 L 1.61017,-2.28946 L 1.6458,-2.26524 L 1.78477,-2.15742 L 1.91672,-2.04111
 L 1.97774,-1.98009 L 1.95609,-2.00589 L 2.27184,-2.27083 L 2.63083,-1.84299 L 2.31509,-1.57805 L 2.29504,-1.60194
 L 2.36411,-1.50031 L 2.45364,-1.34891 L 2.5311,-1.19688 L 2.52419,-1.2159 L 2.9115,-1.35687 L 3.10252,-0.832047
 L 2.71519,-0.691071 L 2.70702,-0.713531 L 2.71202,-0.69632 L 2.7504,-0.524658 L 2.77014,-0.399994 z
M -63.0942,1.97205 L -63.188,1.96317 L -63.2811,1.94843 L -63.373,1.92787 L -63.4635,1.90158 L -63.5522,1.86966
 L -63.6387,1.83224 L -63.7226,1.78946 L -63.8037,1.74149 L -63.8817,1.68852 L -63.9561,1.63077 L -64.0268,1.56845
 L -64.0934,1.50182 L -64.1558,1.43114 L -64.2135,1.35667 L -64.2665,1.27873 L -64.3145,1.19763 L -64.3572,1.11366
 L -64.3947,1.02719 L -64.4266,0.938522 L -64.4529,0.848038 L -64.4734,0.756073 L -64.4882,0.662994 L -64.497,0.569183
 L -64.5,0.474991 L -64.497,0.380814 L -64.4882,0.287003 L -64.4734,0.193924 L -64.4529,0.101959 L -64.4266,0.0114746
 L -64.3947,-0.077179 L -64.3572,-0.163651 L -64.3145,-0.24762 L -64.2665,-0.32872 L -64.2135,-0.406662 L -64.1558,-0.481125
 L -64.0934,-0.551804 L -64.0268,-0.618439 L -63.9561,-0.680756 L -63.8817,-0.73851 L -63.8037,-0.791473 L -63.7226,-0.839447
 L -63.6387,-0.882233 L -63.5522,-0.919647 L -63.4635,-0.951569 L -63.373,-0.977859 L -63.2811,-0.998413 L -63.188,-1.01315
 L -63.0942,-1.02203 L -63,-1.02499 L -62.9058,-1.02203 L -62.812,-1.01315 L -62.7189,-0.998413 L -62.627,-0.977859
 L -62.5365,-0.951569 L -62.4478,-0.919647 L -62.3613,-0.882233 L -62.2774,-0.839447 L -62.1962,-0.791473 L -62.1183,-0.73851
 L -62.0439,-0.680756 L -61.9732,-0.618439 L -61.9065,-0.551804 L -61.8442,-0.481125 L -61.7865,-0.406662 L -61.7335,-0.32872
 L -61.6855,-0.24762 L -61.6427,-0.163651 L -61.6053,-0.077179 L -61.5734,0.0114746 L -61.5471,0.101959 L -61.5266,0.193924
 L -61.5118,0.287003 L -61.5029,0.380814 L -61.5,0.475006 L -61.5029,0.569183 L -61.5118,0.662994 L -61.5266,0.756073
 L -61.5471,0.848038 L -61.5734,0.938522 L -61.6053,1.02719 L -61.6427,1.11366 L -61.6855,1.19763 L -61.7335,1.27873
 L -61.7865,1.35667 L -61.8442,1.43114 L -61.9065,1.50182 L -61.9732,1.56845 L -62.0439,1.63077 L -62.1183,1.68852
 L -62.1962,1.74149 L -62.2774,1.78946 L -62.3613,1.83224 L -62.4478,1.86966 L -62.5365,1.90158 L -62.627,1.92787
 L -62.7189,1.94843 L -62.812,1.96317 L -62.9058,1.97205 L -63,1.97499 z
M -29.7942,1.97205 L -29.888,1.96317 L -29.9811,1.94843 L -30.073,1.92787 L -30.1635,1.90158 L -30.2522,1.86966
 L -30.3387,1.83224 L -30.4226,1.78946 L -30.5037,1.74149 L -30.5817,1.68852 L -30.6561,1.63077 L -30.7268,1.56845
 L -30.7934,1.50182 L -30.8558,1.43114 L -30.9135,1.35667 L -30.9665,1.27873 L -31.0145,1.19763 L -31.0572,1.11366
 L -31.0947,1.02719 L -31.1266,0.938522 L -31.1529,0.848038 L -31.1734,0.756073 L -31.1882,0.662994 L -31.197,0.569183
 L -31.2,0.474991 L -31.197,0.380814 L -31.1882,0.287003 L -31.1734,0.193924 L -31.1529,0.101959 L -31.1266,0.0114746
 L -31.0947,-0.077179 L -31.0572,-0.163651 L -31.0145,-0.24762 L -30.9665,-0.32872 L -30.9135,-0.406662 L -30.8558,-0.481125
 L -30.7934,-0.551804 L -30.7268,-0.618439 L -30.6561,-0.680756 L -30.5817,-0.73851 L -30.5037,-0.791473 L -30.4226,-0.839447
 L -30.3387,-0.882233 L -30.2522,-0.919647 L -30.1635,-0.951569 L -30.073,-0.977859 L -29.9811,-0.998413 L -29.888,-1.01315
 L -29.7942,-1.02203 L -29.7,-1.02499 L -29.6058,-1.02203 L -29.512,-1.01315 L -29.4189,-0.998413 L -29.327,-0.977859
 L -29.2365,-0.951569 L -29.1478,-0.919647 L -29.0613,-0.882233 L -28.9774,-0.839447 L -28.8963,-0.791473 L -28.8183,-0.73851
 L -28.7439,-0.680756 L -28.6732,-0.618439 L -28.6065,-0.551804 L -28.5442,-0.481125 L -28.4865,-0.406662 L -28.4335,-0.32872
 L -28.3855,-0.24762 L -28.3427,-0.163651 L -28.3053,-0.077179 L -28.2734,0.0114746 L -28.2471,0.101959 L -28.2266,0.193924
 L -28.2118,0.287003 L -28.2029,0.380814 L -28.2,0.475006 L -28.2029,0.569183 L -28.2118,0.662994 L -28.2266,0.756073
 L -28.2471,0.848038 L -28.2734,0.938522 L -28.3053,1.02719 L -28.3427,1.11366 L -28.3855,1.19763 L -28.4335,1.27873
 L -28.4865,1.35667 L -28.5442,1.43114 L -28.6065,1.50182 L -28.6732,1.56845 L -28.7439,1.63077 L -28.8183,1.68852
 L -28.8963,1.74149 L -28.9774,1.78946 L -29.0613,1.83224 L -29.1478,1.86966 L -29.2365,1.90158 L -29.327,1.92787
 L -29.4189,1.94843 L -29.512,1.96317 L -29.6058,1.97205 L -29.7,1.97499 z
M 0.209076,2.79396 L 0.241379,2.78827 L 0.175812,2.79446 L 0,2.79999 L -0.175812,2.79446 L -0.241379,2.78827
 L -0.209076,2.79396 L -0.280655,3.19987 L -0.830673,3.10289 L -0.759109,2.69698 L -0.731125,2.7019 L -0.865234,2.66295
 L -1.03075,2.60336 L -1.17336,2.54166 L -1.15207,2.55394 L -1.35815,2.9109 L -1.84183,2.63165 L -1.63574,2.27469
 L -1.61017,2.28946 L -1.6458,2.26524 L -1.78477,2.15742 L -1.91672,2.04111 L -1.97774,1.98009 L -1.95609,2.00589
 L -2.27184,2.27083 L -2.63083,1.84299 L -2.31509,1.57805 L -2.29504,1.60194 L -2.36411,1.50031 L -2.45364,1.34891
 L -2.5311,1.19688 L -2.52419,1.2159 L -2.9115,1.35687 L -3.10252,0.832047 L -2.71519,0.691071 L -2.70702,0.713531
 L -2.71202,0.69632 L -2.7504,0.524658 L -2.77014,0.399994 L 2.77014,0.399994 L 2.7504,0.524658 L 2.71202,0.69632
 L 2.70702,0.713531 L 2.71519,0.691071 L 3.10252,0.832047 L 2.9115,1.35687 L 2.52419,1.2159 L 2.5311,1.19688
 L 2.45364,1.34891 L 2.36411,1.50031 L 2.29504,1.60194 L 2.31509,1.57805 L 2.63083,1.84299 L 2.27184,2.27083
 L 1.95609,2.00589 L 1.97774,1.98009 L 1.91672,2.04111 L 1.78477,2.15742 L 1.6458,2.26524 L 1.61017,2.28946
 L 1.63574,2.27469 L 1.84183,2.63165 L 1.35815,2.9109 L 1.15207,2.55394 L 1.17336,2.54166 L 1.03075,2.60336
 L 0.865234,2.66295 L 0.731125,2.7019 L 0.759109,2.69698 L 0.830673,3.10289 L 0.280655,3.19987 z
M -15.2942,13.972 L -15.388,13.9632 L -15.4811,13.9484 L -15.573,13.9279 L -15.6635,13.9016 L -15.7522,13.8697
 L -15.8387,13.8322 L -15.9226,13.7895 L -16.0037,13.7415 L -16.0817,13.6885 L -16.1561,13.6308 L -16.2268,13.5685
 L -16.2934,13.5018 L -16.3558,13.4311 L -16.4135,13.3567 L -16.4665,13.2787 L -16.5145,13.1976 L -16.5572,13.1137
 L -16.5947,13.0272 L -16.6266,12.9385 L -16.6529,12.848 L -16.6734,12.7561 L -16.6882,12.663 L -16.697,12.5692
 L -16.7,12.475 L -16.697,12.3808 L -16.6882,12.287 L -16.6734,12.1939 L -16.6529,12.102 L -16.6266,12.0115
 L -16.5947,11.9228 L -16.5572,11.8363 L -16.5145,11.7524 L -16.4665,11.6712 L -16.4135,11.5933 L -16.3558,11.5189
 L -16.2934,11.4482 L -16.2268,11.3815 L -16.1561,11.3192 L -16.0817,11.2615 L -16.0037,11.2085 L -15.9226,11.1605
 L -15.8387,11.1178 L -15.7522,11.0803 L -15.6635,11.0484 L -15.573,11.0221 L -15.4811,11.0016 L -15.388,10.9868
 L -15.2942,10.978 L -15.2,10.975 L -15.1058,10.978 L -15.012,10.9868 L -14.9189,11.0016 L -14.827,11.0221
 L -14.7365,11.0484 L -14.6478,11.0803 L -14.5613,11.1178 L -14.4774,11.1605 L -14.3963,11.2085 L -14.3183,11.2615
 L -14.2439,11.3192 L -14.1732,11.3815 L -14.1065,11.4482 L -14.0442,11.5189 L -13.9865,11.5933 L -13.9335,11.6712
 L -13.8855,11.7524 L -13.8428,11.8363 L -13.8053,11.9228 L -13.7734,12.0115 L -13.7471,12.102 L -13.7266,12.1939
 L -13.7118,12.287 L -13.703,12.3808 L -13.7,12.475 L -13.703,12.5692 L -13.7118,12.663 L -13.7266,12.7561
 L -13.7471,12.848 L -13.7734,12.9385 L -13.8053,13.0272 L -13.8428,13.1137 L -13.8855,13.1976 L -13.9335,13.2787
 L -13.9865,13.3567 L -14.0442,13.4311 L -14.1065,13.5018 L -14.1732,13.5685 L -14.2439,13.6308 L -14.3183,13.6885
 L -14.3963,13.7415 L -14.4774,13.7895 L -14.5613,13.8322 L -14.6478,13.8697 L -14.7365,13.9016 L -14.827,13.9279
 L -14.9189,13.9484 L -15.012,13.9632 L -15.1058,13.972 L -15.2,13.975 z
M 15.1058,13.972 L 15.012,13.9632 L 14.9189,13.9484 L 14.827,13.9279 L 14.7365,13.9016 L 14.6478,13.8697
 L 14.5613,13.8322 L 14.4774,13.7895 L 14.3963,13.7415 L 14.3183,13.6885 L 14.2439,13.6308 L 14.1732,13.5685
 L 14.1065,13.5018 L 14.0442,13.4311 L 13.9865,13.3567 L 13.9335,13.2787 L 13.8855,13.1976 L 13.8428,13.1137
 L 13.8053,13.0272 L 13.7734,12.9385 L 13.7471,12.848 L 13.7266,12.7561 L 13.7118,12.663 L 13.703,12.5692
 L 13.7,12.475 L 13.703,12.3808 L 13.7118,12.287 L 13.7266,12.1939 L 13.7471,12.102 L 13.7734,12.0115
 L 13.8053,11.9228 L 13.8428,11.8363 L 13.8855,11.7524 L 13.9335,11.6712 L 13.9865,11.5933 L 14.0442,11.5189
 L 14.1065,11.4482 L 14.1732,11.3815 L 14.2439,11.3192 L 14.3183,11.2615 L 14.3963,11.2085 L 14.4774,11.1605
 L 14.5613,11.1178 L 14.6478,11.0803 L 14.7365,11.0484 L 14.827,11.0221 L 14.9189,11.0016 L 15.012,10.9868
 L 15.1058,10.978 L 15.2,10.975 L 15.2942,10.978 L 15.388,10.9868 L 15.4811,11.0016 L 15.573,11.0221
 L 15.6635,11.0484 L 15.7522,11.0803 L 15.8387,11.1178 L 15.9226,11.1605 L 16.0037,11.2085 L 16.0817,11.2615
 L 16.1561,11.3192 L 16.2268,11.3815 L 16.2934,11.4482 L 16.3558,11.5189 L 16.4135,11.5933 L 16.4665,11.6712
 L 16.5145,11.7524 L 16.5572,11.8363 L 16.5947,11.9228 L 16.6266,12.0115 L 16.6529,12.102 L 16.6734,12.1939
 L 16.6882,12.287 L 16.697,12.3808 L 16.7,12.475 L 16.697,12.5692 L 16.6882,12.663 L 16.6734,12.7561
 L 16.6529,12.848 L 16.6266,12.9385 L 16.5947,13.0272 L 16.5572,13.1137 L 16.5145,13.1976 L 16.4665,13.2787
 L 16.4135,13.3567 L 16.3558,13.4311 L 16.2934,13.5018 L 16.2268,13.5685 L 16.1561,13.6308 L 16.0817,13.6885
 L 16.0037,13.7415 L 15.9226,13.7895 L 15.8387,13.8322 L 15.7522,13.8697 L 15.6635,13.9016 L 15.573,13.9279
 L 15.4811,13.9484 L 15.388,13.9632 L 15.2942,13.972 L 15.2,13.975 z
M -13.3054,36.481 L -13.3994,36.4751 L -13.4929,36.4633 L -13.5854,36.4456 L -13.6767,36.4222 L -13.7663,36.3931
 L -13.8539,36.3584 L -13.9392,36.3183 L -14.0218,36.2729 L -14.1013,36.2224 L -14.1776,36.167 L -14.2502,36.1069
 L -14.3189,36.0424 L -14.3834,35.9737 L -14.4435,35.9011 L -14.4989,35.8249 L -14.5493,35.7453 L -14.5947,35.6627
 L -14.6349,35.5775 L -14.6696,35.4899 L -14.6987,35.4002 L -14.7221,35.309 L -14.7398,35.2164 L -14.7516,35.1229
 L -14.7575,35.0289 L -14.7575,34.9346 L -14.7516,34.8406 L -14.7398,34.7471 L -14.7221,34.6545 L -14.6987,34.5633
 L -14.6696,34.4736 L -14.6349,34.386 L -14.5947,34.3008 L -14.5493,34.2182 L -14.4989,34.1386 L -14.4435,34.0624
 L -14.3834,33.9898 L -14.3189,33.9211 L -14.2502,33.8566 L -14.1776,33.7965 L -14.1014,33.7411 L -14.0218,33.6906
 L -13.9392,33.6452 L -13.854,33.6051 L -13.7664,33.5704 L -13.6767,33.5413 L -13.5855,33.5179 L -13.4929,33.5002
 L -13.3994,33.4884 L -13.3054,33.4825 L -13.2111,33.4825 L -13.1171,33.4884 L -13.0236,33.5002 L -12.931,33.5179
 L -12.8398,33.5413 L -12.7501,33.5704 L -12.6625,33.6051 L -12.5773,33.6452 L -12.4947,33.6906 L -12.4151,33.7411
 L -12.3389,33.7965 L -12.2663,33.8566 L -12.1976,33.9211 L -12.1331,33.9898 L -12.073,34.0624 L -12.0176,34.1386
 L -11.9671,34.2182 L -11.9217,34.3008 L -11.8816,34.386 L -11.8469,34.4736 L -11.8178,34.5633 L -11.7944,34.6545
 L -11.7767,34.7471 L -11.7649,34.8406 L -11.759,34.9346 L -11.759,35.0289 L -11.7649,35.1229 L -11.7767,35.2164
 L -11.7944,35.309 L -11.8178,35.4002 L -11.8469,35.4899 L -11.8816,35.5775 L -11.9217,35.6627 L -11.9671,35.7453
 L -12.0176,35.8249 L -12.073,35.9011 L -12.1331,35.9737 L -12.1976,36.0424 L -12.2663,36.1069 L -12.3389,36.167
 L -12.4151,36.2224 L -12.4947,36.2729 L -12.5773,36.3183 L -12.6625,36.3584 L -12.7501,36.3931 L -12.8398,36.4222
 L -12.931,36.4456 L -13.0236,36.4633 L -13.1171,36.4751 L -13.2111,36.481 z
M 13.2111,36.481 L 13.1171,36.4751 L 13.0236,36.4633 L 12.931,36.4456 L 12.8397,36.4222 L 12.7501,36.3931
 L 12.6625,36.3584 L 12.5772,36.3183 L 12.4947,36.2729 L 12.4151,36.2224 L 12.3389,36.167 L 12.2663,36.1069
 L 12.1976,36.0424 L 12.1331,35.9737 L 12.073,35.9011 L 12.0176,35.8249 L 11.9671,35.7453 L 11.9217,35.6627
 L 11.8816,35.5775 L 11.8469,35.4899 L 11.8178,35.4002 L 11.7944,35.309 L 11.7767,35.2164 L 11.7649,35.1229
 L 11.759,35.0289 L 11.759,34.9346 L 11.7649,34.8406 L 11.7767,34.7471 L 11.7944,34.6545 L 11.8178,34.5633
 L 11.8469,34.4736 L 11.8816,34.386 L 11.9217,34.3008 L 11.9671,34.2182 L 12.0176,34.1386 L 12.073,34.0624
 L 12.1331,33.9898 L 12.1976,33.9211 L 12.2663,33.8566 L 12.3389,33.7965 L 12.4151,33.7411 L 12.4947,33.6906
 L 12.5772,33.6452 L 12.6625,33.6051 L 12.7501,33.5704 L 12.8397,33.5413 L 12.931,33.5179 L 13.0236,33.5002
 L 13.1171,33.4884 L 13.2111,33.4825 L 13.3053,33.4825 L 13.3994,33.4884 L 13.4929,33.5002 L 13.5854,33.5179
 L 13.6767,33.5413 L 13.7663,33.5704 L 13.8539,33.6051 L 13.9392,33.6452 L 14.0218,33.6906 L 14.1013,33.7411
 L 14.1776,33.7965 L 14.2502,33.8566 L 14.3189,33.9211 L 14.3834,33.9898 L 14.4435,34.0624 L 14.4988,34.1386
 L 14.5493,34.2182 L 14.5947,34.3008 L 14.6349,34.386 L 14.6695,34.4736 L 14.6987,34.5633 L 14.7221,34.6545
 L 14.7397,34.7471 L 14.7516,34.8406 L 14.7575,34.9346 L 14.7575,35.0289 L 14.7516,35.1229 L 14.7397,35.2164
 L 14.7221,35.309 L 14.6987,35.4002 L 14.6695,35.4899 L 14.6349,35.5775 L 14.5947,35.6627 L 14.5493,35.7453
 L 14.4988,35.8249 L 14.4435,35.9011 L 14.3834,35.9737 L 14.3189,36.0424 L 14.2502,36.1069 L 14.1776,36.167
 L 14.1013,36.2224 L 14.0218,36.2729 L 13.9392,36.3183 L 13.8539,36.3584 L 13.7663,36.3931 L 13.6767,36.4222
 L 13.5854,36.4456 L 13.4929,36.4633 L 13.3994,36.4751 L 13.3053,36.481 z
M 63.5925,50.9967 L 63.4984,50.9908 L 63.4049,50.979 L 63.3124,50.9613 L 63.2211,50.9379 L 63.1315,50.9088
 L 63.0439,50.8741 L 62.9586,50.834 L 62.876,50.7886 L 62.7965,50.7381 L 62.7202,50.6827 L 62.6476,50.6227
 L 62.5789,50.5581 L 62.5144,50.4895 L 62.4544,50.4168 L 62.399,50.3406 L 62.3485,50.261 L 62.3031,50.1785
 L 62.263,50.0932 L 62.2283,50.0056 L 62.1991,49.916 L 62.1757,49.8247 L 62.1581,49.7321 L 62.1462,49.6386
 L 62.1403,49.5446 L 62.1403,49.4504 L 62.1462,49.3563 L 62.1581,49.2628 L 62.1757,49.1703 L 62.1991,49.079
 L 62.2283,48.9894 L 62.263,48.9018 L 62.3031,48.8165 L 62.3485,48.7339 L 62.399,48.6544 L 62.4544,48.5781
 L 62.5144,48.5055 L 62.5789,48.4368 L 62.6476,48.3723 L 62.7202,48.3123 L 62.7965,48.2569 L 62.876,48.2064
 L 62.9586,48.161 L 63.0439,48.1208 L 63.1315,48.0862 L 63.2211,48.057 L 63.3124,48.0336 L 63.4049,48.0159
 L 63.4984,48.0041 L 63.5925,47.9982 L 63.6867,47.9982 L 63.7807,48.0041 L 63.8742,48.0159 L 63.9668,48.0336
 L 64.0581,48.057 L 64.1477,48.0862 L 64.2353,48.1208 L 64.3206,48.161 L 64.4031,48.2064 L 64.4827,48.2569
 L 64.5589,48.3123 L 64.6316,48.3723 L 64.7003,48.4368 L 64.7648,48.5055 L 64.8248,48.5781 L 64.8802,48.6544
 L 64.9307,48.7339 L 64.9761,48.8165 L 65.0162,48.9018 L 65.0509,48.9894 L 65.08,49.079 L 65.1035,49.1703
 L 65.1211,49.2628 L 65.1329,49.3563 L 65.1388,49.4504 L 65.1388,49.5446 L 65.1329,49.6386 L 65.1211,49.7321
 L 65.1035,49.8247 L 65.08,49.916 L 65.0509,50.0056 L 65.0162,50.0932 L 64.9761,50.1785 L 64.9307,50.261
 L 64.8802,50.3406 L 64.8248,50.4168 L 64.7648,50.4895 L 64.7003,50.5581 L 64.6316,50.6227 L 64.5589,50.6827
 L 64.4827,50.7381 L 64.4031,50.7886 L 64.3206,50.834 L 64.2353,50.8741 L 64.1477,50.9088 L 64.0581,50.9379
 L 63.9668,50.9613 L 63.8742,50.979 L 63.7807,50.9908 L 63.6867,50.9967 z
M -63.6867,50.9967 L -63.7807,50.9908 L -63.8742,50.979 L -63.9668,50.9613 L -64.0581,50.9379 L -64.1477,50.9088
 L -64.2353,50.8741 L -64.3206,50.834 L -64.4032,50.7886 L -64.4827,50.7381 L -64.5589,50.6827 L -64.6316,50.6226
 L -64.7003,50.5581 L -64.7648,50.4894 L -64.8248,50.4168 L -64.8802,50.3406 L -64.9307,50.261 L -64.9761,50.1785
 L -65.0162,50.0932 L -65.0509,50.0056 L -65.08,49.916 L -65.1035,49.8247 L -65.1211,49.7321 L -65.1329,49.6386
 L -65.1389,49.5446 L -65.1389,49.4503 L -65.1329,49.3563 L -65.1211,49.2628 L -65.1035,49.1703 L -65.08,49.079
 L -65.0509,48.9893 L -65.0162,48.9017 L -64.9761,48.8165 L -64.9307,48.7339 L -64.8802,48.6543 L -64.8248,48.5781
 L -64.7648,48.5055 L -64.7003,48.4368 L -64.6316,48.3723 L -64.5589,48.3122 L -64.4827,48.2569 L -64.4032,48.2063
 L -64.3206,48.161 L -64.2353,48.1208 L -64.1477,48.0862 L -64.0581,48.057 L -63.9668,48.0336 L -63.8742,48.0159
 L -63.7807,48.0041 L -63.6867,47.9982 L -63.5925,47.9982 L -63.4984,48.0041 L -63.4049,48.0159 L -63.3124,48.0336
 L -63.2211,48.057 L -63.1315,48.0862 L -63.0439,48.1208 L -62.9586,48.161 L -62.876,48.2063 L -62.7965,48.2569
 L -62.7202,48.3122 L -62.6476,48.3723 L -62.5789,48.4368 L -62.5144,48.5055 L -62.4544,48.5781 L -62.399,48.6543
 L -62.3485,48.7339 L -62.3031,48.8165 L -62.263,48.9017 L -62.2283,48.9893 L -62.1991,49.079 L -62.1757,49.1703
 L -62.1581,49.2628 L -62.1462,49.3563 L -62.1403,49.4503 L -62.1403,49.5446 L -62.1462,49.6386 L -62.1581,49.7321
 L -62.1757,49.8247 L -62.1991,49.916 L -62.2283,50.0056 L -62.263,50.0932 L -62.3031,50.1785 L -62.3485,50.261
 L -62.399,50.3406 L -62.4544,50.4168 L -62.5144,50.4894 L -62.5789,50.5581 L -62.6476,50.6226 L -62.7202,50.6827
 L -62.7965,50.7381 L -62.876,50.7886 L -62.9586,50.834 L -63.0439,50.8741 L -63.1315,50.9088 L -63.2211,50.9379
 L -63.3124,50.9613 L -63.4049,50.979 L -63.4984,50.9908 L -63.5925,50.9967 z
M -0.384262,61.3479 L -0.767014,61.3117 L -1.14674,61.2516 L -1.52196,61.1677 L -1.89116,61.0605 L -2.2529,60.9302
 L -2.60574,60.7775 L -2.9483,60.603 L -3.27924,60.4073 L -3.59723,60.1912 L -3.90102,59.9555 L -4.18941,59.7013
 L -4.46126,59.4294 L -4.71552,59.141 L -4.95116,58.8372 L -5.16727,58.5192 L -5.36298,58.1883 L -5.53752,57.8457
 L -5.69022,57.4929 L -5.82047,57.1312 L -5.92772,56.762 L -6.0116,56.3867 L -6.07173,56.007 L -6.10791,55.6243
 L -6.12,55.24 L -6.10791,54.8557 L -6.07173,54.473 L -6.0116,54.0932 L -5.92772,53.718 L -5.82047,53.3488
 L -5.69023,52.9871 L -5.53754,52.6342 L -5.36299,52.2917 L -5.16728,51.9607 L -4.95117,51.6427 L -4.71553,51.339
 L -4.46127,51.0506 L -4.18942,50.7787 L -3.90103,50.5245 L -3.59724,50.2888 L -3.27925,50.0727 L -2.94832,49.877
 L -2.60576,49.7025 L -2.25291,49.5498 L -1.89117,49.4195 L -1.52197,49.3123 L -1.14676,49.2284 L -0.767029,49.1683
 L -0.384277,49.1321 L 0,49.12 L 0.384262,49.1321 L 0.767014,49.1683 L 1.14674,49.2284 L 1.52196,49.3123
 L 1.89116,49.4195 L 2.2529,49.5498 L 2.60574,49.7025 L 2.9483,49.877 L 3.27924,50.0727 L 3.59723,50.2888
 L 3.90102,50.5245 L 4.18941,50.7787 L 4.46126,51.0506 L 4.71552,51.339 L 4.95116,51.6427 L 5.16727,51.9607
 L 5.36298,52.2917 L 5.53752,52.6342 L 5.69022,52.9871 L 5.82047,53.3488 L 5.92772,53.718 L 6.0116,54.0932
 L 6.07173,54.473 L 6.10791,54.8557 L 6.12,55.24 L 6.10791,55.6243 L 6.07173,56.007 L 6.0116,56.3867
 L 5.92772,56.762 L 5.82047,57.1312 L 5.69023,57.4929 L 5.53754,57.8457 L 5.36299,58.1883 L 5.16728,58.5192
 L 4.95117,58.8372 L 4.71553,59.141 L 4.46127,59.4294 L 4.18942,59.7013 L 3.90103,59.9555 L 3.59724,60.1912
 L 3.27925,60.4073 L 2.94832,60.603 L 2.60576,60.7775 L 2.25291,60.9302 L 1.89117,61.0605 L 1.52197,61.1677
 L 1.14676,61.2516 L 0.767029,61.3117 L 0.384277,61.3479 L 0,61.36 z
M 13.2111,62.9975 L 13.1171,62.9916 L 13.0236,62.9798 L 12.931,62.9621 L 12.8398,62.9387 L 12.7501,62.9095
 L 12.6625,62.8749 L 12.5773,62.8347 L 12.4947,62.7893 L 12.4151,62.7388 L 12.3389,62.6835 L 12.2663,62.6234
 L 12.1976,62.5589 L 12.1331,62.4902 L 12.073,62.4176 L 12.0176,62.3413 L 11.9671,62.2618 L 11.9217,62.1792
 L 11.8816,62.0939 L 11.8469,62.0063 L 11.8178,61.9167 L 11.7944,61.8254 L 11.7767,61.7329 L 11.7649,61.6394
 L 11.759,61.5453 L 11.759,61.4511 L 11.7649,61.3571 L 11.7767,61.2636 L 11.7944,61.171 L 11.8178,61.0797
 L 11.8469,60.9901 L 11.8816,60.9025 L 11.9217,60.8172 L 11.9671,60.7347 L 12.0176,60.6551 L 12.073,60.5789
 L 12.1331,60.5063 L 12.1976,60.4376 L 12.2663,60.3731 L 12.3389,60.313 L 12.4151,60.2576 L 12.4947,60.2071
 L 12.5773,60.1617 L 12.6625,60.1216 L 12.7501,60.0869 L 12.8398,60.0578 L 12.931,60.0344 L 13.0236,60.0167
 L 13.1171,60.0049 L 13.2111,59.999 L 13.3054,59.999 L 13.3994,60.0049 L 13.4929,60.0167 L 13.5854,60.0344
 L 13.6767,60.0578 L 13.7663,60.0869 L 13.8539,60.1216 L 13.9392,60.1617 L 14.0218,60.2071 L 14.1013,60.2576
 L 14.1776,60.313 L 14.2502,60.3731 L 14.3189,60.4376 L 14.3834,60.5063 L 14.4435,60.5789 L 14.4989,60.6551
 L 14.5493,60.7347 L 14.5947,60.8172 L 14.6349,60.9025 L 14.6696,60.9901 L 14.6987,61.0797 L 14.7221,61.171
 L 14.7398,61.2636 L 14.7516,61.3571 L 14.7575,61.4511 L 14.7575,61.5453 L 14.7516,61.6394 L 14.7398,61.7329
 L 14.7221,61.8255 L 14.6987,61.9167 L 14.6696,62.0063 L 14.6349,62.0939 L 14.5947,62.1792 L 14.5493,62.2618
 L 14.4989,62.3414 L 14.4435,62.4176 L 14.3834,62.4902 L 14.3189,62.5589 L 14.2502,62.6234 L 14.1776,62.6835
 L 14.1014,62.7388 L 14.0218,62.7893 L 13.9392,62.8347 L 13.854,62.8749 L 13.7664,62.9095 L 13.6767,62.9387
 L 13.5855,62.9621 L 13.4929,62.9798 L 13.3994,62.9916 L 13.3054,62.9975 z
M -13.3053,62.9975 L -13.3994,62.9916 L -13.4929,62.9798 L -13.5854,62.9621 L -13.6767,62.9387 L -13.7663,62.9095
 L -13.8539,62.8749 L -13.9392,62.8347 L -14.0218,62.7893 L -14.1013,62.7388 L -14.1776,62.6835 L -14.2502,62.6234
 L -14.3189,62.5589 L -14.3834,62.4902 L -14.4435,62.4176 L -14.4988,62.3414 L -14.5493,62.2618 L -14.5947,62.1792
 L -14.6349,62.0939 L -14.6695,62.0063 L -14.6987,61.9167 L -14.7221,61.8255 L -14.7397,61.7329 L -14.7516,61.6394
 L -14.7575,61.5453 L -14.7575,61.4511 L -14.7516,61.3571 L -14.7397,61.2636 L -14.7221,61.171 L -14.6987,61.0797
 L -14.6695,60.9901 L -14.6349,60.9025 L -14.5947,60.8172 L -14.5493,60.7347 L -14.4988,60.6551 L -14.4435,60.5789
 L -14.3834,60.5063 L -14.3189,60.4376 L -14.2502,60.3731 L -14.1776,60.313 L -14.1013,60.2576 L -14.0218,60.2071
 L -13.9392,60.1617 L -13.8539,60.1216 L -13.7663,60.0869 L -13.6767,60.0578 L -13.5854,60.0344 L -13.4929,60.0167
 L -13.3994,60.0049 L -13.3053,59.999 L -13.2111,59.999 L -13.1171,60.0049 L -13.0236,60.0167 L -12.931,60.0344
 L -12.8397,60.0578 L -12.7501,60.0869 L -12.6625,60.1216 L -12.5772,60.1617 L -12.4947,60.2071 L -12.4151,60.2576
 L -12.3389,60.313 L -12.2663,60.3731 L -12.1976,60.4376 L -12.1331,60.5063 L -12.073,60.5789 L -12.0176,60.6551
 L -11.9671,60.7347 L -11.9217,60.8172 L -11.8816,60.9025 L -11.8469,60.9901 L -11.8178,61.0797 L -11.7944,61.171
 L -11.7767,61.2636 L -11.7649,61.3571 L -11.759,61.4511 L -11.759,61.5453 L -11.7649,61.6394 L -11.7767,61.7329
 L -11.7944,61.8254 L -11.8178,61.9167 L -11.8469,62.0063 L -11.8816,62.0939 L -11.9217,62.1792 L -11.9671,62.2618
 L -12.0176,62.3413 L -12.073,62.4176 L -12.1331,62.4902 L -12.1976,62.5589 L -12.2663,62.6234 L -12.3389,62.6835
 L -12.4151,62.7388 L -12.4947,62.7893 L -12.5772,62.8347 L -12.6625,62.8749 L -12.7501,62.9095 L -12.8397,62.9387
 L -12.931,62.9621 L -13.0236,62.9798 L -13.1171,62.9916 L -13.2111,62.9975 z
M -49.5446,65.1388 L -49.6386,65.1329 L -49.7321,65.1211 L -49.8247,65.1035 L -49.916,65.08 L -50.0056,65.0509
 L -50.0932,65.0162 L -50.1785,64.9761 L -50.261,64.9307 L -50.3406,64.8802 L -50.4168,64.8248 L -50.4895,64.7648
 L -50.5581,64.7003 L -50.6227,64.6316 L -50.6827,64.5589 L -50.7381,64.4827 L -50.7886,64.4031 L -50.834,64.3206
 L -50.8741,64.2353 L -50.9088,64.1477 L -50.9379,64.0581 L -50.9613,63.9668 L -50.979,63.8742 L -50.9908,63.7807
 L -50.9967,63.6867 L -50.9967,63.5925 L -50.9908,63.4984 L -50.979,63.4049 L -50.9613,63.3124 L -50.9379,63.2211
 L -50.9088,63.1315 L -50.8741,63.0439 L -50.834,62.9586 L -50.7886,62.876 L -50.7381,62.7965 L -50.6827,62.7202
 L -50.6227,62.6476 L -50.5581,62.5789 L -50.4895,62.5144 L -50.4168,62.4544 L -50.3406,62.399 L -50.261,62.3485
 L -50.1785,62.3031 L -50.0932,62.263 L -50.0056,62.2283 L -49.916,62.1991 L -49.8247,62.1757 L -49.7321,62.1581
 L -49.6386,62.1462 L -49.5446,62.1403 L -49.4504,62.1403 L -49.3563,62.1462 L -49.2628,62.1581 L -49.1703,62.1757
 L -49.079,62.1991 L -48.9894,62.2283 L -48.9018,62.263 L -48.8165,62.3031 L -48.7339,62.3485 L -48.6544,62.399
 L -48.5781,62.4544 L -48.5055,62.5144 L -48.4368,62.5789 L -48.3723,62.6476 L -48.3123,62.7202 L -48.2569,62.7965
 L -48.2064,62.876 L -48.161,62.9586 L -48.1208,63.0439 L -48.0862,63.1315 L -48.057,63.2211 L -48.0336,63.3124
 L -48.0159,63.4049 L -48.0041,63.4984 L -47.9982,63.5925 L -47.9982,63.6867 L -48.0041,63.7807 L -48.0159,63.8742
 L -48.0336,63.9668 L -48.057,64.0581 L -48.0862,64.1477 L -48.1208,64.2353 L -48.161,64.3206 L -48.2064,64.4031
 L -48.2569,64.4827 L -48.3123,64.5589 L -48.3723,64.6316 L -48.4368,64.7003 L -48.5055,64.7648 L -48.5781,64.8248
 L -48.6544,64.8802 L -48.7339,64.9307 L -48.8165,64.9761 L -48.9018,65.0162 L -48.9894,65.0509 L -49.079,65.08
 L -49.1703,65.1035 L -49.2628,65.1211 L -49.3563,65.1329 L -49.4504,65.1388 z
M 49.4503,65.1389 L 49.3563,65.1329 L 49.2628,65.1211 L 49.1703,65.1035 L 49.079,65.08 L 48.9893,65.0509
 L 48.9017,65.0162 L 48.8165,64.9761 L 48.7339,64.9307 L 48.6543,64.8802 L 48.5781,64.8248 L 48.5055,64.7648
 L 48.4368,64.7003 L 48.3723,64.6316 L 48.3122,64.5589 L 48.2569,64.4827 L 48.2063,64.4032 L 48.161,64.3206
 L 48.1208,64.2353 L 48.0862,64.1477 L 48.057,64.0581 L 48.0336,63.9668 L 48.0159,63.8742 L 48.0041,63.7807
 L 47.9982,63.6867 L 47.9982,63.5925 L 48.0041,63.4984 L 48.0159,63.4049 L 48.0336,63.3124 L 48.057,63.2211
 L 48.0862,63.1315 L 48.1208,63.0439 L 48.161,62.9586 L 48.2063,62.876 L 48.2569,62.7965 L 48.3122,62.7202
 L 48.3723,62.6476 L 48.4368,62.5789 L 48.5055,62.5144 L 48.5781,62.4544 L 48.6543,62.399 L 48.7339,62.3485
 L 48.8165,62.3031 L 48.9017,62.263 L 48.9893,62.2283 L 49.079,62.1991 L 49.1703,62.1757 L 49.2628,62.1581
 L 49.3563,62.1462 L 49.4503,62.1403 L 49.5446,62.1403 L 49.6386,62.1462 L 49.7321,62.1581 L 49.8247,62.1757
 L 49.916,62.1991 L 50.0056,62.2283 L 50.0932,62.263 L 50.1785,62.3031 L 50.261,62.3485 L 50.3406,62.399
 L 50.4168,62.4544 L 50.4894,62.5144 L 50.5581,62.5789 L 50.6226,62.6476 L 50.6827,62.7202 L 50.7381,62.7965
 L 50.7886,62.876 L 50.834,62.9586 L 50.8741,63.0439 L 50.9088,63.1315 L 50.9379,63.2211 L 50.9613,63.3124
 L 50.979,63.4049 L 50.9908,63.4984 L 50.9967,63.5925 L 50.9967,63.6867 L 50.9908,63.7807 L 50.979,63.8742
 L 50.9613,63.9668 L 50.9379,64.0581 L 50.9088,64.1477 L 50.8741,64.2353 L 50.834,64.3206 L 50.7886,64.4032
 L 50.7381,64.4827 L 50.6827,64.5589 L 50.6226,64.6316 L 50.5581,64.7003 L 50.4894,64.7648 L 50.4168,64.8248
 L 50.3406,64.8802 L 50.261,64.9307 L 50.1785,64.9761 L 50.0932,65.0162 L 50.0056,65.0509 L 49.916,65.08
 L 49.8247,65.1035 L 49.7321,65.1211 L 49.6386,65.1329 L 49.5446,65.1389 z
" stroke="black" fill="lightgray" stroke-width="0.5"/></svg>
